<?xml version="1.0" encoding="utf-8"?>
<!-- Generator: Adobe Illustrator 18.1.1, SVG Export Plug-In . SVG Version: 6.00 Build 0)  -->
<svg version="1.1" xmlns="http://www.w3.org/2000/svg" xmlns:xlink="http://www.w3.org/1999/xlink" x="0px" y="0px"
	 width="83.697px" height="83.698px" viewBox="1725.924 895.223 83.697 83.698"
	 enable-background="new 1725.924 895.223 83.697 83.698" xml:space="preserve">
<g id="Export_Sheet">
</g>
<g id="Source_Artwork">
	<path fill="#414C52" d="M1793.949,904.895h-52.353c-3.314,0-6,2.686-6,6l0,49.352c0,4.963,4.037,9,9,9h46.353c4.963,0,9-4.037,9-9
		l0-49.352C1799.949,907.581,1797.263,904.895,1793.949,904.895z M1793.949,960.247c0,1.654-1.346,3-3,3h-46.353
		c-1.654,0-3-1.346-3-3v-31.403l0,0.002c0-1.381,1.119-2.5,2.5-2.5h47.352c1.381,0,2.5,1.119,2.5,2.5V960.247z M1762.049,944.173
		c0.407-0.216,0.798-0.51,1.17-0.882s0.702-0.805,0.99-1.297c0.288-0.491,0.522-1.025,0.702-1.602s0.27-1.188,0.27-1.836
		c0-1.968-0.678-3.54-2.033-4.716c-1.357-1.176-3.259-1.765-5.707-1.765c-1.896,0-3.455,0.307-4.68,0.918
		c-1.224,0.612-2.195,1.351-2.916,2.215c-0.312,0.359-0.57,0.72-0.773,1.079c-0.205,0.36-0.307,0.745-0.307,1.152
		c0,0.337,0.078,0.637,0.234,0.9s0.354,0.485,0.594,0.666c0.24,0.18,0.504,0.318,0.792,0.414s0.576,0.144,0.864,0.144
		c0.264,0,0.492-0.042,0.684-0.126s0.372-0.203,0.54-0.36c0.168-0.155,0.336-0.342,0.505-0.558c0.167-0.216,0.371-0.456,0.611-0.72
		c0.336-0.408,0.785-0.786,1.35-1.134s1.266-0.522,2.106-0.522c1.2,0,2.046,0.282,2.538,0.846c0.492,0.564,0.738,1.267,0.738,2.106
		c0,0.432-0.072,0.846-0.217,1.242c-0.144,0.396-0.365,0.75-0.666,1.062c-0.3,0.312-0.684,0.564-1.151,0.756
		c-0.468,0.192-1.015,0.288-1.638,0.288h-1.08c-0.648,0-1.104,0.216-1.369,0.648c-0.264,0.432-0.396,0.912-0.396,1.439
		c0,0.528,0.132,1.015,0.396,1.458c0.265,0.444,0.721,0.666,1.369,0.666h1.691c1.225,0,2.16,0.288,2.809,0.864
		c0.647,0.576,0.972,1.381,0.972,2.412c0,0.647-0.103,1.2-0.306,1.656c-0.205,0.456-0.486,0.828-0.847,1.115
		c-0.36,0.288-0.769,0.499-1.224,0.631c-0.457,0.132-0.936,0.197-1.439,0.197c-0.961,0-1.771-0.228-2.431-0.684
		c-0.661-0.456-1.183-0.9-1.565-1.332c-0.504-0.576-0.9-1.026-1.188-1.35c-0.288-0.324-0.708-0.486-1.261-0.486
		c-0.24,0-0.504,0.061-0.791,0.18c-0.289,0.12-0.553,0.288-0.793,0.504s-0.443,0.469-0.611,0.756
		c-0.168,0.288-0.252,0.589-0.252,0.9c0,0.408,0.113,0.822,0.342,1.242s0.474,0.773,0.738,1.062c0.336,0.385,0.726,0.763,1.17,1.135
		c0.443,0.372,0.972,0.708,1.584,1.008c0.611,0.3,1.326,0.546,2.143,0.737c0.814,0.192,1.764,0.288,2.844,0.288
		c1.199,0,2.327-0.156,3.384-0.468c1.056-0.312,1.979-0.773,2.772-1.386c0.791-0.612,1.422-1.38,1.889-2.304
		c0.469-0.924,0.703-2.01,0.703-3.259c0-1.56-0.373-2.808-1.117-3.743C1764.041,945.396,1763.129,944.677,1762.049,944.173z
		 M1785.072,935.551c-0.805-1.116-1.807-1.974-3.007-2.574c-1.2-0.6-2.604-0.9-4.212-0.9c-1.608,0-3.012,0.301-4.212,0.9
		c-1.2,0.601-2.202,1.458-3.006,2.574c-0.805,1.116-1.41,2.46-1.818,4.032c-0.408,1.571-0.612,3.317-0.612,5.237
		c0,1.921,0.204,3.66,0.612,5.221c0.408,1.56,1.014,2.892,1.818,3.995c0.804,1.104,1.806,1.957,3.006,2.557s2.604,0.899,4.212,0.899
		c1.607,0,3.012-0.3,4.212-0.899s2.202-1.452,3.007-2.557c0.803-1.104,1.408-2.436,1.817-3.995c0.407-1.561,0.612-3.3,0.612-5.221
		c0-1.92-0.205-3.666-0.612-5.237C1786.48,938.011,1785.875,936.667,1785.072,935.551z M1782.101,948.673
		c-0.24,1.056-0.564,1.926-0.973,2.609c-0.408,0.685-0.894,1.183-1.457,1.494c-0.564,0.312-1.17,0.468-1.818,0.468
		s-1.248-0.155-1.8-0.468c-0.553-0.312-1.038-0.81-1.458-1.494c-0.42-0.684-0.75-1.554-0.99-2.609s-0.359-2.34-0.359-3.853
		c0-1.487,0.119-2.771,0.359-3.852s0.57-1.962,0.99-2.646c0.42-0.684,0.905-1.188,1.458-1.512c0.552-0.324,1.151-0.486,1.8-0.486
		s1.254,0.162,1.818,0.486c0.563,0.324,1.049,0.828,1.457,1.512c0.408,0.685,0.732,1.566,0.973,2.646s0.359,2.364,0.359,3.852
		C1782.46,946.333,1782.341,947.617,1782.101,948.673z"/>
</g>
</svg>
