<?xml version="1.0" encoding="utf-8"?>
<!-- Generator: Adobe Illustrator 18.1.1, SVG Export Plug-In . SVG Version: 6.00 Build 0)  -->
<svg version="1.1" xmlns="http://www.w3.org/2000/svg" xmlns:xlink="http://www.w3.org/1999/xlink" x="0px" y="0px"
	 width="83.697px" height="83.698px" viewBox="1883.135 1325.033 83.697 83.698"
	 enable-background="new 1883.135 1325.033 83.697 83.698" xml:space="preserve">
<g id="Export_Sheet">
	<path fill="#414C52" d="M1950.065,1362.449c-0.625-2.376-1.482-4.695-2.023-7.087c-0.728-3.217-0.267-6.132,1.438-8.712
		c0.987-1.493,0.922-3.444-0.264-4.784c-1.161-1.312-2.314-2.615-3.46-3.91c-1.15-1.3-3.035-1.678-4.589-0.905
		c-5.686,2.827-9.077,2.769-14.211-0.175c-1.226-0.703-2.719-0.703-3.945,0c-5.134,2.944-8.525,3.001-14.211,0.175
		c-1.554-0.773-3.439-0.394-4.589,0.905c-1.146,1.295-2.299,2.597-3.46,3.91c-1.186,1.34-1.251,3.291-0.264,4.784
		c1.706,2.58,2.166,5.495,1.438,8.712c-0.542,2.392-1.398,4.712-2.023,7.087c-2.252,8.565-0.571,16.215,5.491,22.766
		c5.26,5.685,11.93,9.208,18.974,12.111c0.174,0.072,0.392,0.093,0.616,0.088c0.223,0.005,0.442-0.016,0.616-0.088
		c7.043-2.903,13.714-6.426,18.974-12.111C1950.635,1378.664,1952.318,1371.014,1950.065,1362.449z M1938.476,1364.663
		c-0.675,7.927-12.923,14.781-12.923,14.781c-0.313,0.17-0.825,0.17-1.137,0c0,0-12.25-6.854-12.925-14.781
		c-0.718-8.427,10.534-10.695,13.492-3.919C1927.942,1353.968,1939.194,1356.236,1938.476,1364.663z"/>
</g>
<g id="Source_Artwork">
</g>
</svg>
