<?xml version="1.0" encoding="utf-8"?>
<!-- Generator: Adobe Illustrator 18.1.1, SVG Export Plug-In . SVG Version: 6.00 Build 0)  -->
<svg version="1.1" xmlns="http://www.w3.org/2000/svg" xmlns:xlink="http://www.w3.org/1999/xlink" x="0px" y="0px"
	 width="83.697px" height="83.698px" viewBox="2040.347 1325.033 83.697 83.698"
	 enable-background="new 2040.347 1325.033 83.697 83.698" xml:space="preserve">
<g id="Export_Sheet">
	<path fill="#414C52" d="M2114.233,1373.33c-0.238-3.671-3.45-6.448-7.129-6.448h-4.052c-1.447,0-2.619-1.173-2.619-2.619v-10.38
		c0-2.893-2.345-5.238-5.238-5.238h-10.38c-1.447,0-2.619-1.173-2.619-2.619v-4.052c0-3.679-2.776-6.891-6.448-7.129
		c-4.023-0.26-7.367,2.925-7.367,6.892v4.288c0,1.446-1.173,2.619-2.619,2.619h-10.38c-2.893,0-5.238,2.345-5.238,5.238v10.38
		c0,1.447,1.173,2.619,2.619,2.619h4.052c3.679,0,6.891,2.776,7.129,6.448c0.26,4.023-2.926,7.367-6.893,7.367h-4.288
		c-1.447,0-2.619,1.173-2.619,2.619v10.38c0,2.893,2.345,5.238,5.238,5.238h10.38c1.447,0,2.619-1.173,2.619-2.619v-4.051
		c0-3.679,2.777-6.892,6.448-7.129c4.023-0.26,7.367,2.926,7.367,6.892v4.288c0,1.447,1.173,2.619,2.619,2.619h10.38
		c2.893,0,5.238-2.345,5.238-5.238v-10.38c0-1.447,1.173-2.619,2.619-2.619h4.288
		C2111.308,1380.697,2114.494,1377.353,2114.233,1373.33z"/>
</g>
<g id="Source_Artwork">
</g>
</svg>
