<?xml version="1.0" encoding="utf-8"?>
<!-- Generator: Adobe Illustrator 18.1.1, SVG Export Plug-In . SVG Version: 6.00 Build 0)  -->
<svg version="1.1" xmlns="http://www.w3.org/2000/svg" xmlns:xlink="http://www.w3.org/1999/xlink" x="0px" y="0px"
	 width="83.697px" height="83.698px" viewBox="1725.924 1325.033 83.697 83.698"
	 enable-background="new 1725.924 1325.033 83.697 83.698" xml:space="preserve">
<g id="Export_Sheet">
	<path fill="#414C52" d="M1794.011,1383.257h-33.324c-1.634-4.62-6.034-7.945-11.206-7.945c-6.559,0-11.895,5.336-11.895,11.895
		c0,6.559,5.336,11.894,11.895,11.894c5.173,0,9.574-3.325,11.207-7.946h33.323c2.181,0,3.949-1.768,3.949-3.949
		S1796.192,1383.257,1794.011,1383.257z M1753.477,1387.21c-0.001,2.202-1.793,3.993-3.996,3.993c-2.204,0-3.997-1.792-3.997-3.995
		c0-2.203,1.793-3.997,3.997-3.997c2.203,0,3.994,1.791,3.996,3.993l0,0.003L1753.477,1387.21z M1794.011,1362.934h-4.457
		c-1.634-4.621-6.034-7.946-11.207-7.946s-9.573,3.325-11.207,7.946h-25.605c-2.181,0-3.949,1.768-3.949,3.949
		c0,2.182,1.768,3.949,3.949,3.949h25.605c1.634,4.621,6.034,7.946,11.207,7.946s9.573-3.325,11.207-7.946h4.457
		c2.181,0,3.949-1.768,3.949-3.949C1797.96,1364.701,1796.192,1362.934,1794.011,1362.934z M1782.343,1366.886
		c-0.001,2.202-1.794,3.994-3.996,3.994c-2.204,0-3.997-1.793-3.997-3.997c0-2.203,1.793-3.997,3.997-3.997
		c2.203,0,3.995,1.792,3.996,3.994l0,0.003L1782.343,1366.886z M1741.535,1350.508h4.457c1.634,4.621,6.034,7.946,11.207,7.946
		s9.573-3.325,11.206-7.946h25.605c2.181,0,3.949-1.768,3.949-3.949c0-2.182-1.768-3.949-3.949-3.949h-25.605
		c-1.634-4.621-6.033-7.946-11.206-7.946s-9.573,3.325-11.207,7.946h-4.457c-2.181,0-3.949,1.768-3.949,3.949
		C1737.586,1348.74,1739.354,1350.508,1741.535,1350.508z M1757.199,1342.562c2.202,0,3.994,1.792,3.996,3.994l0,0.003l0,0.003
		c-0.002,2.202-1.794,3.993-3.996,3.993c-2.204,0-3.997-1.793-3.997-3.997C1753.202,1344.355,1754.995,1342.562,1757.199,1342.562z"
		/>
</g>
<g id="Source_Artwork">
</g>
</svg>
