<?xml version="1.0" encoding="utf-8"?>
<!-- Generator: Adobe Illustrator 18.1.1, SVG Export Plug-In . SVG Version: 6.00 Build 0)  -->
<svg version="1.1" xmlns="http://www.w3.org/2000/svg" xmlns:xlink="http://www.w3.org/1999/xlink" x="0px" y="0px"
	 width="83.697px" height="83.698px" viewBox="2197.559 1325.033 83.697 83.698"
	 enable-background="new 2197.559 1325.033 83.697 83.698" xml:space="preserve">
<g id="Export_Sheet">
	<path fill="#414C52" d="M2248.143,1368.299l-6.161-3.022v-9.23c0-1.422-1.153-2.574-2.574-2.574c-1.422,0-2.574,1.152-2.574,2.574
		v10.835c0,0.982,0.559,1.879,1.441,2.311l7.602,3.728c0.365,0.179,0.751,0.264,1.132,0.264c0.951,0,1.866-0.53,2.313-1.441
		C2249.947,1370.468,2249.419,1368.925,2248.143,1368.299z M2254.473,1347.803c-0.82-0.647-1.296-1.634-1.296-2.678v-6.986
		c0-1.896-1.537-3.433-3.433-3.433h-20.675c-1.896,0-3.432,1.537-3.432,3.433v6.986c0,1.044-0.476,2.031-1.296,2.678
		c-5.66,4.466-9.302,11.382-9.302,19.136c0,7.753,3.642,14.669,9.302,19.135c0.82,0.647,1.296,1.634,1.296,2.678v6.875
		c0,1.896,1.537,3.432,3.432,3.432h20.675c1.896,0,3.433-1.537,3.433-3.432v-6.875c0-1.044,0.476-2.031,1.296-2.678
		c5.661-4.466,9.302-11.382,9.302-19.135C2263.776,1359.185,2260.134,1352.268,2254.473,1347.803z M2239.407,1386.157
		c-10.597,0-19.219-8.622-19.219-19.219c0-10.598,8.622-19.219,19.219-19.219c10.598,0,19.219,8.622,19.219,19.219
		C2258.627,1377.535,2250.005,1386.157,2239.407,1386.157z"/>
</g>
<g id="Source_Artwork">
</g>
</svg>
