<?xml version="1.0" encoding="utf-8"?>
<!-- Generator: Adobe Illustrator 18.1.1, SVG Export Plug-In . SVG Version: 6.00 Build 0)  -->
<svg version="1.1" xmlns="http://www.w3.org/2000/svg" xmlns:xlink="http://www.w3.org/1999/xlink" x="0px" y="0px"
	 width="83.697px" height="83.698px" viewBox="2354.771 1324.99 83.697 83.698"
	 enable-background="new 2354.771 1324.99 83.697 83.698" xml:space="preserve">
<g id="Export_Sheet">
	<path fill="#414C52" d="M2389.531,1368.447c2.867-0.089,5.765-0.525,8.634-1.341c2.556-0.726,4.977-1.717,7.234-2.935
		l-6.668-23.461c-0.249-0.876-0.835-1.616-1.631-2.059c-0.795-0.445-1.733-0.55-2.609-0.304l-9.203,2.616
		c-1.823,0.518-2.881,2.416-2.363,4.239L2389.531,1368.447z M2428.429,1354.31c-1.759-6.189-9.147-9.976-19.764-10.131
		c-1.897-0.019-3.453,1.486-3.481,3.381c-0.028,1.896,1.486,3.454,3.381,3.482c7.088,0.103,12.417,2.171,13.262,5.144
		c1.21,4.256-6.692,12.918-22.306,17.356c-7.135,2.03-14.158,2.629-19.777,1.692c-4.59-0.765-7.702-2.531-8.325-4.723
		c-0.825-2.905,2.49-7.382,8.251-11.141c1.587-1.036,2.035-3.163,0.999-4.75c-1.036-1.587-3.161-2.034-4.749-0.999
		c-8.812,5.75-12.858,12.59-11.104,18.766c1.407,4.952,6.308,8.367,13.798,9.616c2.085,0.349,4.318,0.521,6.653,0.52
		c2.59,0,5.307-0.214,8.084-0.632l1.096,3.856c0.196,0.688,0.601,1.297,1.16,1.744l6.535,5.218c0.615,0.492,1.373,0.75,2.141,0.75
		c0.322,0,0.646-0.046,0.963-0.137c1.073-0.314,1.925-1.13,2.286-2.187l2.668-7.833c0.225-0.661,0.243-1.374,0.052-2.045
		l-1.092-3.84C2422.72,1371.659,2430.738,1362.434,2428.429,1354.31z"/>
</g>
<g id="Source_Artwork">
</g>
</svg>
