<?xml version="1.0" encoding="utf-8"?>
<!-- Generator: Adobe Illustrator 18.0.0, SVG Export Plug-In . SVG Version: 6.00 Build 0)  -->
<!DOCTYPE svg PUBLIC "-//W3C//DTD SVG 1.1//EN" "http://www.w3.org/Graphics/SVG/1.1/DTD/svg11.dtd">
<svg version="1.1" xmlns="http://www.w3.org/2000/svg" xmlns:xlink="http://www.w3.org/1999/xlink" x="0px" y="0px"
	 width="83.697px" height="83.698px" viewBox="2197.559 250.505 83.697 83.698"
	 enable-background="new 2197.559 250.505 83.697 83.698" xml:space="preserve">
<g id="Export_Sheet">
	<path fill="#414C52" d="M2274.256,260.68h-6.673c-1.786,0-3.355,1.185-3.847,2.901l-2.027,7.099h-50.598
		c-2.026,0-3.47,1.968-2.862,3.9l6.531,20.761c0.394,1.249,1.552,2.1,2.862,2.1h36.427l-1.519,5.319h-32.738c-2.209,0-4,1.791-4,4
		s1.791,4,4,4h35.756c1.786,0,3.355-1.185,3.847-2.901l11.186-39.179h3.655c2.209,0,4-1.791,4-4S2276.465,260.68,2274.256,260.68z
		 M2223.943,314.259c-2.836,0-5.136,2.3-5.136,5.136c0,2.836,2.3,5.136,5.136,5.136c2.837,0,5.136-2.3,5.136-5.136
		C2229.079,316.559,2226.78,314.259,2223.943,314.259z M2251.755,314.259c-2.836,0-5.136,2.3-5.136,5.136
		c0,2.836,2.3,5.136,5.136,5.136s5.136-2.3,5.136-5.136C2256.891,316.559,2254.591,314.259,2251.755,314.259z"/>
</g>
<g id="Source_Artwork">
</g>
</svg>
