<?xml version="1.0" encoding="utf-8"?>
<!-- Generator: Adobe Illustrator 18.0.0, SVG Export Plug-In . SVG Version: 6.00 Build 0)  -->
<!DOCTYPE svg PUBLIC "-//W3C//DTD SVG 1.1//EN" "http://www.w3.org/Graphics/SVG/1.1/DTD/svg11.dtd">
<svg version="1.1" xmlns="http://www.w3.org/2000/svg" xmlns:xlink="http://www.w3.org/1999/xlink" x="0px" y="0px"
	 width="83.697px" height="83.698px" viewBox="1568.712 895.223 83.697 83.698"
	 enable-background="new 1568.712 895.223 83.697 83.698" xml:space="preserve">
<g id="Layer_1">
	<path d="M1643.116,954.373l-27.487-43.332c-2.356-3.714-7.776-3.714-10.133,0l-27.488,43.332c-1.268,1.997,0.168,4.607,2.533,4.607
		h60.042C1642.948,958.981,1644.382,956.37,1643.116,954.373z M1624.498,935.345l-0.297,0.552
		c-2.173,4.043-7.895,4.249-10.353,0.374l-2.886-4.549c-1.178-1.857-3.889-1.857-5.066,0l-0.436,0.686
		c-1.2,1.893-3.976,1.85-5.116-0.08l-0.81-1.368c-0.573-0.971-0.555-2.182,0.05-3.134l9.288-14.643
		c0.513-0.808,1.279-0.928,1.689-0.928c0.411,0,1.176,0.12,1.688,0.928l12.138,19.134
		C1624.968,933.232,1625.01,934.39,1624.498,935.345z"/>
</g>
<g id="Layer_2">
</g>
<g id="Layer_3">
</g>
<g id="Layer_4">
</g>
<g id="Layer_5">
</g>
<g id="Layer_6">
</g>
<g id="Layer_7">
</g>
<g id="Layer_8">
</g>
</svg>
