<?xml version="1.0" encoding="utf-8"?>
<!-- Generator: Adobe Illustrator 18.0.0, SVG Export Plug-In . SVG Version: 6.00 Build 0)  -->
<!DOCTYPE svg PUBLIC "-//W3C//DTD SVG 1.1//EN" "http://www.w3.org/Graphics/SVG/1.1/DTD/svg11.dtd">
<svg version="1.1" xmlns="http://www.w3.org/2000/svg" xmlns:xlink="http://www.w3.org/1999/xlink" x="0px" y="0px"
	 width="83.697px" height="83.698px" viewBox="1883.135 895.223 83.697 83.698"
	 enable-background="new 1883.135 895.223 83.697 83.698" xml:space="preserve">
<g id="Export_Sheet">
	<path fill="#414C52" d="M1924.988,904.895c-17.771,0-32.177,14.406-32.177,32.176c0,17.771,14.406,32.177,32.177,32.177
		s32.177-14.406,32.177-32.177C1957.164,919.301,1942.758,904.895,1924.988,904.895z M1939.738,944.755
		c1.953,1.952,1.953,5.118,0,7.07c-0.976,0.977-2.256,1.465-3.535,1.465s-2.56-0.488-3.535-1.465l-7.684-7.684l-7.684,7.684
		c-0.976,0.977-2.256,1.465-3.535,1.465s-2.56-0.488-3.535-1.465c-1.953-1.952-1.953-5.118,0-7.07l7.684-7.684l-7.684-7.684
		c-1.953-1.952-1.953-5.118,0-7.07c1.951-1.953,5.119-1.953,7.07,0l7.684,7.684l7.684-7.684c1.951-1.953,5.119-1.953,7.07,0
		c1.953,1.952,1.953,5.118,0,7.07l-7.684,7.684L1939.738,944.755z"/>
</g>
<g id="Source_Artwork">
</g>
</svg>
