<?xml version="1.0" encoding="utf-8"?>
<!-- Generator: Adobe Illustrator 18.0.0, SVG Export Plug-In . SVG Version: 6.00 Build 0)  -->
<!DOCTYPE svg PUBLIC "-//W3C//DTD SVG 1.1//EN" "http://www.w3.org/Graphics/SVG/1.1/DTD/svg11.dtd">
<svg version="1.1" id="Layer_1" xmlns="http://www.w3.org/2000/svg" xmlns:xlink="http://www.w3.org/1999/xlink" x="0px" y="0px"
	 width="83.697px" height="83.698px" viewBox="2197.559 -179.296 83.697 83.698"
	 enable-background="new 2197.559 -179.296 83.697 83.698" xml:space="preserve">
<g>
	<g>
		<path fill="#414C52" d="M2271.52-139.752c0,26.793-26.388,13.922-32.297,19.832c-4.854,4.857,3.481,6.555,3.481,10.361
			c0,2.429-1.7,4.289-5.828,4.289c-16.593,0-29.545-14.649-29.545-32.295c0-17.725,14.329-32.134,32.136-32.134
			C2257.193-169.7,2271.52-157.476,2271.52-139.752z M2223.178-151.879c-2.398-1.308-5.452-0.363-6.76,2.109
			c-1.236,2.4-0.292,5.454,2.18,6.762c2.4,1.236,5.454,0.29,6.688-2.107C2226.597-147.588,2225.652-150.642,2223.178-151.879z
			 M2239.484-159.621c-0.729-2.681-3.421-4.273-6.113-3.623c-2.691,0.725-4.293,3.406-3.565,6.085
			c0.655,2.681,3.421,4.275,6.04,3.624C2238.537-154.259,2240.137-156.94,2239.484-159.621z M2256.073-152.709
			c1.53-2.25,0.947-5.372-1.383-6.896c-2.331-1.526-5.39-0.943-6.919,1.379c-1.529,2.322-0.946,5.371,1.383,6.897
			C2251.412-149.734,2254.544-150.386,2256.073-152.709z M2266.265-141.357c-0.436-2.693-2.903-4.584-5.663-4.22
			c-2.76,0.435-4.647,2.982-4.212,5.673c0.436,2.766,2.905,4.657,5.664,4.219C2264.813-136.048,2266.701-138.594,2266.265-141.357z"
			/>
	</g>
</g>
</svg>
