<?xml version="1.0" encoding="utf-8"?>
<!-- Generator: Adobe Illustrator 18.0.0, SVG Export Plug-In . SVG Version: 6.00 Build 0)  -->
<!DOCTYPE svg PUBLIC "-//W3C//DTD SVG 1.1//EN" "http://www.w3.org/Graphics/SVG/1.1/DTD/svg11.dtd">
<svg version="1.1" xmlns="http://www.w3.org/2000/svg" xmlns:xlink="http://www.w3.org/1999/xlink" x="0px" y="0px"
	 width="83.698px" height="83.697px" viewBox="2654.507 465.411 83.698 83.697"
	 enable-background="new 2654.507 465.411 83.698 83.697" xml:space="preserve">
<g id="Export_Sheet">
	<path fill="#414C52" d="M2701.338,529.736v6.244c0,2.339-1.117,3.457-3.506,3.457h-2.948c-2.393,0-3.51-1.118-3.51-3.457v-5.859
		c-4.085-0.286-8.166-1.026-10.271-1.772c-2.678-0.865-3.283-2.852-3.283-4.753v-3.544c0-2.765,1.987-4.84,5.444-3.978
		c2.331,0.695,6.049,1.817,11.236,1.817c3.109,0,4.922-0.691,4.922-2.592c0-1.991-1.383-2.509-3.457-2.679
		c-13.827-1.213-17.802-3.805-17.802-13.14c0-7.515,3.875-13.006,13.211-14.672v-6.268c0-2.339,1.117-3.457,3.51-3.457h2.948
		c2.389,0,3.506,1.118,3.506,3.457v5.833c3.435,0.194,6.941,0.662,9.059,1.367c2.596,0.778,3.461,2.852,3.461,4.757v3.54
		c0,2.765-2.248,4.839-5.705,3.978c-1.987-0.522-4.148-1.3-9.592-1.3c-3.026,0-4.839,0.696-4.839,2.596
		c0,1.987,1.382,2.505,3.37,2.679c14.171,1.122,17.802,3.631,17.802,13.136C2714.893,522.298,2711.527,528.054,2701.338,529.736z"/>
</g>
<g id="Source_Artwork">
</g>
</svg>
