<?xml version="1.0" encoding="utf-8"?>
<!-- Generator: Adobe Illustrator 18.0.0, SVG Export Plug-In . SVG Version: 6.00 Build 0)  -->
<!DOCTYPE svg PUBLIC "-//W3C//DTD SVG 1.1//EN" "http://www.w3.org/Graphics/SVG/1.1/DTD/svg11.dtd">
<svg version="1.1" id="Layer_1" xmlns="http://www.w3.org/2000/svg" xmlns:xlink="http://www.w3.org/1999/xlink" x="0px" y="0px"
	 width="83.697px" height="83.698px" viewBox="2804.246 -179.296 83.697 83.698"
	 enable-background="new 2804.246 -179.296 83.697 83.698" xml:space="preserve">
<g>
	<path fill="#414C52" d="M2844.7-148.612l-8.001,20.139c-0.515,1.296,0.862,2.531,2.095,1.88l6.366-3.366
		c0.584-0.309,1.284-0.309,1.869,0l6.365,3.366c1.232,0.651,2.609-0.584,2.096-1.88l-8.002-20.139
		C2846.987-149.873,2845.201-149.873,2844.7-148.612z"/>
	<path fill="#414C52" d="M2876.304-143.358c-2.424-12.16-12.021-21.757-24.182-24.18l-4.912-5.48c-0.596-0.665-1.638-0.665-2.233,0
		l-4.912,5.48c-12.16,2.423-21.759,12.02-24.181,24.18l-5.479,4.912c-0.665,0.596-0.665,1.637,0,2.233l5.479,4.912
		c2.422,12.16,12.02,21.757,24.181,24.181l4.912,5.48c0.596,0.664,1.638,0.664,2.233,0l4.912-5.48
		c12.161-2.423,21.758-12.021,24.182-24.181l5.479-4.912c0.664-0.596,0.664-1.637,0-2.233L2876.304-143.358z M2846.094-115.546
		c-12.012,0-21.784-9.771-21.784-21.783c0-12.012,9.772-21.784,21.784-21.784c12.011,0,21.784,9.772,21.784,21.784
		C2867.878-125.317,2858.105-115.546,2846.094-115.546z"/>
</g>
</svg>
