<?xml version="1.0" encoding="utf-8"?>
<!-- Generator: Adobe Illustrator 18.1.0, SVG Export Plug-In . SVG Version: 6.00 Build 0)  -->
<svg version="1.1" xmlns="http://www.w3.org/2000/svg" xmlns:xlink="http://www.w3.org/1999/xlink" x="0px" y="0px"
	 viewBox="2804.246 895.223 83.697 83.698" enable-background="new 2804.246 895.223 83.697 83.698" xml:space="preserve">
<g id="Export_Sheet">
	<rect x="1399.306" y="-690.313" fill="#FFFFFF" width="1675.998" height="2973.516"/>
</g>
<g id="Source_Artwork">
	<path fill="#414C52" d="M2878.169,929.824c-0.307-0.921-1.151-1.995-7.596-3.53c-3.682-0.842-8.285-1.61-12.811-2.07
		c-1.612-3.528-8.21-17.721-11.662-17.721s-10.05,14.192-11.66,17.721c-4.528,0.461-9.131,1.228-12.813,2.07
		c-6.445,1.535-7.287,2.609-7.594,3.53c-0.307,0.921-0.23,2.3,4.066,7.287c2.454,2.84,5.831,6.215,9.129,9.206
		c-0.767,3.837-3.682,19.179-0.921,21.175c0.307,0.307,0.767,0.384,1.381,0.384c4.296,0,16.418-6.675,18.412-7.824
		c1.995,1.073,14.116,7.824,18.412,7.824c0.537,0,0.998-0.077,1.305-0.307l0.077-0.077c0.844-0.537,1.612-1.688,0.998-8.285
		c-0.307-3.759-0.998-8.364-1.919-12.89c3.607-3.298,6.906-6.673,9.436-9.589C2878.399,931.971,2878.476,930.668,2878.169,929.824z
		 M2836.794,932.025c1.273,0,2.32,1.572,2.32,3.519c0,1.945-1.047,3.517-2.32,3.517c-1.272,0-2.32-1.572-2.32-3.517
		C2834.474,933.598,2835.522,932.025,2836.794,932.025z M2857.209,944.786c-0.06,0.299-2.036,6.945-11.076,6.945
		c-9.101,0-11.076-6.645-11.136-6.945c-0.18-0.539-0.06-1.138,0.3-1.617c0.359-0.479,0.898-0.719,1.497-0.719h18.62
		c0.598,0,1.137,0.24,1.497,0.719C2857.27,943.648,2857.389,944.247,2857.209,944.786z M2855.414,939.061
		c-1.273,0-2.32-1.572-2.32-3.517c0-1.947,1.047-3.519,2.32-3.519c1.272,0,2.32,1.572,2.32,3.519
		C2857.733,937.489,2856.685,939.061,2855.414,939.061z"/>
</g>
</svg>
