<?xml version="1.0" encoding="utf-8"?>
<!-- Generator: Adobe Illustrator 18.0.0, SVG Export Plug-In . SVG Version: 6.00 Build 0)  -->
<!DOCTYPE svg PUBLIC "-//W3C//DTD SVG 1.1//EN" "http://www.w3.org/Graphics/SVG/1.1/DTD/svg11.dtd">
<svg version="1.1" id="Layer_1" xmlns="http://www.w3.org/2000/svg" xmlns:xlink="http://www.w3.org/1999/xlink" x="0px" y="0px"
	 viewBox="0 0 83.7 83.7" enable-background="new 0 0 83.7 83.7" xml:space="preserve">
<g id="Layer_2">
</g>
<g id="Layer_3">
</g>
<g id="Layer_4">
</g>
<g id="Layer_5">
</g>
<g id="Layer_6">
</g>
<g id="Layer_7">
</g>
<g id="Layer_8">
</g>
<path d="M73.7,34.7c-0.5-1.6-10.9-3.8-20.2-4.9c-0.3,0-0.6-0.2-0.7-0.5c-3.8-8.6-9.1-17.7-10.9-17.7c-1.7,0-7,9.2-10.9,17.7
	c-0.1,0.3-0.4,0.5-0.7,0.5c-9.3,1-19.7,3.2-20.2,4.9c-0.5,1.6,6.6,9.5,13.5,15.8c0.2,0.2,0.3,0.5,0.3,0.9
	c-2.1,10.3-2.9,19.8-1.6,20.7c0,0,0.2,0.1,0.6,0.1c3.7,0,14.7-5.8,18.6-8.1c0.1-0.1,0.3-0.1,0.4-0.1c0.2,0,0.3,0,0.4,0.1
	c3.9,2.2,14.9,8.1,18.6,8.1c0.4,0,0.6-0.1,0.6-0.1c1.4-1,0.3-11.5-1.6-20.7c-0.1-0.3,0-0.6,0.3-0.9C68,43.4,74.1,36.1,73.7,34.7z
	 M31.1,37.3c1.2,0,2.2,1.4,2.2,3.2c0,1.8-1,3.2-2.2,3.2c-1.2,0-2.2-1.4-2.2-3.2C28.9,38.7,29.9,37.3,31.1,37.3z M54.7,48.7
	c-0.1,0.3-2.4,8.1-12.9,8.1c-10.5,0-12.8-7.7-12.9-8.1c-0.2-0.6,0-1.3,0.4-1.9c0.4-0.5,1-0.9,1.7-0.9h21.6c0.7,0,1.3,0.3,1.7,0.9
	C54.8,47.3,54.9,48,54.7,48.7z M52.6,43.8c-1.2,0-2.2-1.4-2.2-3.2c0-1.8,1-3.2,2.2-3.2c1.2,0,2.2,1.4,2.2,3.2
	C54.8,42.3,53.8,43.8,52.6,43.8z"/>
</svg>
