<?xml version="1.0" encoding="utf-8"?>
<!-- Generator: Adobe Illustrator 18.0.0, SVG Export Plug-In . SVG Version: 6.00 Build 0)  -->
<!DOCTYPE svg PUBLIC "-//W3C//DTD SVG 1.1//EN" "http://www.w3.org/Graphics/SVG/1.1/DTD/svg11.dtd">
<svg version="1.1" xmlns="http://www.w3.org/2000/svg" xmlns:xlink="http://www.w3.org/1999/xlink" x="0px" y="0px"
	 width="83.697px" height="83.698px" viewBox="2040.347 465.411 83.697 83.698"
	 enable-background="new 2040.347 465.411 83.697 83.698" xml:space="preserve">
<g id="Layer_1">
	<path fill="none" stroke="#FFFFFF" stroke-width="6" stroke-miterlimit="10" d="M2116.035,481.181"/>
	<path fill="none" stroke="#FFFFFF" stroke-width="6" stroke-miterlimit="10" d="M2048.357,481.181"/>
	<path d="M2108.373,485.586h-52.353c-3.314,0-6,2.687-6,6v1.198l27.361,17.328c2.924,1.852,6.705,1.852,9.631-0.001l27.36-17.327
		v-1.197C2114.373,488.272,2111.686,485.586,2108.373,485.586z M2082.196,517.495c-2.794,0-5.587-0.771-8.025-2.315l-24.15-15.294
		v23.283c0,3.313,2.686,6,6,6h52.353c3.313,0,6-2.687,6-6v-23.284l-24.15,15.295C2087.784,516.724,2084.99,517.495,2082.196,517.495
		z"/>
</g>
<g id="Layer_2">
</g>
<g id="Layer_3">
</g>
<g id="Layer_4">
</g>
<g id="Layer_5">
</g>
<g id="Layer_6">
</g>
<g id="Layer_7">
</g>
<g id="Layer_8">
</g>
</svg>
