<?xml version="1.0" encoding="utf-8"?>
<!-- Generator: Adobe Illustrator 18.0.0, SVG Export Plug-In . SVG Version: 6.00 Build 0)  -->
<!DOCTYPE svg PUBLIC "-//W3C//DTD SVG 1.1//EN" "http://www.w3.org/Graphics/SVG/1.1/DTD/svg11.dtd">
<svg version="1.1" xmlns="http://www.w3.org/2000/svg" xmlns:xlink="http://www.w3.org/1999/xlink" x="0px" y="0px"
	 width="83.697px" height="83.698px" viewBox="2354.771 250.505 83.697 83.698"
	 enable-background="new 2354.771 250.505 83.697 83.698" xml:space="preserve">
<g id="Export_Sheet">
	<path fill="#414C52" d="M2396.62,260.178c-17.771,0-32.177,14.405-32.177,32.177c0,17.77,14.406,32.176,32.177,32.176
		s32.176-14.406,32.176-32.176C2428.795,274.583,2414.39,260.178,2396.62,260.178z M2406.796,280.845c2.761,0,5,2.238,5,5
		c0,2.762-2.239,5-5,5c-2.762,0-5-2.238-5-5C2401.796,283.083,2404.035,280.845,2406.796,280.845z M2386.443,280.845
		c2.762,0,5,2.238,5,5c0,2.762-2.238,5-5,5s-5-2.238-5-5C2381.443,283.083,2383.681,280.845,2386.443,280.845z M2417.056,300.977
		c-3.363,7.965-11.247,13.554-20.437,13.554c-9.19,0-17.075-5.591-20.438-13.556c-0.66-1.564,0.873-3.154,2.489-2.635
		c3.533,1.137,9.538,2.505,17.957,2.505c8.413,0,14.408-1.366,17.938-2.502C2416.183,297.823,2417.717,299.412,2417.056,300.977z"/>
</g>
<g id="Source_Artwork">
</g>
</svg>
