<?xml version="1.0" encoding="utf-8"?>
<!-- Generator: Adobe Illustrator 18.0.0, SVG Export Plug-In . SVG Version: 6.00 Build 0)  -->
<!DOCTYPE svg PUBLIC "-//W3C//DTD SVG 1.1//EN" "http://www.w3.org/Graphics/SVG/1.1/DTD/svg11.dtd">
<svg version="1.1" xmlns="http://www.w3.org/2000/svg" xmlns:xlink="http://www.w3.org/1999/xlink" x="0px" y="0px"
	 width="83.697px" height="83.698px" viewBox="2354.771 -394.202 83.697 83.698"
	 enable-background="new 2354.771 -394.202 83.697 83.698" xml:space="preserve">
<g id="Export_Sheet">
	<path fill="#414C52" d="M2437.612-372.482c-1.255-2.771-4.428-4.177-9.431-4.177c-5.019,0-12.039,1.42-19.903,3.916
		c-3.437-1.969-7.414-3.101-11.659-3.101c-11.436,0-20.958,8.174-23.056,18.997c-11.218,6.895-20.784,15.166-17.936,21.462
		c1.255,2.771,4.428,4.177,9.431,4.177h0.001c4.329,0,10.147-1.055,16.711-2.946c4.047,3.306,9.216,5.291,14.849,5.291
		c12.605,0,22.889-9.93,23.462-22.393c3.15-1.962,6.004-3.94,8.469-5.882C2436.492-363.389,2439.455-368.409,2437.612-372.482z
		 M2419.429-357.968c-0.001-0.005-0.003-0.011-0.004-0.016c-5.001,3.343-11.469,7.008-19.45,10.599
		c-10.555,4.75-19.083,7.547-25.395,8.907c-3.673,0.821-6.922,1.271-9.522,1.271c-2.729,0-3.7-0.509-3.943-0.674
		c0.008-1.764,4.095-6.237,12.186-11.673c0.271,2.281,0.874,4.458,1.75,6.491c5.729-1.274,13.685-3.625,23.276-7.965
		c8.526-3.858,15.03-7.643,19.757-10.854c-1.035-2.33-2.43-4.463-4.128-6.319c5.628-1.578,10.562-2.457,14.226-2.457
		c2.73,0,3.701,0.509,3.943,0.674C2432.118-368.184,2427.865-363.56,2419.429-357.968z"/>
</g>
<g id="Source_Artwork">
</g>
</svg>
