<?xml version="1.0" encoding="utf-8"?>
<!-- Generator: Adobe Illustrator 18.0.0, SVG Export Plug-In . SVG Version: 6.00 Build 0)  -->
<!DOCTYPE svg PUBLIC "-//W3C//DTD SVG 1.1//EN" "http://www.w3.org/Graphics/SVG/1.1/DTD/svg11.dtd">
<svg version="1.1" xmlns="http://www.w3.org/2000/svg" xmlns:xlink="http://www.w3.org/1999/xlink" x="0px" y="0px"
	 width="83.697px" height="83.698px" viewBox="1883.135 -179.296 83.697 83.698"
	 enable-background="new 1883.135 -179.296 83.697 83.698" xml:space="preserve">
<g id="Export_Sheet">
	<g>
		<path fill="#414C52" d="M1953.085-144.663l-2.818-3.703c-0.72-0.945-0.889-2.2-0.444-3.302l1.641-4.067
			c0.71-1.761-0.174-3.761-1.954-4.421l-4.367-1.62c-1.096-0.406-1.902-1.35-2.133-2.495l-0.878-4.365
			c-0.371-1.846-2.184-3.03-4.024-2.628l-4.509,0.986c-1.129,0.247-2.306-0.102-3.118-0.924l-3.19-3.229
			c-1.319-1.336-3.476-1.336-4.796,0l-3.189,3.229c-0.812,0.823-1.989,1.171-3.118,0.924l-4.509-0.986
			c-1.84-0.402-3.653,0.782-4.024,2.628l-0.878,4.365c-0.231,1.145-1.037,2.089-2.133,2.495l-4.367,1.62
			c-1.78,0.66-2.664,2.66-1.954,4.421l1.641,4.067c0.444,1.102,0.275,2.357-0.444,3.302l-2.818,3.703
			c-1.162,1.526-0.817,3.712,0.757,4.808l3.578,2.49c0.993,0.691,1.54,1.862,1.432,3.066l-0.409,4.587
			c-0.173,1.928,1.311,3.604,3.244,3.669l4.38,0.146c0.984,0.033,1.888,0.499,2.496,1.245l-3.6,22.322
			c-0.321,1.989,1.935,3.365,3.557,2.169l11.409-8.412c0.794-0.585,1.877-0.585,2.671,0l11.412,8.413
			c1.622,1.195,3.877-0.18,3.557-2.169l-3.595-22.296c0.607-0.762,1.519-1.237,2.516-1.271l4.38-0.146
			c1.934-0.065,3.417-1.741,3.244-3.669l-0.409-4.586c-0.108-1.205,0.438-2.376,1.432-3.066l3.578-2.49
			C1953.903-140.951,1954.248-143.137,1953.085-144.663z"/>
	</g>
</g>
<g id="Source_Artwork">
</g>
</svg>
