<?xml version="1.0" encoding="utf-8"?>
<!-- Generator: Adobe Illustrator 18.0.0, SVG Export Plug-In . SVG Version: 6.00 Build 0)  -->
<!DOCTYPE svg PUBLIC "-//W3C//DTD SVG 1.1//EN" "http://www.w3.org/Graphics/SVG/1.1/DTD/svg11.dtd">
<svg version="1.1" xmlns="http://www.w3.org/2000/svg" xmlns:xlink="http://www.w3.org/1999/xlink" x="0px" y="0px"
	 width="83.697px" height="83.698px" viewBox="2654.507 680.316 83.697 83.698"
	 enable-background="new 2654.507 680.316 83.697 83.698" xml:space="preserve">
<g id="Layer_1">
	<path d="M2696.613,693.999c-15.555,0-28.166,12.61-28.166,28.166c0,15.557,12.611,28.166,28.166,28.166
		c15.556,0,28.166-12.609,28.166-28.166C2724.779,706.609,2712.168,693.999,2696.613,693.999z M2699.613,744.122v-8.179
		c0-1.657-1.343-3-3-3s-3,1.343-3,3v8.179c-9.826-1.336-17.621-9.132-18.958-18.957h8.18c1.657,0,3-1.343,3-3s-1.343-3-3-3h-8.18
		c1.336-9.826,9.132-17.621,18.958-18.958v8.18c0,1.657,1.343,3,3,3s3-1.343,3-3v-8.18c9.826,1.336,17.621,9.132,18.958,18.958
		h-8.18c-1.657,0-3,1.343-3,3s1.343,3,3,3h8.18C2717.234,734.991,2709.439,742.786,2699.613,744.122z"/>
</g>
<g id="Layer_2">
</g>
<g id="Layer_3">
</g>
<g id="Layer_4">
</g>
<g id="Layer_5">
</g>
<g id="Layer_6">
</g>
<g id="Layer_7">
</g>
<g id="Layer_8">
</g>
</svg>
