<?xml version="1.0" encoding="utf-8"?>
<!-- Generator: Adobe Illustrator 18.0.0, SVG Export Plug-In . SVG Version: 6.00 Build 0)  -->
<!DOCTYPE svg PUBLIC "-//W3C//DTD SVG 1.1//EN" "http://www.w3.org/Graphics/SVG/1.1/DTD/svg11.dtd">
<svg version="1.1" xmlns="http://www.w3.org/2000/svg" xmlns:xlink="http://www.w3.org/1999/xlink" x="0px" y="0px"
	 width="83.697px" height="83.698px" viewBox="2654.507 680.316 83.697 83.698"
	 enable-background="new 2654.507 680.316 83.697 83.698" xml:space="preserve">
<g id="Export_Sheet">
	<path fill="#414C52" d="M2696.613,694c-15.555,0-28.166,12.61-28.166,28.166c0,15.557,12.611,28.166,28.166,28.166
		c15.556,0,28.166-12.609,28.166-28.166C2724.779,706.61,2712.168,694,2696.613,694z M2699.613,742.083v-6.139c0-1.657-1.343-3-3-3
		s-3,1.343-3,3v6.139c-8.716-1.309-15.608-8.201-16.917-16.917h6.14c1.657,0,3-1.343,3-3s-1.343-3-3-3h-6.14
		c1.309-8.717,8.201-15.609,16.918-16.918v6.141c0,1.657,1.343,3,3,3s3-1.343,3-3v-6.141c8.717,1.309,15.609,8.201,16.918,16.918
		h-6.14c-1.657,0-3,1.343-3,3s1.343,3,3,3h6.14C2715.221,733.882,2708.329,740.774,2699.613,742.083z"/>
</g>
<g id="Source_Artwork">
</g>
</svg>
