<?xml version="1.0" encoding="utf-8"?>
<!-- Generator: Adobe Illustrator 18.0.0, SVG Export Plug-In . SVG Version: 6.00 Build 0)  -->
<!DOCTYPE svg PUBLIC "-//W3C//DTD SVG 1.1//EN" "http://www.w3.org/Graphics/SVG/1.1/DTD/svg11.dtd">
<svg version="1.1" xmlns="http://www.w3.org/2000/svg" xmlns:xlink="http://www.w3.org/1999/xlink" x="0px" y="0px"
	 width="83.697px" height="83.698px" viewBox="2354.771 680.316 83.697 83.698"
	 enable-background="new 2354.771 680.316 83.697 83.698" xml:space="preserve">
<g id="Export_Sheet">
	<path fill="#414C52" d="M2424.127,725.639c-2.04-2.039-4.751-3.162-7.637-3.162h-0.002l-2.585,0.002v-21.987c0-3.314-2.686-6-6-6
		h-23.583c-3.313,0-6,2.686-6,6v21.987l-2.58-0.002h-0.003c-2.884,0-5.596,1.123-7.636,3.162c-2.04,2.04-3.163,4.752-3.163,7.638
		c0,5.955,4.845,10.8,10.802,10.8l5.99-0.002c1.657-0.001,3-1.344,2.999-3.001c-0.001-1.656-1.344-2.999-3-2.999h-0.001
		l-5.989,0.002c-2.647,0-4.801-2.153-4.801-4.8c0-1.282,0.499-2.488,1.406-3.395c0.906-0.906,2.111-1.405,3.392-1.405h0.001
		l2.581,0.002c0,0,0.001,0,0.002,0v5.597l10.569-0.001l4.476-5.177c1.143-1.322,2.791-2.08,4.521-2.08
		c3.318,0,6.017,2.693,6.017,6.004v1.253l10,0.001v-5.597h0.002l2.586-0.002h0.001c1.281,0,2.486,0.499,3.393,1.405
		c0.907,0.906,1.406,2.112,1.406,3.395c0,2.646-2.153,4.8-4.801,4.8l-16.587-0.002v-5.253c0-1.853-2.301-2.709-3.513-1.308
		l-7.136,8.254c-0.65,0.751-0.65,1.865,0,2.616l7.136,8.254c1.212,1.401,3.513,0.545,3.513-1.308v-5.256l16.587,0.002
		c5.956,0,10.801-4.845,10.801-10.8C2427.292,730.392,2426.167,727.679,2424.127,725.639z M2389.326,710.491c-2.762,0-5-2.238-5-5
		c0-2.761,2.238-5,5-5c2.761,0,5,2.239,5,5C2394.326,708.253,2392.086,710.491,2389.326,710.491z"/>
</g>
<g id="Source_Artwork">
</g>
</svg>
