<?xml version="1.0" encoding="utf-8"?>
<!-- Generator: Adobe Illustrator 18.0.0, SVG Export Plug-In . SVG Version: 6.00 Build 0)  -->
<!DOCTYPE svg PUBLIC "-//W3C//DTD SVG 1.1//EN" "http://www.w3.org/Graphics/SVG/1.1/DTD/svg11.dtd">
<svg version="1.1" xmlns="http://www.w3.org/2000/svg" xmlns:xlink="http://www.w3.org/1999/xlink" x="0px" y="0px"
	 width="1676.619px" height="2976px" viewBox="1397.996 -691.121 1676.619 2976"
	 enable-background="new 1397.996 -691.121 1676.619 2976" xml:space="preserve">
<g id="Export_Sheet">
	<path fill="#414C52" d="M2083.235-367.278c-6.396-14.653-30.729-9.748-29.177,8.475c1.459,17.141,27.949,31.964,27.949,31.964
		c0.677,0.368,1.783,0.368,2.46,0c0,0,26.485-14.823,27.945-31.964C2113.964-377.026,2089.632-381.932,2083.235-367.278z"/>
	<path fill="#414C52" d="M1636.738-374.027h-52.353c-3.313,0-6,2.686-6,6v31.583c0,3.314,2.687,6,6,6h52.353c3.313,0,6-2.686,6-6
		v-31.583C1642.738-371.341,1640.051-374.027,1636.738-374.027z M1632.244-338.403h-43.305c-2.416,0-3.841-2.711-2.471-4.701
		l8.184-11.886c1.088-1.581,3.36-1.747,4.667-0.342l3.473,3.732c1.287,1.383,3.518,1.247,4.626-0.284l8.82-12.177
		c1.235-1.706,3.798-1.641,4.945,0.125l13.576,20.898C1636.056-341.041,1634.624-338.403,1632.244-338.403z"/>
	<circle fill="#FFFFFF" cx="2551.178" cy="-356.536" r="23.49"/>
	<path fill="#414C52" d="M2551.178-380.027c-12.974,0-23.49,10.517-23.49,23.491c0,4.209,1.112,8.156,3.051,11.572l-10.279,10.279
		c-2.344,2.343-2.344,6.142-0.001,8.485c2.589,2.589,6.637,1.802,8.485,0l10.177-10.176c3.525,2.113,7.649,3.33,12.058,3.33
		c12.974,0,23.49-10.517,23.49-23.49C2574.668-369.51,2564.152-380.027,2551.178-380.027z M2551.178-339.046
		c-9.644,0-17.49-7.846-17.49-17.49c0-9.644,7.846-17.491,17.49-17.491s17.49,7.846,17.49,17.491
		C2568.668-346.892,2560.822-339.046,2551.178-339.046z"/>
	<path fill="#414C52" d="M2437.612-372.482c-1.255-2.771-4.428-4.177-9.431-4.177c-5.019,0-12.039,1.42-19.903,3.916
		c-3.437-1.969-7.414-3.101-11.659-3.101c-11.436,0-20.958,8.174-23.056,18.997c-11.218,6.895-20.784,15.166-17.936,21.462
		c1.255,2.771,4.428,4.177,9.431,4.177h0.001c4.329,0,10.147-1.055,16.711-2.946c4.047,3.306,9.216,5.291,14.849,5.291
		c12.605,0,22.889-9.93,23.462-22.393c3.15-1.962,6.004-3.94,8.469-5.882C2436.492-363.389,2439.455-368.409,2437.612-372.482z
		 M2419.429-357.968c-0.001-0.005-0.003-0.011-0.004-0.016c-5.001,3.343-11.469,7.008-19.45,10.599
		c-10.555,4.75-19.083,7.547-25.395,8.907c-3.673,0.821-6.922,1.271-9.522,1.271c-2.729,0-3.7-0.509-3.943-0.674
		c0.008-1.764,4.095-6.237,12.186-11.673c0.271,2.281,0.874,4.458,1.75,6.491c5.729-1.274,13.685-3.625,23.276-7.965
		c8.526-3.858,15.03-7.643,19.757-10.854c-1.035-2.33-2.43-4.463-4.128-6.319c5.628-1.578,10.562-2.457,14.226-2.457
		c2.73,0,3.701,0.509,3.943,0.674C2432.118-368.184,2427.865-363.56,2419.429-357.968z"/>
	<g>
		<path fill="#414C52" d="M2270.448-372.972l-8.037-4.681c-0.931-0.542-2.081-0.543-3.014-0.003l-8.088,4.685
			c-0.927,0.537-1.497,1.526-1.497,2.596v9.337c0,1.068,0.568,2.055,1.49,2.592l8.037,4.681c0.932,0.542,2.081,0.544,3.014,0.004
			l8.089-4.685c0.926-0.537,1.496-1.526,1.496-2.596v-9.336C2271.938-371.447,2271.371-372.434,2270.448-372.972z M2243.8-361.042
			v-9.336c0-1.068-0.567-2.055-1.489-2.593l-8.038-4.681c-0.931-0.542-2.081-0.543-3.013-0.003l-8.089,4.685
			c-0.926,0.537-1.496,1.526-1.496,2.596v9.337c0,1.068,0.567,2.055,1.49,2.592l8.037,4.681c0.931,0.542,2.081,0.544,3.014,0.004
			l8.088-4.685C2243.231-358.983,2243.8-359.972,2243.8-361.042z M2256.379-349.475l-8.037-4.681
			c-0.932-0.542-2.081-0.543-3.014-0.004l-8.089,4.686c-0.926,0.537-1.496,1.525-1.496,2.596v9.337c0,1.068,0.567,2.055,1.49,2.592
			l8.037,4.681c0.931,0.542,2.081,0.544,3.014,0.004l8.089-4.685c0.926-0.536,1.496-1.525,1.496-2.596v-9.337
			C2257.87-347.951,2257.302-348.938,2256.379-349.475z M2228.242-349.475l-8.037-4.681c-0.931-0.542-2.081-0.543-3.014-0.004
			l-8.088,4.686c-0.927,0.537-1.497,1.525-1.497,2.596v9.337c0,1.068,0.568,2.055,1.491,2.592l8.037,4.681
			c0.931,0.542,2.08,0.544,3.013,0.004l8.089-4.685c0.926-0.536,1.496-1.525,1.496-2.596v-9.337
			C2229.732-347.951,2229.165-348.938,2228.242-349.475z"/>
	</g>
	<g>
		<text transform="matrix(1 0 0 1 1578.0469 -271.1211)" fill="#414C52" font-family="'ApexRounded-Medium'" font-size="22">Library</text>
	</g>
	<g>
		<text transform="matrix(1 0 0 1 1740.9233 -271.1211)" fill="#414C52" font-family="'ApexRounded-Medium'" font-size="22">Photo</text>
	</g>
	<g>
		<text transform="matrix(1 0 0 1 2214.9468 -271.1211)" fill="#414C52" font-family="'ApexRounded-Medium'" font-size="22">Skills</text>
	</g>
	<g>
		<text transform="matrix(1 0 0 1 2043.8667 -271.1211)" fill="#414C52" font-family="'ApexRounded-Medium'" font-size="22">Favorite</text>
	</g>
	<g>
		<text transform="matrix(1 0 0 1 2360.0796 -271.1211)" fill="#414C52" font-family="'ApexRounded-Medium'" font-size="22">Explore</text>
	</g>
	<g>
		<text transform="matrix(1 0 0 1 2811.5425 -271.1211)" fill="#414C52" font-family="'ApexRounded-Medium'" font-size="22">Stream</text>
	</g>
	<g>
		<text transform="matrix(1 0 0 1 2514.2773 -271.1211)" fill="#414C52" font-family="'ApexRounded-Medium'" font-size="22">Search</text>
	</g>
	<g>
		<text transform="matrix(1 0 0 1 2662.772 -271.1211)" fill="#FA6948" font-family="'ApexRounded-Medium'" font-size="22">Project</text>
	</g>
	<g>
		<text transform="matrix(1 0 0 1 1566.3428 -56.2148)" fill="#414C52" font-family="'ApexRounded-Medium'" font-size="22">Comment</text>
	</g>
	<g>
		<text transform="matrix(1 0 0 1 1722.7407 -56.2148)" fill="#414C52" font-family="'ApexRounded-Medium'" font-size="22">Challenge</text>
	</g>
	<g>
		<text transform="matrix(1 0 0 1 1883.4404 -56.2148)" fill="#414C52" font-family="'ApexRounded-Medium'" font-size="22">Featured</text>
	</g>
	<g>
		<text transform="matrix(1 0 0 1 2049.2456 -56.2148)" fill="#414C52" font-family="'ApexRounded-Medium'" font-size="22">Market</text>
	</g>
	<g>
		<text transform="matrix(1 0 0 1 2211.7856 -56.2148)" fill="#414C52" font-family="'ApexRounded-Medium'" font-size="22">Colors</text>
	</g>
	<g>
		<text transform="matrix(1 0 0 1 2340.0933 -56.2148)" fill="#414C52" font-family="'ApexRounded-Medium'" font-size="22">Notification</text>
	</g>
	<g>
		<text transform="matrix(1 0 0 1 2795.4175 -56.2148)" fill="#414C52" font-family="'ApexRounded-Medium'" font-size="22">Dashboard</text>
	</g>
	<g>
		<text transform="matrix(1 0 0 1 2524.6611 -56.2148)" fill="#414C52" font-family="'ApexRounded-Medium'" font-size="22">User</text>
	</g>
	<g>
		<text transform="matrix(1 0 0 1 2667.6675 -56.2148)" fill="#414C52" font-family="'ApexRounded-Medium'" font-size="22">Group</text>
	</g>
	<g>
		<text transform="matrix(1 0 0 1 1906.0234 158.626)" fill="#414C52" font-family="'ApexRounded-Medium'" font-size="22">Add</text>
	</g>
	<g>
		<text transform="matrix(1 0 0 1 2064.1035 158.626)" fill="#414C52" font-family="'ApexRounded-Medium'" font-size="22">Yes</text>
	</g>
	<g>
		<text transform="matrix(1 0 0 1 2226.3862 158.626)" fill="#414C52" font-family="'ApexRounded-Medium'" font-size="22">No</text>
	</g>
	<g>
		<text transform="matrix(1 0 0 1 2364.1499 158.626)" fill="#414C52" font-family="'ApexRounded-Medium'" font-size="22">Reload</text>
	</g>
	<g>
		<text transform="matrix(1 0 0 1 2523.7852 158.626)" fill="#414C52" font-family="'ApexRounded-Medium'" font-size="22">Back</text>
	</g>
	<g>
		<text transform="matrix(1 0 0 1 2657.4702 158.626)" fill="#414C52" font-family="'ApexRounded-Medium'" font-size="22">Forward</text>
	</g>
	<g>
		<text transform="matrix(1 0 0 1 2815.1069 158.626)" fill="#414C52" font-family="'ApexRounded-Medium'" font-size="22">Delete</text>
	</g>
	<g>
		<text transform="matrix(1 0 0 1 1592.4238 373.5859)" fill="#414C52" font-family="'ApexRounded-Medium'" font-size="22">Edit</text>
	</g>
	<g>
		<text transform="matrix(1 0 0 1 1727.02 373.5859)" fill="#FA6948" font-family="'ApexRounded-Medium'" font-size="22">Portfolio</text>
	</g>
	<g>
		<text transform="matrix(1 0 0 1 1856.8867 373.5859)" fill="#414C52" font-family="'ApexRounded-Medium'" font-size="22">Time / Waiting</text>
	</g>
	<g>
		<text transform="matrix(1 0 0 1 2056.5054 373.5859)" fill="#414C52" font-family="'ApexRounded-Medium'" font-size="22">Reply</text>
	</g>
	<g>
		<text transform="matrix(1 0 0 1 2219.6636 373.5859)" fill="#414C52" font-family="'ApexRounded-Medium'" font-size="22">Cart</text>
	</g>
	<g>
		<text transform="matrix(1 0 0 1 2369.8911 373.5859)" fill="#414C52" font-family="'ApexRounded-Medium'" font-size="22">Emoji</text>
	</g>
	<g>
		<text transform="matrix(1 0 0 1 2822.2124 373.5859)" fill="#414C52" font-family="'ApexRounded-Medium'" font-size="22">Send</text>
	</g>
	<g>
		<text transform="matrix(1 0 0 1 2514.2334 373.5859)" fill="#414C52" font-family="'ApexRounded-Medium'" font-size="22">Report</text>
	</g>
	<g>
		<text transform="matrix(1 0 0 1 2671.9683 373.5859)" fill="#414C52" font-family="'ApexRounded-Medium'" font-size="22">More</text>
	</g>
	<g>
		<text transform="matrix(1 0 0 1 1589.0459 588.4917)" fill="#414C52" font-family="'ApexRounded-Medium'" font-size="22">Text</text>
	</g>
	<g>
		<text transform="matrix(1 0 0 1 1735.2036 588.4917)" fill="#414C52" font-family="'ApexRounded-Medium'" font-size="22">Offsite</text>
	</g>
	<g>
		<text transform="matrix(1 0 0 1 1893.5488 588.4917)" fill="#414C52" font-family="'ApexRounded-Medium'" font-size="22">Embed</text>
	</g>
	<g>
		<text transform="matrix(1 0 0 1 2057.1763 588.4917)" fill="#414C52" font-family="'ApexRounded-Medium'" font-size="22">Email</text>
	</g>
	<g>
		<text transform="matrix(1 0 0 1 2221.6851 588.4917)" fill="#414C52" font-family="'ApexRounded-Medium'" font-size="22">Link</text>
	</g>
	<g>
		<text transform="matrix(1 0 0 1 2365.9751 588.4917)" fill="#FA6948" font-family="'ApexRounded-Medium'" font-size="22">Unlink</text>
	</g>
	<g>
		<text transform="matrix(1 0 0 1 2523.4951 588.4917)" fill="#414C52" font-family="'ApexRounded-Medium'" font-size="22">View</text>
	</g>
	<g>
		<text transform="matrix(1 0 0 1 2674.8286 588.4917)" fill="#414C52" font-family="'ApexRounded-Medium'" font-size="22">Cost</text>
	</g>
	<path fill="#414C52" d="M1636.738-162.121h-52.353c-3.313,0-6,2.687-6,6v45.484c0,3.533,4.244,5.331,6.782,2.874l8.03-7.775h43.54
		c3.313,0,6-2.687,6-6v-34.583C1642.738-159.435,1640.051-162.121,1636.738-162.121z"/>
	<path fill="#414C52" d="M2713.533-146.953v-6.168c0-3.313-2.687-6-6-6h-37.353c-3.313,0-6,2.687-6,6v32.041
		c0,3.635,4.454,5.386,6.929,2.724l5.48-5.894h7.793v-13.702c0-4.963,4.037-9,9-9H2713.533z M2725.533-140.953h-32.15
		c-1.657,0-3,1.343-3,3v19.415c0,1.657,1.343,3,3,3h24.965l4.988,5.366c1.855,1.996,5.197,0.683,5.197-2.043v-25.738
		C2728.533-139.61,2727.189-140.953,2725.533-140.953z"/>
	<path fill="#414C52" d="M1738.664-117.022l26.002,15.143c1.863,1.085,4.165,1.087,6.029,0.005l26.182-15.181
		c1.853-1.074,2.992-3.053,2.99-5.194l-0.019-30.206c-0.001-2.134-1.136-4.107-2.98-5.181l-26.005-15.145
		c-1.862-1.084-4.162-1.087-6.027-0.007l-26.164,15.156c-1.853,1.073-2.993,3.052-2.992,5.193l0.004,30.233
		C1735.684-120.07,1736.819-118.096,1738.664-117.022z"/>
	<path fill="#414C52" d="M2271.52-139.752c0,26.793-26.388,13.922-32.297,19.832c-4.854,4.857,3.481,6.555,3.481,10.361
		c0,2.429-1.7,4.289-5.828,4.289c-16.593,0-29.545-14.649-29.545-32.295c0-17.725,14.329-32.134,32.136-32.134
		C2257.193-169.7,2271.52-157.476,2271.52-139.752z M2223.178-151.879c-2.398-1.308-5.452-0.363-6.76,2.109
		c-1.236,2.4-0.292,5.454,2.18,6.762c2.4,1.236,5.454,0.29,6.688-2.107C2226.597-147.588,2225.652-150.642,2223.178-151.879z
		 M2239.484-159.621c-0.729-2.681-3.421-4.273-6.113-3.623c-2.691,0.725-4.293,3.406-3.565,6.086
		c0.655,2.681,3.421,4.275,6.04,3.624C2238.537-154.259,2240.137-156.94,2239.484-159.621z M2256.073-152.709
		c1.53-2.25,0.947-5.372-1.383-6.896c-2.331-1.526-5.39-0.943-6.919,1.379c-1.529,2.322-0.946,5.371,1.383,6.897
		C2251.412-149.734,2254.544-150.386,2256.073-152.709z M2266.265-141.357c-0.436-2.693-2.903-4.584-5.663-4.22
		c-2.76,0.435-4.647,2.982-4.212,5.673c0.436,2.766,2.905,4.657,5.664,4.219C2264.813-136.048,2266.701-138.594,2266.265-141.357z"
		/>
	<path fill="#414C52" d="M1946.677,71.395h-15.69v-15.19c0-3.313-2.687-6-6-6s-6,2.687-6,6v15.19h-15.69c-3.313,0-6,2.687-6,6
		s2.687,6,6,6h15.69v15.19c0,3.313,2.687,6,6,6s6-2.687,6-6v-15.19h15.69c3.313,0,6-2.687,6-6S1949.991,71.395,1946.677,71.395z"/>
	<path fill="#414C52" d="M2254.746,98.731c-1.535,0-3.071-0.586-4.242-1.757L2219.828,66.3c-2.344-2.344-2.344-6.143-0.001-8.485
		c2.344-2.344,6.144-2.343,8.485-0.001l30.676,30.675c2.344,2.344,2.344,6.143,0.001,8.485
		C2257.817,98.146,2256.281,98.731,2254.746,98.731z"/>
	<path fill="#414C52" d="M2224.423,98.378c-1.536,0-3.071-0.586-4.243-1.758c-2.343-2.343-2.343-6.142,0.001-8.485l29.969-29.968
		c2.343-2.343,6.143-2.342,8.485,0.001s2.343,6.142-0.001,8.485l-29.969,29.968C2227.495,97.792,2225.958,98.378,2224.423,98.378z"
		/>
	<g>
		<text transform="matrix(1 0 0 1 1742.4634 158.626)" fill="#414C52" font-family="'ApexRounded-Medium'" font-size="22">Down</text>
	</g>
	<path fill="#414C52" d="M1767.596,93.948c-1.535,0-3.071-0.586-4.242-1.758l-20.52-20.52c-2.344-2.343-2.344-6.142,0-8.484
		c2.342-2.344,6.143-2.344,8.484,0l16.277,16.276l16.631-16.63c2.342-2.344,6.143-2.344,8.484,0c2.344,2.343,2.344,6.142,0,8.484
		l-20.873,20.873C1770.667,93.362,1769.131,93.948,1767.596,93.948z"/>
	<g>
		<text transform="matrix(1 0 0 1 1598.4297 158.626)" fill="#414C52" font-family="'ApexRounded-Medium'" font-size="22">Up</text>
	</g>
	<path fill="#414C52" d="M1589.865,93.948c-1.535,0-3.071-0.586-4.242-1.758c-2.344-2.343-2.344-6.142,0-8.484l20.873-20.873
		c2.342-2.344,6.143-2.344,8.484,0l20.52,20.52c2.344,2.343,2.344,6.142,0,8.484c-2.342,2.344-6.143,2.344-8.484,0l-16.277-16.276
		l-16.631,16.63C1592.936,93.362,1591.4,93.948,1589.865,93.948z"/>
	<path fill="#414C52" d="M1907.295,507.262l11.287-11.3c2.342-2.345,2.34-6.144-0.005-8.485c-2.345-2.343-6.145-2.339-8.485,0.005
		l-15.341,15.358c-0.062,0.058-0.124,0.116-0.185,0.178c-2.344,2.343-2.344,6.142,0,8.484l15.533,15.533
		c1.171,1.172,2.707,1.758,4.242,1.758s3.071-0.586,4.242-1.758c2.344-2.343,2.344-6.142,0-8.484L1907.295,507.262z
		 M1955.408,503.013l-15.533-15.533c-2.342-2.344-6.143-2.344-8.484,0c-2.344,2.343-2.344,6.142,0,8.484l11.289,11.289l-11.287,11.3
		c-2.342,2.345-2.34,6.144,0.005,8.485c1.171,1.17,2.706,1.755,4.24,1.755c1.537,0,3.073-0.587,4.245-1.76l15.341-15.358
		c0.062-0.058,0.124-0.116,0.185-0.178C1957.751,509.154,1957.751,505.355,1955.408,503.013z"/>
	<path fill="#414C52" d="M2065.203,102.178l-14.563-26.768c-2.218-4.075,2.943-8.14,6.386-5.029l14.78,13.357l35.428-34.715
		c3.586-3.514,9.148,1.219,6.256,5.321l-34.304,48.645C2075.663,107.983,2068.123,107.546,2065.203,102.178z"/>
	<path fill="#414C52" d="M1924.985,260.178c-17.771,0-32.177,14.406-32.177,32.177s14.406,32.176,32.177,32.176
		c17.77,0,32.176-14.405,32.176-32.176S1942.754,260.178,1924.985,260.178z M1940.817,303.541c-0.71,1.378-2.109,2.169-3.559,2.169
		c-0.617,0-1.243-0.144-1.829-0.445l-14.276-7.355c-1.331-0.686-2.168-2.058-2.168-3.556v-17.176c0-2.209,1.791-4,4-4s4,1.791,4,4
		v14.737l12.108,6.238C1941.057,299.165,1941.829,301.577,1940.817,303.541z"/>
	<path fill="#414C52" d="M2274.256,260.68h-6.673c-1.786,0-3.355,1.185-3.847,2.901l-2.027,7.099h-50.598
		c-2.026,0-3.47,1.968-2.862,3.9l6.531,20.761c0.394,1.249,1.552,2.1,2.862,2.1h36.427l-1.519,5.319h-32.738c-2.209,0-4,1.791-4,4
		s1.791,4,4,4h35.756c1.786,0,3.355-1.185,3.847-2.901l11.186-39.179h3.655c2.209,0,4-1.791,4-4S2276.465,260.68,2274.256,260.68z
		 M2223.943,314.259c-2.836,0-5.136,2.3-5.136,5.136c0,2.836,2.3,5.136,5.136,5.136c2.837,0,5.136-2.3,5.136-5.136
		C2229.079,316.559,2226.78,314.259,2223.943,314.259z M2251.755,314.259c-2.836,0-5.136,2.3-5.136,5.136
		c0,2.836,2.3,5.136,5.136,5.136s5.136-2.3,5.136-5.136C2256.891,316.559,2254.591,314.259,2251.755,314.259z"/>
	<path fill="#414C52" d="M2423.947,49.267c-0.171-2.604-3.355-3.764-5.16-1.878l-7.398,7.727c-3.933-2.599-8.439-4.133-13.228-4.438
		c-15.005-0.948-27.972,10.464-28.928,25.459c-0.956,14.994,10.465,27.971,25.459,28.928c0.577,0.036,1.152,0.055,1.727,0.055
		c8.197-0.001,16.029-3.715,21.219-10.142c1.735-2.148,1.4-5.297-0.748-7.031c-2.15-1.735-5.298-1.399-7.031,0.748
		c-3.519,4.356-8.945,6.747-14.529,6.39c-9.491-0.605-16.721-8.819-16.115-18.311c0.605-9.492,8.826-16.738,18.311-16.115
		c2.401,0.153,4.691,0.789,6.777,1.862l-7.623,7.963c-1.776,1.855-0.552,4.94,2.014,5.07l23.707,1.217
		c1.793,0.092,3.265-1.401,3.146-3.193L2423.947,49.267z"/>
	<g>
		<path fill="#414C52" d="M1953.085-144.663l-2.818-3.703c-0.72-0.945-0.889-2.2-0.444-3.302l1.641-4.067
			c0.71-1.761-0.174-3.761-1.954-4.421l-4.367-1.62c-1.096-0.406-1.902-1.35-2.133-2.495l-0.878-4.365
			c-0.371-1.846-2.185-3.03-4.024-2.628l-4.509,0.986c-1.129,0.247-2.306-0.102-3.118-0.924l-3.189-3.229
			c-1.319-1.336-3.477-1.336-4.796,0l-3.189,3.229c-0.812,0.823-1.989,1.171-3.118,0.924l-4.509-0.986
			c-1.84-0.402-3.653,0.782-4.024,2.628l-0.878,4.365c-0.23,1.145-1.037,2.089-2.133,2.495l-4.367,1.62
			c-1.78,0.66-2.664,2.66-1.954,4.421l1.641,4.067c0.444,1.102,0.275,2.357-0.444,3.302l-2.818,3.703
			c-1.162,1.526-0.817,3.712,0.757,4.808l3.578,2.49c0.993,0.691,1.54,1.862,1.432,3.066l-0.409,4.587
			c-0.173,1.928,1.311,3.604,3.244,3.669l4.38,0.146c0.984,0.033,1.888,0.499,2.496,1.245l-3.6,22.322
			c-0.321,1.989,1.935,3.365,3.557,2.169l11.409-8.412c0.794-0.585,1.877-0.585,2.671,0l11.412,8.413
			c1.622,1.195,3.877-0.18,3.557-2.169l-3.595-22.296c0.607-0.762,1.52-1.237,2.516-1.271l4.38-0.146
			c1.934-0.065,3.417-1.741,3.244-3.669l-0.409-4.586c-0.108-1.205,0.438-2.376,1.432-3.066l3.578-2.49
			C1953.903-140.951,1954.248-143.137,1953.085-144.663z"/>
	</g>
	<path fill="#414C52" d="M2863.602,71.223h-34.059c-1.748,0-3.125,1.488-2.991,3.231l2.281,29.578
		c0.241,3.126,2.847,5.539,5.982,5.539h22.55c3.061,0,5.631-2.304,5.964-5.346l3.254-29.675
		C2866.779,72.774,2865.388,71.223,2863.602,71.223z M2863.885,55.721h-6.915c0,0,0.385-12-10.876-12c-11.262,0-10.877,12-10.877,12
		h-6.915c-3.313,0-6,2.685-6,6v0.502c0,1.657,1.344,3,3,3h41.583c1.657,0,3-1.343,3-3v-0.502
		C2869.885,58.406,2867.199,55.721,2863.885,55.721z M2850.97,55.721h-9.753c0,0-0.156-6,4.877-6
		C2851.125,49.721,2850.97,55.721,2850.97,55.721z"/>
	<g>
		<path fill="#414C52" d="M2094.578-141.01l4.995-4.995c3.893,1.275,8.342,0.379,11.436-2.716c2.67-2.669,3.705-6.347,3.121-9.805
			c-0.122-0.729-1.043-0.993-1.565-0.471l-4.604,4.605c-0.725,0.724-1.898,0.724-2.622,0l-4.533-4.533
			c-0.724-0.724-0.724-1.897,0-2.622l4.604-4.604c0.542-0.542,0.227-1.453-0.529-1.577c-3.788-0.619-7.83,0.703-10.517,3.983
			c-2.452,2.993-3.103,7.037-1.95,10.59l-4.372,4.372L2094.578-141.01z M2070.7-131.44l-3.655,3.655
			c-3.553-1.153-7.598-0.502-10.59,1.95c-3.279,2.687-4.602,6.728-3.982,10.516c0.123,0.756,1.035,1.071,1.577,0.529l4.604-4.604
			c0.724-0.724,1.897-0.724,2.622,0l4.532,4.533c0.724,0.724,0.724,1.897,0,2.621l-4.605,4.605
			c-0.522,0.523-0.258,1.443,0.471,1.566c3.459,0.584,7.137-0.452,9.806-3.122c3.095-3.095,3.99-7.543,2.715-11.436l4.279-4.279
			L2070.7-131.44z M2081.912-146.75c-6.396-7.643-16.821,2.783-9.18,9.18l33.76,28.389c2.931,2.454,6.262-0.877,3.809-3.808
			L2081.912-146.75z M2056.503-151.692c7.994,9.127,20.898-2.474,11.57-11.572c-4.641-4.526-10.639-5.723-15.152-5.871
			c-0.996-0.033-1.333,1.358-0.422,1.763C2059.449-164.286,2052.034-156.795,2056.503-151.692z"/>
	</g>
	<path fill="#414C52" d="M2554.316,104.091c-1.535,0-3.071-0.586-4.242-1.758l-20.873-20.873c-2.344-2.343-2.344-6.142,0-8.484
		l20.52-20.52c2.342-2.344,6.143-2.344,8.484,0c2.344,2.343,2.344,6.142,0,8.484l-16.276,16.277l16.63,16.631
		c2.344,2.343,2.344,6.142,0,8.484C2557.387,103.505,2555.851,104.091,2554.316,104.091z"/>
	<path fill="#414C52" d="M2689.025,104.091c-1.535,0-3.071-0.586-4.242-1.757c-2.344-2.344-2.344-6.143-0.001-8.485l16.276-16.277
		l-16.63-16.631c-2.344-2.343-2.344-6.142,0-8.484c2.342-2.344,6.143-2.344,8.484,0l20.873,20.873
		c2.344,2.343,2.344,6.142,0.001,8.484l-20.519,20.52C2692.096,103.505,2690.56,104.091,2689.025,104.091z"/>
	<path fill="#414C52" d="M2396.62,260.178c-17.771,0-32.177,14.405-32.177,32.177c0,17.77,14.406,32.176,32.177,32.176
		s32.176-14.406,32.176-32.176C2428.795,274.583,2414.39,260.178,2396.62,260.178z M2406.796,280.845c2.761,0,5,2.238,5,5
		c0,2.762-2.239,5-5,5c-2.762,0-5-2.238-5-5C2401.796,283.083,2404.035,280.845,2406.796,280.845z M2386.443,280.845
		c2.762,0,5,2.238,5,5c0,2.762-2.238,5-5,5s-5-2.238-5-5C2381.443,283.083,2383.681,280.845,2386.443,280.845z M2417.056,300.977
		c-3.363,7.965-11.247,13.554-20.437,13.554c-9.19,0-17.075-5.591-20.438-13.556c-0.66-1.565,0.873-3.154,2.489-2.635
		c3.533,1.137,9.538,2.505,17.957,2.505c8.413,0,14.408-1.366,17.938-2.502C2416.183,297.823,2417.717,299.412,2417.056,300.977z"/>
	<path fill="#414C52" d="M1794.949,480.586h-19.213c-2.762,0-5,2.238-5,5s2.238,5,5,5h7.143l-16.641,16.641
		c-1.953,1.952-1.953,5.118,0,7.07c0.976,0.977,2.256,1.465,3.535,1.465s2.56-0.488,3.535-1.465l16.641-16.641v7.143
		c0,2.762,2.238,5,5,5s5-2.238,5-5v-19.213C1799.949,482.824,1797.71,480.586,1794.949,480.586z M1794.949,516.799
		c-2.762,0-5,2.238-5,5v1.37c0,0.552-0.448,1-1,1h-42.352c-0.552,0-1-0.448-1-1v-31.583c0-0.552,0.448-1,1-1h12.139
		c2.762,0,5-2.238,5-5s-2.238-5-5-5h-12.139c-6.065,0-11,4.935-11,11v31.583c0,6.065,4.935,11,11,11h42.352c6.065,0,11-4.935,11-11
		v-1.37C1799.949,519.037,1797.71,516.799,1794.949,516.799z"/>
	<path fill="#414C52" d="M2120.366,306.69c-6.922-12.537-20.268-25.778-41.904-25.778v-9.554c0-4.436-5.348-6.675-8.509-3.561
		l-20.441,20.133c-1.988,1.958-1.988,5.166,0,7.125l20.441,20.133c3.161,3.113,8.509,0.874,8.509-3.562v-10.571
		c13.884-2.243,27.731,1.334,37.302,9.329C2118.32,312.519,2121.976,309.606,2120.366,306.69z"/>
	<path fill="#414C52" d="M2880.929,271.695l-69.878,17.347c-2.651,0.658-3.115,4.228-0.721,5.542l9.993,5.483v21.506
		c0,1.708,2.003,2.63,3.301,1.518l15.896-12.492l20.782,11.402c1.573,0.863,3.547,0.162,4.223-1.5l18.739-46.111
		C2883.879,272.875,2882.516,271.302,2880.929,271.695z M2826.324,311.88v-10.521l33.981-15.58L2826.324,311.88z"/>
	<path fill="#414C52" d="M1637.23,728.325l-1.256-0.725c-1.322-0.763-2.098-2.212-1.985-3.735c0.042-0.561,0.063-1.128,0.063-1.7
		s-0.022-1.139-0.063-1.7c-0.113-1.523,0.663-2.971,1.985-3.735l1.256-0.726c1.435-0.828,1.926-2.663,1.098-4.097l-5-8.66
		c-0.828-1.435-2.664-1.927-4.099-1.098l-1.252,0.723c-1.303,0.752-2.937,0.74-4.178-0.11c-0.965-0.661-1.983-1.251-3.045-1.764
		c-1.364-0.659-2.194-2.081-2.194-3.596v-1.413c0-1.657-1.343-3-3-3h-10c-1.657,0-3,1.343-3,3v1.413c0,1.515-0.83,2.937-2.194,3.596
		c-1.062,0.513-2.079,1.103-3.045,1.764c-1.241,0.849-2.876,0.862-4.178,0.11l-1.252-0.723c-1.435-0.829-3.271-0.337-4.099,1.098
		l-5,8.659c-0.828,1.435-0.337,3.27,1.098,4.099l1.256,0.726c1.322,0.763,2.098,2.212,1.985,3.735
		c-0.042,0.561-0.063,1.128-0.063,1.7s0.022,1.139,0.063,1.7c0.113,1.523-0.663,2.971-1.985,3.735l-1.256,0.725
		c-1.435,0.829-1.927,2.664-1.098,4.099l5,8.66c0.828,1.435,2.663,1.927,4.098,1.098l1.253-0.723c1.302-0.752,2.937-0.74,4.178,0.11
		c0.965,0.661,1.983,1.251,3.045,1.764c1.364,0.659,2.194,2.081,2.194,3.596v1.413c0,1.657,1.343,3,3,3h10c1.657,0,3-1.343,3-3
		v-1.413c0-1.515,0.829-2.937,2.194-3.596c1.062-0.513,2.079-1.103,3.045-1.764c1.241-0.849,2.875-0.862,4.178-0.11l1.252,0.723
		c1.435,0.829,3.27,0.337,4.099-1.098l5-8.66C1639.156,730.988,1638.665,729.154,1637.23,728.325z M1610.561,733.655
		c-6.336,0-11.49-5.154-11.49-11.49s5.155-11.49,11.49-11.49s11.49,5.155,11.49,11.49S1616.897,733.655,1610.561,733.655z"/>
	<g>
		<text transform="matrix(1 0 0 1 2812.3237 588.4917)" fill="#414C52" font-family="'ApexRounded-Medium'" font-size="22">Danger</text>
	</g>
	<path fill="#414C52" d="M1600.453,483.156c-0.64-1.792-1.407-2.56-3.199-2.56h-2.816c-1.792,0-2.56,0.768-3.199,2.56
		l-14.527,42.685c-0.64,1.92,0.384,3.328,1.984,3.328h2.815c1.92,0,2.688-0.767,3.264-2.624l2.752-9.087h16.639l2.752,9.087
		c0.576,1.857,1.344,2.624,3.264,2.624h2.815c1.601,0,2.624-1.408,1.984-3.328L1600.453,483.156z M1589.318,511.57l6.527-21.439
		l6.527,21.439H1589.318z M1630.784,496.403c-3.393,0-6.976,0.704-8.704,1.216c-1.344,0.384-1.792,1.152-1.792,2.368v2.367
		c0,1.088,0.896,1.92,2.305,1.473c1.216-0.385,4.159-1.28,7.679-1.28c4.736,0,6.271,1.28,6.271,4.544v1.6l-7.167,0.576
		c-7.231,0.576-11.711,3.52-11.711,10.431c0,5.12,2.751,10.239,11.007,10.239c3.52,0,7.104-1.216,9.663-3.327l0.32,0.704
		c0.576,1.344,0.96,1.855,2.304,1.855h0.704c1.344,0,2.048-0.767,2.048-2.112v-19.262
		C1643.71,501.011,1641.279,496.403,1630.784,496.403z M1636.542,521.938c-1.983,1.28-3.968,2.111-6.847,2.111
		c-3.904,0-4.928-2.304-4.928-4.735c0-3.327,1.855-4.544,5.056-4.928l6.719-0.767V521.938z"/>
	<path fill="#414C52" d="M2822.434-348.089c2.377-1.183,5.071-2.524,8.751-2.524c3.685,0,6.395,1.344,8.786,2.53
		c2.062,1.022,3.843,1.906,6.122,1.906c2.278,0,4.06-0.883,6.121-1.906c2.392-1.186,5.103-2.53,8.787-2.53
		c3.68,0,6.374,1.341,8.751,2.524c1.305,0.649,2.499,1.241,3.786,1.589c2.9-2.983,4.73-6.946,4.73-11.374
		c0-4.801-2.217-9.017-4.597-11.518c-2.428-2.55-4.799-2.648-5.916-0.153c-1.922,4.289-4.288,7.631-15.474,7.631h-12.121
		l2.552-2.552c3.819-3.819,4.381-0.138,11.112-6.87l3.001-3.002c0.797-0.796,0.797-2.088,0-2.885l-4.186-4.186
		c-0.797-0.797-2.089-0.797-2.886,0l-3.001,3.002c-6.731,6.731-2.546,6.788-6.364,10.606v0l-5.585,5.586
		c-6.887-0.906-8.789-3.794-10.374-7.331c-1.118-2.496-3.488-2.398-5.916,0.153c-2.381,2.501-4.597,6.717-4.597,11.518
		c0,4.429,1.83,8.391,4.73,11.374C2819.935-346.848,2821.129-347.44,2822.434-348.089z M2883.805-340.942
		c-0.886-1.4-2.737-1.82-4.139-0.935l-0.206,0.131c-1.055,0.67-2.051,1.303-3.55,1.303c-2.314,0-4.096-0.886-6.157-1.912
		c-2.378-1.183-5.072-2.524-8.752-2.524c-3.685,0-6.396,1.344-8.787,2.53c-2.062,1.022-3.843,1.906-6.121,1.906
		c-2.279,0-4.06-0.883-6.122-1.906c-2.392-1.186-5.102-2.53-8.786-2.53c-3.68,0-6.374,1.341-8.752,2.524
		c-2.062,1.026-3.843,1.912-6.157,1.912c-1.503,0-2.499-0.634-3.554-1.305l-0.207-0.132c-1.402-0.886-3.255-0.469-4.139,0.932
		c-0.886,1.4-0.469,3.253,0.932,4.139l0.192,0.122c1.318,0.839,3.524,2.244,6.775,2.244c3.725,0,6.438-1.35,8.831-2.541
		c2.044-1.017,3.809-1.896,6.078-1.896c2.278,0,4.059,0.883,6.12,1.906c2.393,1.186,5.103,2.53,8.788,2.53
		c3.685,0,6.396-1.344,8.787-2.53c2.062-1.022,3.843-1.906,6.121-1.906c2.27,0,4.034,0.878,6.078,1.896
		c2.394,1.191,5.106,2.541,8.831,2.541c3.244,0,5.449-1.401,6.768-2.239l0.191-0.122
		C2884.271-337.688,2884.689-339.541,2883.805-340.942z"/>
	<g>
		<text transform="matrix(1 0 0 1 1900.042 -271.1211)" fill="#414C52" font-family="'ApexRounded-Medium'" font-size="22">Video</text>
	</g>
	<path fill="#414C52" d="M1951.975-369.061l-12.654,12.335v-11.301c0-3.314-2.687-6-6-6h-34.604c-3.313,0-6,2.686-6,6v31.583
		c0,3.313,2.687,6,6,6h34.604c3.313,0,6-2.687,6-6v-11.304l12.654,12.337c1.9,1.853,5.094,0.506,5.094-2.148v-29.355
		C1957.069-369.567,1953.875-370.914,1951.975-369.061z"/>
	<path fill="none" stroke="#FFFFFF" stroke-width="6" stroke-miterlimit="10" d="M2116.035,481.181"/>
	<path fill="none" stroke="#FFFFFF" stroke-width="6" stroke-miterlimit="10" d="M2048.357,481.181"/>
	<path fill="#414C52" d="M2676.356,286.354c-3.313,0-6,2.687-6,6c0,3.315,2.687,6,6,6s6-2.685,6-6
		C2682.356,289.04,2679.669,286.354,2676.356,286.354z M2696.356,286.354c-3.313,0-6,2.687-6,6c0,3.315,2.687,6,6,6s6-2.685,6-6
		C2702.356,289.04,2699.669,286.354,2696.356,286.354z M2716.356,286.354c-3.313,0-6,2.687-6,6c0,3.315,2.687,6,6,6s6-2.685,6-6
		C2722.356,289.04,2719.669,286.354,2716.356,286.354z M2847.488-148.612c-0.501-1.261-2.287-1.261-2.788,0l-8.001,20.139
		c-0.515,1.296,0.862,2.531,2.095,1.88l6.366-3.366c0.584-0.309,1.284-0.309,1.869,0l6.365,3.366
		c1.232,0.651,2.609-0.584,2.096-1.88L2847.488-148.612z M2881.783-138.446l-5.479-4.912c-2.424-12.16-12.021-21.757-24.182-24.18
		l-4.912-5.479c-0.596-0.665-1.638-0.665-2.233,0l-4.912,5.479c-12.16,2.423-21.759,12.021-24.181,24.18l-5.479,4.912
		c-0.665,0.596-0.665,1.637,0,2.233l5.479,4.912c2.422,12.16,12.02,21.757,24.181,24.181l4.912,5.48
		c0.596,0.664,1.638,0.664,2.233,0l4.912-5.48c12.161-2.423,21.758-12.021,24.182-24.181l5.479-4.912
		C2882.447-136.809,2882.447-137.85,2881.783-138.446z M2846.094-115.546c-12.012,0-21.784-9.771-21.784-21.783
		c0-12.012,9.772-21.784,21.784-21.784c12.011,0,21.784,9.773,21.784,21.784C2867.878-125.317,2858.105-115.546,2846.094-115.546z"
		/>
	<g>
		<path fill="#414C52" d="M2084.542,728.412h2.49c2.373,0,3.807-2.623,2.525-4.62l-9.088-14.159h0.064
			c2.188,0,3.426-2.509,2.095-4.246l-7.693-10.038c-1.201-1.566-3.562-1.566-4.763,0l-7.693,10.038
			c-1.331,1.737-0.093,4.246,2.096,4.246h0.063l-9.087,14.159c-1.282,1.997,0.152,4.62,2.524,4.62h2.491l-5.759,11.301
			c-1.017,1.995,0.433,4.361,2.673,4.361h30.146c2.24,0,3.69-2.366,2.673-4.361L2084.542,728.412z M2111.586,739.712l-3.996-7.842
			h0.729c2.372,0,3.806-2.623,2.524-4.62l-6.427-10.013h0.045c1.707,0,2.673-1.958,1.635-3.314l-6.26-8.167
			c-0.801-1.044-2.374-1.044-3.175,0l-6.259,8.167c-0.01,0.013-0.014,0.028-0.023,0.042l4.228,6.587
			c1.778,2.771,1.902,6.287,0.323,9.176c-0.479,0.878-1.093,1.654-1.807,2.31l2.521,4.948c1.144,2.243,1.277,4.783,0.453,7.087
			h12.815C2111.154,744.074,2112.604,741.708,2111.586,739.712z"/>
	</g>
	<path fill="#414C52" d="M2877.869,524.641c-4.855-14.328-17.539-35.074-27.395-45.694c-2.359-2.543-6.397-2.543-8.756,0
		c-9.856,10.62-22.54,31.366-27.395,45.694c-1.138,3.358,0.873,6.964,4.326,7.765c14.959,3.468,39.934,3.468,54.892,0
		C2876.996,531.604,2879.005,527.999,2877.869,524.641z M2850.103,521.998c0,2.209-1.798,4.006-4.006,4.006
		c-2.208,0-4.007-1.797-4.007-4.006v-1.391c0-2.206,1.8-4.006,4.007-4.006c2.208,0,4.006,1.8,4.006,4.006V521.998z
		 M2850.103,508.098c0,2.207-1.798,4.006-4.006,4.006c-2.208,0-4.007-1.8-4.007-4.006v-11.857c0-2.209,1.8-4.006,4.007-4.006
		c2.208,0,4.006,1.797,4.006,4.006V508.098z"/>
	<g>
		<text transform="matrix(1 0 0 1 1570.5771 803.3975)" fill="#414C52" font-family="'ApexRounded-Medium'" font-size="22">Settings</text>
	</g>
	<g>
		<text transform="matrix(1 0 0 1 1744.4985 803.3975)" fill="#414C52" font-family="'ApexRounded-Medium'" font-size="22">Pizza</text>
	</g>
	<g>
		<text transform="matrix(1 0 0 1 1905.3301 803.3975)" fill="#414C52" font-family="'ApexRounded-Medium'" font-size="22">Chill</text>
	</g>
	<g>
		<text transform="matrix(1 0 0 1 2039.1362 803.3975)" fill="#414C52" font-family="'ApexRounded-Medium'" font-size="22">Outdoors</text>
	</g>
	<g>
		<text transform="matrix(1 0 0 1 2191.4028 803.3975)" fill="#414C52" font-family="'ApexRounded-Medium'" font-size="22">Selfie Cam</text>
	</g>
	<g>
		<text transform="matrix(1 0 0 1 2347.6167 803.3975)" fill="#414C52" font-family="'ApexRounded-Medium'" font-size="22">Front Cam</text>
	</g>
	<g>
		<text transform="matrix(1 0 0 1 2496.0186 803.3975)" fill="#414C52" font-family="'ApexRounded-Medium'" font-size="22">Onion Skin</text>
	</g>
	<g>
		<text transform="matrix(1 0 0 1 2668.7671 803.3975)" fill="#414C52" font-family="'ApexRounded-Medium'" font-size="22">Focus</text>
	</g>
	<path fill="#414C52" d="M1960.539,711.201c-24.979-7.525-27.107,1.978-35.551,1.978c-8.444,0-10.572-9.503-35.551-1.978
		c-1.504,0.453-2.528,1.854-2.528,3.423v0.347c0,1.666,1.131,3.065,2.719,3.57c0.806,0.256,1.477,0.764,1.477,1.745
		c0.052,8.405,6.878,15.205,15.296,15.205c10.331,0,13.232-6.523,15.011-13.726c0.853-3.449,6.302-3.449,7.153,0
		c1.778,7.203,4.68,13.726,15.012,13.726c8.418,0,15.243-6.8,15.295-15.205c0-0.981,0.672-1.489,1.477-1.745
		c1.588-0.506,2.719-1.904,2.719-3.57v-0.347C1963.066,713.055,1962.042,711.654,1960.539,711.201z M1899.705,722.5
		c-0.512,0-1.023-0.195-1.414-0.586c-0.781-0.781-0.781-2.048,0-2.828l3.69-3.689c0.781-0.781,2.047-0.781,2.828,0
		s0.781,2.048,0,2.828l-3.69,3.689C1900.728,722.305,1900.216,722.5,1899.705,722.5z M1913.579,719.983l-8.951,8.951
		c-0.391,0.391-0.902,0.586-1.414,0.586s-1.023-0.195-1.414-0.586c-0.781-0.781-0.781-2.047,0-2.828l8.951-8.951
		c0.781-0.781,2.047-0.781,2.828,0S1914.36,719.202,1913.579,719.983z M1938.174,722.5c-0.512,0-1.023-0.195-1.414-0.586
		c-0.781-0.781-0.781-2.047,0-2.828l3.689-3.689c0.781-0.781,2.047-0.781,2.828,0s0.781,2.047,0,2.828l-3.689,3.689
		C1939.198,722.305,1938.686,722.5,1938.174,722.5z M1952.048,719.983l-8.952,8.951c-0.391,0.391-0.902,0.586-1.414,0.586
		s-1.023-0.195-1.414-0.586c-0.781-0.781-0.781-2.047,0-2.828l8.952-8.951c0.781-0.781,2.047-0.781,2.828,0
		S1952.83,719.202,1952.048,719.983z"/>
	<g>
		<text transform="matrix(1 0 0 1 2816.7891 803.3975)" fill="#414C52" font-family="'ApexRounded-Medium'" font-size="22">Phone</text>
	</g>
	<path fill="#414C52" d="M1748.042,699.987c-0.021-0.003-0.039-0.011-0.06-0.014l-10.142,45.752
		c-0.524,2.368,1.832,4.348,4.074,3.422l46.095-19.022c-0.003-0.007-0.008-0.012-0.011-0.019
		C1781.369,713.969,1766.058,702.429,1748.042,699.987z M1753.269,737.113c-2.762-0.029-4.976-2.292-4.946-5.053
		c0.029-2.762,2.292-4.976,5.054-4.946c2.761,0.029,4.976,2.292,4.945,5.054C1758.292,734.929,1756.03,737.143,1753.269,737.113z
		 M1756.779,720.621c-3.312-0.036-5.971-2.751-5.935-6.065c0.035-3.313,2.751-5.971,6.063-5.935
		c3.314,0.036,5.971,2.751,5.936,6.064C1762.808,717.999,1760.093,720.656,1756.779,720.621z M1771.415,730.165
		c-2.761-0.029-4.976-2.292-4.946-5.054c0.03-2.761,2.293-4.976,5.054-4.945c2.762,0.029,4.976,2.292,4.946,5.053
		C1776.439,727.98,1774.176,730.194,1771.415,730.165z M1798.04,718.711c-8.584-15.588-23.817-26.747-41.257-30.785
		c-3.222-0.745-6.426,1.338-7.142,4.566l-0.792,3.573c19.307,2.71,35.711,15.149,42.85,32.521c0.002,0.005,0.002,0.01,0.004,0.014
		l3.39-1.399C1798.42,725.828,1799.777,721.865,1798.04,718.711z"/>
	<path fill="#414C52" d="M2546.628,260.178c-17.771,0-32.177,14.405-32.177,32.177c0,17.77,14.406,32.176,32.177,32.176
		s32.176-14.406,32.176-32.176C2578.804,274.583,2564.399,260.178,2546.628,260.178z M2556.804,280.845c2.762,0,5,2.238,5,5
		c0,2.762-2.238,5-5,5s-5-2.238-5-5C2551.804,283.083,2554.042,280.845,2556.804,280.845z M2536.452,280.845c2.762,0,5,2.238,5,5
		c0,2.762-2.238,5-5,5c-2.761,0-5-2.238-5-5C2531.452,283.083,2533.691,280.845,2536.452,280.845z M2565.21,307.664
		c-0.591,0.639-1.396,0.962-2.202,0.962c-0.724,0-1.448-0.26-2.023-0.786c-0.24-0.215-5.148-4.5-14.367-4.5
		c-9.239,0-14.286,4.439-14.334,4.484c-1.218,1.127-3.113,1.055-4.24-0.16c-1.126-1.215-1.055-3.113,0.16-4.24
		c0.269-0.248,6.697-6.084,18.414-6.084c11.725,0,18.162,5.837,18.43,6.085C2566.263,304.551,2566.336,306.449,2565.21,307.664z"/>
	<path fill="#414C52" d="M2267.42,725.639c-2.04-2.039-4.751-3.162-7.637-3.162h-0.002l-2.581,0.002v-21.987c0-3.314-2.686-6-6-6
		h-23.582c-3.314,0-6,2.686-6,6v21.987l-2.586-0.002h-0.003c-2.884,0-5.596,1.123-7.635,3.162c-2.04,2.04-3.163,4.753-3.163,7.638
		c0,5.955,4.845,10.8,10.8,10.8l16.587-0.002v5.256c0,1.853,2.301,2.709,3.513,1.308l7.137-8.254c0.649-0.751,0.649-1.865,0-2.616
		l-7.137-8.254c-1.212-1.401-3.513-0.545-3.513,1.308v5.253l-16.587,0.002c-2.646,0-4.8-2.153-4.8-4.8
		c0-1.282,0.499-2.488,1.406-3.395c0.906-0.906,2.11-1.405,3.391-1.405c0,0,0,0,0.001,0l2.587,0.002c0.001,0,0.001,0,0.002,0v5.597
		l10-0.001v-1.253c0-3.31,2.699-6.004,6.017-6.004c1.73,0,3.379,0.758,4.522,2.08l4.476,5.177l10.567,0.001v-5.597
		c0.001,0,0.002,0,0.002,0l2.582-0.002c0,0,0,0,0.001,0c1.281,0,2.486,0.499,3.392,1.405c0.907,0.906,1.406,2.112,1.406,3.395
		c0,2.646-2.153,4.8-4.799,4.8l-5.991-0.002h-0.001c-1.656,0-2.999,1.343-3,2.999c-0.001,1.657,1.342,3,2.999,3.001l5.992,0.002
		c5.955,0,10.8-4.845,10.8-10.8C2270.583,730.392,2269.46,727.679,2267.42,725.639z M2245.625,702.263
		c1.688,0,3.058,1.369,3.058,3.058c0,1.688-1.369,3.058-3.058,3.058c-1.689,0-3.059-1.369-3.059-3.058
		C2242.567,703.632,2243.936,702.263,2245.625,702.263z M2233.178,702.263c1.688,0,3.058,1.369,3.058,3.058
		c0,1.688-1.369,3.058-3.058,3.058c-1.689,0-3.059-1.369-3.059-3.058C2230.12,703.632,2231.489,702.263,2233.178,702.263z
		 M2250.779,715.653c-0.165,0.153-4.144,3.765-11.373,3.765c-7.234,0-11.218-3.611-11.384-3.765
		c-0.81-0.751-0.858-2.017-0.108-2.827c0.748-0.808,2.005-0.858,2.817-0.117c0.153,0.137,3.116,2.709,8.675,2.709
		c5.588,0,8.625-2.671,8.654-2.698c0.809-0.749,2.074-0.704,2.826,0.107C2251.637,713.637,2251.589,714.902,2250.779,715.653z"/>
	<path fill="#414C52" d="M2424.127,725.639c-2.04-2.039-4.751-3.162-7.637-3.162h-0.002l-2.585,0.002v-21.987c0-3.314-2.686-6-6-6
		h-23.583c-3.313,0-6,2.686-6,6v21.987l-2.58-0.002h-0.003c-2.884,0-5.596,1.123-7.636,3.162c-2.04,2.04-3.163,4.752-3.163,7.638
		c0,5.955,4.845,10.8,10.802,10.8l5.99-0.002c1.657-0.001,3-1.344,2.999-3.001c-0.001-1.656-1.344-2.999-3-2.999h-0.001
		l-5.989,0.002c-2.647,0-4.801-2.153-4.801-4.8c0-1.282,0.499-2.488,1.406-3.395c0.906-0.906,2.111-1.405,3.392-1.405h0.001
		l2.581,0.002c0,0,0.001,0,0.002,0v5.597l10.569-0.001l4.476-5.177c1.143-1.322,2.791-2.08,4.521-2.08
		c3.318,0,6.017,2.693,6.017,6.004v1.253l10,0.001v-5.597h0.002l2.586-0.002h0.001c1.281,0,2.486,0.499,3.393,1.405
		c0.907,0.906,1.406,2.112,1.406,3.395c0,2.646-2.153,4.8-4.801,4.8l-16.587-0.002v-5.253c0-1.853-2.301-2.709-3.513-1.308
		l-7.136,8.254c-0.65,0.751-0.65,1.865,0,2.616l7.136,8.254c1.212,1.401,3.513,0.545,3.513-1.308v-5.256l16.587,0.002
		c5.956,0,10.801-4.845,10.801-10.8C2427.292,730.392,2426.167,727.679,2424.127,725.639z M2389.326,710.491c-2.762,0-5-2.238-5-5
		c0-2.761,2.238-5,5-5c2.761,0,5,2.239,5,5C2394.326,708.253,2392.086,710.491,2389.326,710.491z"/>
	<path fill="#414C52" d="M2859.384,689.989h-26.583c-3.313,0-6,2.686-6,6v52.352c0,3.314,2.687,6,6,6l26.583-0.002
		c3.313,0,6-2.686,6-6v-52.35C2865.384,692.676,2862.698,689.989,2859.384,689.989z M2831.801,741.074v-37.583c0-1.656,1.343-3,3-3
		h22.583c1.657,0,3,1.344,3,3v37.583c0,1.657-1.344,3-3,3h-22.583C2833.144,744.074,2831.801,742.731,2831.801,741.074z"/>
	<path fill="#414C52" d="M2536.248,744.836c-4.858,0-8.997-3.476-9.841-8.265l-4.368-24.774l-3.481,1.267
		c-3.113,1.133-4.719,4.576-3.586,7.69l9.328,25.628c1.133,3.114,4.576,4.72,7.689,3.586l22.527-8.199l-16.526,2.914
		C2537.416,744.785,2536.829,744.836,2536.248,744.836z M2572.794,693.973h-27.271c-3.314,0-6,2.686-6,6v27.272c0,3.313,2.686,6,6,6
		h27.271c3.314,0,6-2.687,6-6v-27.272C2578.794,696.659,2576.109,693.973,2572.794,693.973z M2535.523,727.245v-26.067l-5.046,0.89
		c-3.263,0.575-5.442,3.688-4.866,6.95l4.735,26.858c0.575,3.264,3.688,5.442,6.95,4.867l19.842-3.499h-11.615
		C2540.009,737.245,2535.523,732.759,2535.523,727.245z"/>
	<path fill="#414C52" d="M2066.802,955.202c-0.751,3.511-4.205,5.748-7.716,4.997c-3.51-0.751-5.667-4.189-4.996-7.716
		c1.17-6.147-2.302-4.793-2.069-7.916c0.165-2.203,2.855-3.582,4.836-2.605c4.123,2.034-0.905,4.191,4.947,5.524
		C2065.305,948.285,2067.553,951.693,2066.802,955.202z M2111.733,948.755c-2.209,0-4,1.79-4,4c0,2.209,1.791,4,4,4
		c2.21,0,4-1.791,4-4C2115.733,950.545,2113.943,948.755,2111.733,948.755z M2071.518,912.781c2.292-0.53,3.676-3.004,3.092-5.525
		c-0.583-2.52-2.913-4.135-5.205-3.605c-2.292,0.53-3.677,3.005-3.094,5.525C2066.896,911.698,2069.226,913.311,2071.518,912.781z
		 M2110.68,927.348c0.694-5.791-4.417-11.321-10.097-10.002c-8.773,2.037-6.572-7.194-14.481-6.816
		c-8.86,0.423-6.255,9.682-14.891,9.319c-5.336-0.224-5.311-4.127-9.672-5.042c-3.718-0.781-8.169,2.78-8.169,6.579
		c0,5.493,6.034,4.148,5.555,7.903c-1.158,9.062,8.743,3.296,8.835,9.909c0.092,6.613,3.507,9.755,9.14,9.755
		c9.471,0,9.346,4.89,16.243,4.89c7.539,0,14.149-5.573,13.224-13.055C2105.549,934.179,2110.022,932.84,2110.68,927.348z"/>
	<g>
		<text transform="matrix(1 0 0 1 1577.3535 1018.3027)" fill="#414C52" font-family="'ApexRounded-Medium'" font-size="22">Upload</text>
	</g>
	<g>
		<text transform="matrix(1 0 0 1 1748.0845 1018.3027)" fill="#C4CBCC" font-family="'ApexRounded-Medium'" font-size="22">asdf</text>
	</g>
	<g>
		<text transform="matrix(1 0 0 1 1900.2363 1018.3027)" fill="#414C52" font-family="'ApexRounded-Medium'" font-size="22">Close</text>
	</g>
	<g>
		<text transform="matrix(1 0 0 1 2052.9194 1018.3027)" fill="#414C52" font-family="'ApexRounded-Medium'" font-size="22">Messy</text>
	</g>
	<g>
		<text transform="matrix(1 0 0 1 2221.0474 1018.3027)" fill="#C4CBCC" font-family="'ApexRounded-Medium'" font-size="22">asdf</text>
	</g>
	<g>
		<text transform="matrix(1 0 0 1 2361.7729 1018.3027)" fill="#414C52" font-family="'ApexRounded-Medium'" font-size="22">Mentor</text>
	</g>
	<g>
		<text transform="matrix(1 0 0 1 2518.3252 1018.3027)" fill="#414C52" font-family="'ApexRounded-Medium'" font-size="22">To-Do</text>
	</g>
	<g>
		<text transform="matrix(1 0 0 1 2675.6313 1018.3027)" fill="#C4CBCC" font-family="'ApexRounded-Medium'" font-size="22">asdf</text>
	</g>
	<g>
		<text transform="matrix(1 0 0 1 2825.3584 1018.3027)" fill="#C4CBCC" font-family="'ApexRounded-Medium'" font-size="22">asdf</text>
	</g>
	<path fill="#414C52" d="M2424.16,927.139c-0.946-11.589-10.323-21.018-22.01-22.112c-13.043-1.221-24.225,7.705-26.45,19.732
		c-0.203,1.098-0.583,2.157-1.094,3.151l-5.278,10.262c-0.669,1.301-0.303,2.894,0.867,3.772l3.138,2.355
		c0.646,0.485,1.07,1.21,1.174,2.011l1.294,9.912c0.194,1.485,1.47,2.822,2.982,2.822h5.757c1.895,0,3.828,0.659,4.965,2.161
		l4.454,5.887c0.856,1.132,2.388,1.509,3.672,0.904l18.002-8.487c1.05-0.495,1.721-1.552,1.721-2.714v-6.447
		c0-2.603,0.899-5.097,2.412-7.215C2422.946,938.678,2424.648,933.113,2424.16,927.139z M2413.408,934.578
		c-5.737,1.957-6.12-7.244-15.374-4.781c-23.22,6.18-17.474-17.957,1.253-17.957c15.07,0,18.073,12.478,18.073,16.118
		C2417.36,931.94,2414.881,934.076,2413.408,934.578z"/>
	<g>
		<text transform="matrix(1 0 0 1 1568.7124 -541.6722)" fill="#00D3A3" font-family="'ApexRounded-Medium'" font-size="64">Export Sheet</text>
	</g>
	<text transform="matrix(1 0 0 1 2496.7583 -558.6724)"><tspan x="0" y="0" fill="#F5C022" font-family="'ApexRounded-Medium'" font-size="28">Create outlines, compound paths </tspan><tspan x="105.474" y="33.6" fill="#F5C022" font-family="'ApexRounded-Medium'" font-size="28">and name each artboard</tspan></text>
	<path fill="#414C52" d="M1767.773-360.032c-4.299,0-7.797,3.498-7.797,7.797s3.498,7.797,7.797,7.797s7.797-3.498,7.797-7.797
		S1772.072-360.032,1767.773-360.032z M1793.949-374.027h-52.352c-3.314,0-6,2.686-6,6v31.583c0,3.313,2.686,6,6,6h52.352
		c3.314,0,6-2.687,6-6v-31.583C1799.949-371.341,1797.263-374.027,1793.949-374.027z M1767.773-338.438
		c-7.62,0-13.797-6.177-13.797-13.797c0-7.62,6.177-13.797,13.797-13.797s13.797,6.177,13.797,13.797
		C1781.57-344.616,1775.393-338.438,1767.773-338.438z"/>
	<path fill="#414C52" d="M2390.88-128.573l-2.583,20.863c-0.248,2.008,2.301,3.073,3.555,1.485l23.966-30.351
		c1.334-1.69,0.507-4.194-1.572-4.755l-10.424-2.814c-0.962-0.259-1.586-1.188-1.464-2.176l2.583-20.864
		c0.249-2.008-2.301-3.073-3.555-1.485l-23.965,30.35c-1.335,1.69-0.507,4.194,1.572,4.755l10.424,2.814
		C2390.378-130.49,2391.003-129.562,2390.88-128.573z"/>
	<path fill="#414C52" d="M2573.865-141.193c-10.955-4.541-5.88-12.195-9.792-22.861c-0.499-1.359-2.358-1.538-3.148-0.325
		l-6.212,9.535c-0.414,0.635-1.186,0.945-1.918,0.753c-2.063-0.54-4.164-0.859-6.266-0.859s-4.199,0.325-6.26,0.866
		c-0.733,0.193-1.506-0.117-1.92-0.752l-6.217-9.542c-0.79-1.213-2.65-1.035-3.148,0.324c-3.912,10.667,1.163,18.321-9.793,22.861
		c-0.93,0.386-1.357,1.495-0.925,2.404c6.419,13.501,23.53,10.419,23.53,18.507c0,5.818-15.377,3.264-15.377,15.011h40.217
		c0-11.747-15.377-9.193-15.377-15.011c0-8.088,17.112-5.006,23.531-18.507C2575.223-139.699,2574.796-140.808,2573.865-141.193z"/>
	<path fill="#414C52" d="M2546.702,905.013c-17.771,0-32.177,14.406-32.177,32.177s14.406,32.176,32.177,32.176
		c17.77,0,32.176-14.405,32.176-32.176S2564.472,905.013,2546.702,905.013z M2565.256,924.436l-18.995,26.936
		c-1.95,2.765-6.125,2.523-7.742-0.449l-8.064-14.822c-1.228-2.257,1.63-4.507,3.536-2.785l8.184,7.396l19.617-19.222
		C2563.778,919.544,2566.858,922.165,2565.256,924.436z"/>
	<text transform="matrix(1 0 0 1 1589.8273 1233.208)" fill="#C4CBCC" font-family="'ApexRounded-Medium'" font-size="22">asdf</text>
	<g>
		<text transform="matrix(1 0 0 1 1748.0846 1233.208)" fill="#C4CBCC" font-family="'ApexRounded-Medium'" font-size="22">asdf</text>
	</g>
	<g>
		<text transform="matrix(1 0 0 1 1905.2969 1233.208)" fill="#C4CBCC" font-family="'ApexRounded-Medium'" font-size="22">asdf</text>
	</g>
	<g>
		<text transform="matrix(1 0 0 1 2062.5005 1233.208)" fill="#C4CBCC" font-family="'ApexRounded-Medium'" font-size="22">asdf</text>
	</g>
	<g>
		<text transform="matrix(1 0 0 1 2221.0474 1233.208)" fill="#C4CBCC" font-family="'ApexRounded-Medium'" font-size="22">asdf</text>
	</g>
	<g>
		<text transform="matrix(1 0 0 1 2375.3804 1233.208)" fill="#C4CBCC" font-family="'ApexRounded-Medium'" font-size="22">asdf</text>
	</g>
	<text transform="matrix(1 0 0 1 1589.8273 1448.1133)" fill="#C4CBCC" font-family="'ApexRounded-Medium'" font-size="22">asdf</text>
	<g>
		<text transform="matrix(1 0 0 1 1748.0846 1448.1133)" fill="#C4CBCC" font-family="'ApexRounded-Medium'" font-size="22">asdf</text>
	</g>
	<g>
		<text transform="matrix(1 0 0 1 1905.2969 1448.1133)" fill="#C4CBCC" font-family="'ApexRounded-Medium'" font-size="22">asdf</text>
	</g>
	<g>
		<text transform="matrix(1 0 0 1 2062.5005 1448.1133)" fill="#C4CBCC" font-family="'ApexRounded-Medium'" font-size="22">asdf</text>
	</g>
	<g>
		<text transform="matrix(1 0 0 1 2221.0474 1448.1133)" fill="#C4CBCC" font-family="'ApexRounded-Medium'" font-size="22">asdf</text>
	</g>
	<g>
		<text transform="matrix(1 0 0 1 2375.3804 1448.1133)" fill="#C4CBCC" font-family="'ApexRounded-Medium'" font-size="22">asdf</text>
	</g>
	<text transform="matrix(1 0 0 1 1589.8273 1663.0186)" fill="#C4CBCC" font-family="'ApexRounded-Medium'" font-size="22">asdf</text>
	<g>
		<text transform="matrix(1 0 0 1 1748.0846 1663.0186)" fill="#C4CBCC" font-family="'ApexRounded-Medium'" font-size="22">asdf</text>
	</g>
	<g>
		<text transform="matrix(1 0 0 1 1905.2969 1663.0186)" fill="#C4CBCC" font-family="'ApexRounded-Medium'" font-size="22">asdf</text>
	</g>
	<g>
		<text transform="matrix(1 0 0 1 2062.5005 1663.0186)" fill="#C4CBCC" font-family="'ApexRounded-Medium'" font-size="22">asdf</text>
	</g>
	<g>
		<text transform="matrix(1 0 0 1 2221.0474 1663.0186)" fill="#C4CBCC" font-family="'ApexRounded-Medium'" font-size="22">asdf</text>
	</g>
	<g>
		<text transform="matrix(1 0 0 1 2375.3804 1663.0186)" fill="#C4CBCC" font-family="'ApexRounded-Medium'" font-size="22">asdf</text>
	</g>
	<g>
		<text transform="matrix(1 0 0 1 2525.8936 1233.208)" fill="#C4CBCC" font-family="'ApexRounded-Medium'" font-size="22">asdf</text>
	</g>
	<g>
		<text transform="matrix(1 0 0 1 2675.6313 1233.208)" fill="#C4CBCC" font-family="'ApexRounded-Medium'" font-size="22">asdf</text>
	</g>
	<g>
		<text transform="matrix(1 0 0 1 2825.3584 1233.208)" fill="#C4CBCC" font-family="'ApexRounded-Medium'" font-size="22">asdf</text>
	</g>
	<g>
		<text transform="matrix(1 0 0 1 2525.8936 1448.1133)" fill="#C4CBCC" font-family="'ApexRounded-Medium'" font-size="22">asdf</text>
	</g>
	<g>
		<text transform="matrix(1 0 0 1 2675.6313 1448.1133)" fill="#C4CBCC" font-family="'ApexRounded-Medium'" font-size="22">asdf</text>
	</g>
	<g>
		<text transform="matrix(1 0 0 1 2825.3584 1448.1133)" fill="#C4CBCC" font-family="'ApexRounded-Medium'" font-size="22">asdf</text>
	</g>
	<g>
		<text transform="matrix(1 0 0 1 2525.8936 1663.0186)" fill="#C4CBCC" font-family="'ApexRounded-Medium'" font-size="22">asdf</text>
	</g>
	<g>
		<text transform="matrix(1 0 0 1 2675.6313 1663.0186)" fill="#C4CBCC" font-family="'ApexRounded-Medium'" font-size="22">asdf</text>
	</g>
	<g>
		<text transform="matrix(1 0 0 1 2825.3584 1663.0186)" fill="#C4CBCC" font-family="'ApexRounded-Medium'" font-size="22">asdf</text>
	</g>
	<g>
		<text transform="matrix(1 0 0 1 2525.8936 1877.9238)" fill="#C4CBCC" font-family="'ApexRounded-Medium'" font-size="22">asdf</text>
	</g>
	<g>
		<text transform="matrix(1 0 0 1 2675.6313 1877.9238)" fill="#C4CBCC" font-family="'ApexRounded-Medium'" font-size="22">asdf</text>
	</g>
	<g>
		<text transform="matrix(1 0 0 1 2825.3584 1877.9238)" fill="#C4CBCC" font-family="'ApexRounded-Medium'" font-size="22">asdf</text>
	</g>
	<g>
		<text transform="matrix(1 0 0 1 2525.8936 2092.8291)" fill="#C4CBCC" font-family="'ApexRounded-Medium'" font-size="22">asdf</text>
	</g>
	<g>
		<text transform="matrix(1 0 0 1 2675.6313 2092.8291)" fill="#C4CBCC" font-family="'ApexRounded-Medium'" font-size="22">asdf</text>
	</g>
	<g>
		<text transform="matrix(1 0 0 1 2825.3584 2092.8291)" fill="#C4CBCC" font-family="'ApexRounded-Medium'" font-size="22">asdf</text>
	</g>
	<text transform="matrix(1 0 0 1 1886.5654 1877.9244)" fill="#414C52" font-family="'ApexRounded-Medium'" font-size="22">Building</text>
	<text transform="matrix(1 0 0 1 2040.2012 1877.9244)" fill="#414C52" font-family="'ApexRounded-Medium'" font-size="22">Business</text>
	<text transform="matrix(1 0 0 1 2187.2485 1877.9244)" fill="#414C52" font-family="'ApexRounded-Medium'" font-size="22">Citizenship</text>
	<text transform="matrix(1 0 0 1 1555.674 2092.8845)" fill="#414C52" font-family="'ApexRounded-Medium'" font-size="22">Engineering</text>
	<text transform="matrix(1 0 0 1 1724.0387 2092.8845)" fill="#414C52" font-family="'ApexRounded-Medium'" font-size="22">Exploring</text>
	<text transform="matrix(1 0 0 1 1887.0479 2092.8845)" fill="#414C52" font-family="'ApexRounded-Medium'" font-size="22">Growing</text>
	<text transform="matrix(1 0 0 1 2045.5825 2092.8845)" fill="#414C52" font-family="'ApexRounded-Medium'" font-size="22">Hacking</text>
	<text transform="matrix(1 0 0 1 2188.0718 2092.8845)" fill="#414C52" font-family="'ApexRounded-Medium'" font-size="22">Philosophy</text>
	<text transform="matrix(1 0 0 1 1726.3268 1877.9244)" fill="#414C52" font-family="'ApexRounded-Medium'" font-size="22">Athletics</text>
	<text transform="matrix(1 0 0 1 1596.3615 1877.9244)" fill="#414C52" font-family="'ApexRounded-Medium'" font-size="22">Art</text>
	<g>
		<path fill="#414C52" d="M1635.493,1767.142l-33.76,28.389c-7.642,6.397,2.783,16.822,9.18,9.18l28.389-33.761
			C1641.754,1768.019,1638.423,1764.689,1635.493,1767.142z M1585.504,1809.652c-4.47,5.103,2.945,12.594-4.004,15.68
			c-0.911,0.405-0.574,1.796,0.422,1.763c4.514-0.148,10.512-1.345,15.152-5.871
			C1606.403,1812.126,1593.499,1800.526,1585.504,1809.652z"/>
	</g>
	<text transform="matrix(1 0 0 1 2364.3921 1877.9244)" fill="#414C52" font-family="'ApexRounded-Medium'" font-size="22">Design</text>
	<text transform="matrix(1 0 0 1 2359.8589 2092.8845)" fill="#414C52" font-family="'ApexRounded-Medium'" font-size="22">Science</text>
	<path fill="#414C52" d="M1736.501,1779.582c-1.214,1.77-2.046,3.486-2.355,4.92l-0.033,0.153c-0.284,1.316,0.036,2.689,0.875,3.742
		c3.736,4.696,20.259,25.891,27.425,34.903c0.926,1.165,2.028,2.147,3.24,2.948c-2.561-2.867-4.225-6.686-6.161-11.544
		C1756.087,1806.16,1751.474,1794.605,1736.501,1779.582z M1783.746,1815.572l-0.701-5.45h-9.115c-1.104,0-2-0.896-2-2s0.896-2,2-2
		h8.6l-0.492-3.825h-8.108c-1.104,0-2-0.896-2-2s0.896-2,2-2h7.593l-0.724-5.628c-0.193-1.496-1.467-2.617-2.976-2.617h-5.743
		c-9.43,0-13.038-6.732-13.033-18.048c0.001-1.885-1.453-3.45-3.332-3.59l-0.244-0.018c-6.04-0.448-12.268,3.534-16.449,8.051
		c15.797,15.745,20.627,27.846,24.186,36.778c3.671,9.21,5.579,13.968,17.627,15.357h16.595c1.69,0,3.136-2.385,3.104-4.074
		C1800.406,1817.722,1783.746,1815.572,1783.746,1815.572z"/>
	<path fill="#414C52" d="M1955.869,1779.528l-7.46-10.363c-2.147-2.982-6.446-3.352-9.07-0.779l-45.488,44.59
		c-1.058,1.037-1.2,2.692-0.334,3.895l7.083,9.839l10.994,0.006l-2.526-5.445h10.09l-2.444-5.505h10.091l-2.444-5.505h10.09
		l-2.444-5.505h10.09l-2.444-5.505h10.09l-2.444-6.16l7.205-5.187C1957.195,1785.967,1957.805,1782.217,1955.869,1779.528z
		 M1951.242,1785.223c-0.53,0.382-1.144,0.565-1.75,0.565c-0.933,0-1.852-0.433-2.438-1.247l-6.277-8.721
		c-0.968-1.345-0.663-3.22,0.682-4.188c1.345-0.971,3.22-0.663,4.188,0.682l6.277,8.721
		C1952.891,1782.38,1952.587,1784.255,1951.242,1785.223z"/>
	<path fill="#414C52" d="M2082.196,1829.033c4.539,0,8.283-3.364,8.9-7.732l-16.828,2.994
		C2075.788,1827.115,2078.768,1829.033,2082.196,1829.033z M2073.196,1820.033c0,0.131,0.014,0.258,0.02,0.387l17.98-3.199v-2.081
		c0-0.635,0.064-1.263,0.157-1.884l-18.157,3.231V1820.033z M2079.613,1764.823c-10.407,1.15-18.79,9.529-19.944,19.936
		c-0.924,8.332,2.673,15.882,8.646,20.514c2.35,1.822,3.989,4.362,4.603,7.199l19.923-3.545c0.767-1.343,1.776-2.547,3.038-3.503
		c5.46-4.139,8.988-10.693,8.988-18.073C2104.867,1773.979,2093.29,1763.312,2079.613,1764.823z M2082.196,1777.68
		c-0.377,0-0.766,0.021-1.155,0.064c-4.408,0.488-7.963,4.04-8.451,8.446c-0.17,1.535-1.469,2.67-2.978,2.67
		c-0.11,0-0.222-0.006-0.334-0.019c-1.647-0.183-2.834-1.665-2.651-3.312c0.795-7.174,6.579-12.956,13.755-13.749
		c0.608-0.067,1.219-0.102,1.814-0.102c1.657,0,3,1.343,3,3S2083.854,1777.68,2082.196,1777.68z"/>
	<path fill="#414C52" d="M2239.408,1785.516c5.246,0,9.5-4.253,9.5-9.5s-4.254-9.5-9.5-9.5c-5.248,0-9.5,4.253-9.5,9.5
		S2234.16,1785.516,2239.408,1785.516z M2239.408,1788.609c-9.906,0-17.937,7.917-17.937,17.684v16.575c0,3.314,2.686,6,6,6h23.872
		c3.314,0,6-2.686,6-6v-16.575C2257.344,1796.526,2249.313,1788.609,2239.408,1788.609z M2207.232,1807.06v10.605
		c0,1.657,1.343,3,3,3h5.24v-14.371c0-3.843,0.941-7.469,2.589-10.681C2211.885,1796.683,2207.232,1801.4,2207.232,1807.06z
		 M2267.589,1783.455c0-4.142-3.357-7.5-7.5-7.5s-7.5,3.358-7.5,7.5c0,4.143,3.357,7.5,7.5,7.5S2267.589,1787.597,2267.589,1783.455
		z M2226.226,1783.455c0-4.142-3.357-7.5-7.5-7.5s-7.5,3.358-7.5,7.5c0,4.143,3.357,7.5,7.5,7.5
		S2226.226,1787.597,2226.226,1783.455z M2260.754,1795.612c1.649,3.213,2.589,6.838,2.589,10.681v14.371h5.24c1.657,0,3-1.343,3-3
		v-10.605C2271.583,1801.4,2266.93,1796.683,2260.754,1795.612z"/>
	<path fill="#414C52" d="M2370.831,1802.699l0.044-0.044l7.956-7.955v-15.801h15.801l8-8h-23.802v-5.383c0-2.209-1.791-4-4-4
		s-4,1.791-4,4v5.383h-5.383c-2.209,0-4,1.791-4,4s1.791,4,4,4h5.383V1802.699z M2427.8,1814.487h-5.382v-23.777l-8,8v15.777
		h-15.777l-7.97,7.971l-0.03,0.029h23.777v5.382c0,2.209,1.791,4,4,4s4-1.791,4-4v-5.382h5.382c2.209,0,4-1.791,4-4
		S2430.009,1814.487,2427.8,1814.487z M2404.514,1777.503l-29.396,29.395c-6.08,8.704-8.514,19.787-8.514,19.787l0.021,0.021
		c0,0,11.083-2.434,19.787-8.514l0.017,0.024l29.399-29.399L2404.514,1777.503z M2424.899,1779.745
		c6.099-6.1-5.217-17.412-11.315-11.312c-0.005,0.005-0.01,0.011-0.015,0.017l-4.812,4.812l11.313,11.313L2424.899,1779.745z"/>
	<path fill="#414C52" d="M1641.737,2006.716h-3v-6.792c0-3.314-2.686-6-6-6h-20.177v-4.349c2.329-0.824,4-3.04,4-5.651
		c0-3.314-2.686-6-6-6s-6,2.686-6,6c0,2.611,1.671,4.826,4,5.651v4.349h-20.176c-3.314,0-6,2.686-6,6v6.792h-3c-2.209,0-4,1.791-4,4
		v10c0,2.209,1.791,4,4,4h3v6.792c0,3.314,2.686,6,6,6h44.353c3.314,0,6-2.686,6-6v-6.792h3c2.209,0,4-1.791,4-4v-10
		C1645.737,2008.507,1643.947,2006.716,1641.737,2006.716z M1597.385,2001.925c3.866,0,7,3.134,7,7c0,3.866-3.134,7-7,7
		s-7-3.134-7-7C1590.385,2005.058,1593.519,2001.925,1597.385,2001.925z M1626.737,2029.507h-32.353c-2.209,0-4-1.791-4-4
		s1.791-4,4-4h32.353c2.209,0,4,1.791,4,4S1628.946,2029.507,1626.737,2029.507z M1623.737,2015.925c-3.866,0-7-3.134-7-7
		c0-3.866,3.134-7,7-7s7,3.134,7,7C1630.737,2012.79,1627.603,2015.925,1623.737,2015.925z"/>
	<path fill="#414C52" d="M1802.322,2030.257l-22.66-37.251c-1.25-2.055-3.366-3.082-5.482-3.082c-2.116,0-4.232,1.027-5.482,3.082
		l-12.761,20.978l-3.454-5.678c-0.625-1.028-1.683-1.541-2.741-1.541c-1.058,0-2.116,0.514-2.741,1.541l-13.354,21.951
		c-0.867,1.424,0.159,3.25,1.827,3.25h8.587h19.947h36.487C1802.163,2033.507,1803.189,2031.682,1802.322,2030.257z
		 M1751.224,2023.564c-1.5,2.466-4.997,2.551-6.647,0.27l4.31-7.085c0.39-0.64,1.319-0.64,1.709,0l2.387,3.925L1751.224,2023.564z
		 M1787.506,2017.771c-1.33,2.581-4.971,2.709-6.48,0.229l-5.174-8.506c-0.966-1.587-3.27-1.587-4.235,0l-1.191,1.959
		c-0.984,1.615-3.341,1.579-4.274-0.067l-0.778-1.372l7.097-11.667c0.779-1.281,2.638-1.281,3.417,0l11.708,19.247
		L1787.506,2017.771z"/>
	<path fill="#414C52" d="M1952.23,2011.071c-4.222-0.184-12.213-0.034-17.688,3.127c-1.406,0.812-2.644,1.823-3.731,2.933
		c1.331-4.46,1.59-10.077-1.175-16.503c-5.441-12.645-18.527-18.999-24.216-21.24c-1.54-0.607-3.27,0.135-3.894,1.668
		c-2.309,5.678-6.757,19.582-1.314,32.233c4.489,10.432,12.944,13.608,18.499,14.542c-1.222,6.734,2.192,12.332,4.877,14.857
		c0.772,0.727,1.757,1.086,2.739,1.086c1.065,0,2.128-0.423,2.915-1.26c1.514-1.609,1.436-4.141-0.174-5.654
		c-0.164-0.154-3.012-2.91-2.535-7.068c3.63,0.772,10.636,1.629,16.123-1.539c5.51-3.181,9.468-10.413,11.297-14.331
		C1954.56,2012.625,1953.662,2011.134,1952.23,2011.071z"/>
	<g>
		<g>
			<path fill="#414C52" d="M2111.372,2014.475c1.657,0,3-1.343,3-3s-1.343-3-3-3h-7.387v-5.787h7.387c1.657,0,3-1.343,3-3
				s-1.343-3-3-3h-7.387v-1.002c0-3.314-2.687-6.001-6.002-6.001h-1v-7.385c0-1.657-1.343-3-3-3s-3,1.343-3,3v7.385h-5.788v-7.385
				c0-1.657-1.343-3-3-3s-3,1.343-3,3v7.385h-5.787v-7.385c0-1.657-1.343-3-3-3s-3,1.343-3,3v7.385h-1.005
				c-3.315,0-6.002,2.687-6.002,6.001v1.002h-7.382c-1.657,0-3,1.343-3,3s1.343,3,3,3h7.382v5.787h-7.382c-1.657,0-3,1.343-3,3
				s1.343,3,3,3h7.382v5.788h-7.382c-1.657,0-3,1.343-3,3s1.343,3,3,3h7.382v1.002c0,3.315,2.687,6.002,6.002,6.002h1.005v7.385
				c0,1.657,1.343,3,3,3s3-1.343,3-3v-7.385h5.787v7.385c0,1.657,1.343,3,3,3s3-1.343,3-3v-7.385h5.788v7.385c0,1.657,1.343,3,3,3
				s3-1.343,3-3v-7.385h1c3.315,0,6.002-2.687,6.002-6.002v-1.002h7.387c1.657,0,3-1.343,3-3s-1.343-3-3-3h-7.387v-5.788H2111.372z
				 M2090.985,2007.684c-2.761,0-5-2.239-5-5s2.239-5,5-5s5,2.239,5,5S2093.746,2007.684,2090.985,2007.684z"/>
		</g>
	</g>
	<path fill="#414C52" d="M2260.69,1994.87c-2.487-6.661-8.511-11.366-15.561-11.366c-4.778,0-9.079,2.169-12.136,5.634
		c-1.629-0.946-3.516-1.497-5.536-1.497c-5.875,0-10.666,4.589-11.017,10.376c-5.224,0.879-9.209,5.411-9.209,10.885
		c0,6.104,4.948,11.051,11.051,11.051c1.493,0,2.914-0.3,4.213-0.836c1.857,3.493,5.529,5.874,9.761,5.874
		c3.629,0,6.84-1.758,8.855-4.46c1.946,3.157,5.424,5.268,9.405,5.268c5.358,0,9.824-3.815,10.834-8.876
		c5.72-0.42,10.233-5.183,10.233-11.01C2271.584,1999.864,2266.72,1994.956,2260.69,1994.87z M2240.032,2028.26
		c-2.925,0-5.296,2.372-5.296,5.296c0,2.925,2.371,5.296,5.296,5.296c2.924,0,5.296-2.371,5.296-5.296
		C2245.327,2030.631,2242.956,2028.26,2240.032,2028.26z M2228.521,2036.504c-2.242,0-4.059,1.818-4.059,4.059
		c0,2.242,1.817,4.059,4.059,4.059c2.241,0,4.059-1.817,4.059-4.059C2232.58,2038.322,2230.762,2036.504,2228.521,2036.504z"/>
	<g>
		<g>
			<path fill="#414C52" d="M2421.223,2024.596l-13.379-17.88c-1.419-2.02-2.18-4.429-2.18-6.898v-8.014
				c1.65-0.008,2.985-1.347,2.985-2.999c0-1.652-1.335-2.99-2.985-2.999v-0.001h-18.088v0.002c-1.65,0.008-2.985,1.347-2.985,2.998
				c0,1.652,1.335,2.99,2.985,2.998v8.014c0,2.469-0.761,4.877-2.18,6.898l-13.379,17.88c-3.947,5.275-0.183,12.793,6.405,12.793
				h36.396C2421.406,2037.389,2425.17,2029.871,2421.223,2024.596z M2390.198,2010.31l0.054-0.072l0.052-0.074
				c2.14-3.046,3.271-6.624,3.271-10.347v-8.012h6.088v8.012c0,3.723,1.131,7.301,3.271,10.347l0.052,0.074l0.054,0.072l4.902,6.551
				h-22.645L2390.198,2010.31z"/>
		</g>
	</g>
	<path fill="#414C52" d="M2578.93,503.488c-5.063-6.245-16.699-18.05-32.312-18.05s-27.249,11.806-32.312,18.05
		c-1.785,2.202-1.785,5.342,0,7.544c5.063,6.245,16.699,18.05,32.312,18.05s27.249-11.806,32.312-18.05
		C2580.715,508.83,2580.715,505.69,2578.93,503.488z M2546.618,521.181c-7.732,0-14-6.268-14-14c0-7.732,6.268-14,14-14
		s14,6.268,14,14C2560.618,514.913,2554.351,521.181,2546.618,521.181z M2546.618,499.181c-4.411,0-8,3.589-8,8c0,4.411,3.589,8,8,8
		s8-3.589,8-8C2554.618,502.769,2551.03,499.181,2546.618,499.181z"/>
	<path fill="none" stroke="#FFFFFF" stroke-width="6" stroke-miterlimit="10" d="M2116.035,481.178"/>
	<path fill="none" stroke="#FFFFFF" stroke-width="6" stroke-miterlimit="10" d="M2048.357,481.178"/>
	<g>
		<path fill="#414C52" d="M2108.373,485.583h-52.353c-3.314,0-6,2.687-6,6v0.014l27.896,17.666c2.6,1.645,5.96,1.646,8.562-0.001
			l27.896-17.666v-0.013C2114.373,488.27,2111.686,485.583,2108.373,485.583z M2082.196,518.491c-2.98,0-5.96-0.822-8.56-2.47
			l-23.616-14.956v22.101c0,3.314,2.686,6,6,6h52.353c3.313,0,6-2.686,6-6v-22.101l-23.615,14.956
			C2088.157,517.668,2085.175,518.491,2082.196,518.491z"/>
	</g>
	<path fill="#414C52" d="M2248.565,502.26c-3.313,0-6,2.687-6,6c0,4.839-3.938,8.776-8.776,8.776h-8.411
		c-4.839,0-8.776-3.938-8.776-8.776v-2c0-3.317,1.851-6.209,4.573-7.701c1.661-5.295,4.99-9.857,9.367-13.075h-5.164
		c-11.456,0-20.776,9.32-20.776,20.776v2c0,0.207,0.011,0.412,0.031,0.614c0.329,11.171,9.496,20.162,20.745,20.162h8.411
		c11.456,0,20.776-9.32,20.776-20.776C2254.565,504.946,2251.878,502.26,2248.565,502.26z M2274.931,505.646
		c-0.329-11.171-9.495-20.162-20.744-20.162h-8.412c-11.456,0-20.776,9.32-20.776,20.776c0,3.313,2.687,6,6,6s6-2.687,6-6
		c0-4.839,3.938-8.776,8.776-8.776h8.412c4.839,0,8.775,3.938,8.775,8.776v2c0,3.317-1.851,6.21-4.574,7.702
		c-1.661,5.295-4.99,9.857-9.367,13.074h5.165c11.456,0,20.775-9.32,20.775-20.776v-2
		C2274.962,506.052,2274.952,505.848,2274.931,505.646z"/>
	<path fill="#414C52" d="M1589.052,302.396c-6.08,8.704-8.514,19.787-8.514,19.787l0.021,0.021c0,0,11.083-2.434,19.787-8.514
		l0.017,0.023l29.398-29.398l-11.313-11.314L1589.052,302.396z M1627.518,263.93c-0.005,0.005-0.01,0.011-0.015,0.017l-4.813,4.813
		l11.313,11.313l4.83-4.83C1644.932,269.143,1633.617,257.83,1627.518,263.93z"/>
	<path fill="#414C52" d="M2696.613,694c-15.555,0-28.166,12.61-28.166,28.166c0,15.557,12.611,28.166,28.166,28.166
		c15.556,0,28.166-12.609,28.166-28.166C2724.779,706.61,2712.168,694,2696.613,694z M2699.613,742.083v-6.139c0-1.657-1.343-3-3-3
		s-3,1.343-3,3v6.139c-8.716-1.309-15.608-8.201-16.917-16.917h6.14c1.657,0,3-1.343,3-3s-1.343-3-3-3h-6.14
		c1.309-8.717,8.201-15.609,16.918-16.918v6.141c0,1.657,1.343,3,3,3s3-1.343,3-3v-6.141c8.717,1.309,15.609,8.201,16.918,16.918
		h-6.14c-1.657,0-3,1.343-3,3s1.343,3,3,3h6.14C2715.221,733.882,2708.329,740.774,2699.613,742.083z"/>
	<path fill="#414C52" d="M2701.338,529.736v6.244c0,2.339-1.117,3.457-3.506,3.457h-2.948c-2.393,0-3.51-1.118-3.51-3.457v-5.859
		c-4.085-0.286-8.166-1.026-10.271-1.772c-2.678-0.865-3.283-2.852-3.283-4.753v-3.544c0-2.765,1.987-4.84,5.444-3.978
		c2.331,0.695,6.049,1.817,11.236,1.817c3.109,0,4.922-0.691,4.922-2.592c0-1.991-1.383-2.509-3.457-2.679
		c-13.827-1.213-17.802-3.805-17.802-13.14c0-7.515,3.875-13.006,13.211-14.672v-6.268c0-2.339,1.117-3.457,3.51-3.457h2.948
		c2.389,0,3.506,1.118,3.506,3.457v5.833c3.435,0.194,6.941,0.662,9.059,1.367c2.595,0.778,3.461,2.852,3.461,4.757v3.54
		c0,2.765-2.248,4.84-5.705,3.978c-1.987-0.522-4.148-1.3-9.592-1.3c-3.026,0-4.839,0.696-4.839,2.596
		c0,1.987,1.382,2.505,3.37,2.679c14.171,1.122,17.802,3.631,17.802,13.136C2714.893,522.298,2711.527,528.054,2701.338,529.736z"/>
	<path fill="#414C52" d="M1626.226,938.757l-12.129-12.129c-1.951-1.953-5.119-1.953-7.07,0l-12.129,12.129
		c-1.953,1.952-1.953,5.118,0,7.07c1.951,1.953,5.119,1.953,7.07,0l3.594-3.593v22.001c0,2.762,2.238,5,5,5s5-2.238,5-5v-22.001
		l3.594,3.593c0.976,0.977,2.256,1.465,3.535,1.465s2.56-0.488,3.535-1.465C1628.179,943.875,1628.179,940.709,1626.226,938.757z
		 M1635.823,910.385h-50.521c-5.467,0-9.915,4.448-9.915,9.915v33.753c0,5.467,4.448,9.915,9.915,9.915h7.404c2.762,0,5-2.238,5-5
		s-2.238-5-5-5l-4.327,0c-1.652,0-2.99-1.338-2.993-2.989v-27.605c0.002-1.651,1.341-2.988,2.992-2.989h44.367
		c1.653,0,2.992,1.34,2.992,2.993v27.597c0,1.653-1.34,2.993-2.993,2.993l-4.327,0c-2.762,0-5,2.238-5,5s2.238,5,5,5h7.405
		c5.467,0,9.915-4.448,9.915-9.915V920.3C1645.738,914.833,1641.29,910.385,1635.823,910.385z"/>
	<path fill="#414C52" d="M1924.988,904.895c-17.771,0-32.177,14.406-32.177,32.176c0,17.771,14.406,32.177,32.177,32.177
		s32.177-14.406,32.177-32.177C1957.164,919.301,1942.758,904.895,1924.988,904.895z M1939.738,944.755
		c1.953,1.952,1.953,5.118,0,7.07c-0.976,0.977-2.256,1.465-3.535,1.465s-2.56-0.488-3.535-1.465l-7.684-7.684l-7.684,7.684
		c-0.976,0.977-2.256,1.465-3.535,1.465s-2.56-0.488-3.535-1.465c-1.953-1.952-1.953-5.118,0-7.07l7.684-7.684l-7.684-7.684
		c-1.953-1.952-1.953-5.118,0-7.07c1.951-1.953,5.119-1.953,7.07,0l7.684,7.684l7.684-7.684c1.951-1.953,5.119-1.953,7.07,0
		c1.953,1.952,1.953,5.118,0,7.07l-7.684,7.684L1939.738,944.755z"/>
</g>
<g id="Source_Artwork">
</g>
</svg>
