<?xml version="1.0" encoding="utf-8"?>
<!-- Generator: Adobe Illustrator 18.0.0, SVG Export Plug-In . SVG Version: 6.00 Build 0)  -->
<!DOCTYPE svg PUBLIC "-//W3C//DTD SVG 1.1//EN" "http://www.w3.org/Graphics/SVG/1.1/DTD/svg11.dtd">
<svg version="1.1" id="Layer_1" xmlns="http://www.w3.org/2000/svg" xmlns:xlink="http://www.w3.org/1999/xlink" x="0px" y="0px"
	 width="83.697px" height="83.698px" viewBox="2654.507 -179.296 83.697 83.698"
	 enable-background="new 2654.507 -179.296 83.697 83.698" xml:space="preserve">
<path fill="#414C52" d="M2713.533-146.953v-6.168c0-3.313-2.687-6-6-6h-37.353c-3.313,0-6,2.687-6,6v32.041
	c0,3.635,4.454,5.386,6.929,2.724l5.48-5.894h7.793v-13.702c0-4.963,4.037-9,9-9H2713.533z M2725.533-140.953h-32.15
	c-1.657,0-3,1.343-3,3v19.415c0,1.657,1.343,3,3,3h24.965l4.988,5.366c1.855,1.996,5.197,0.683,5.197-2.043v-25.738
	C2728.533-139.61,2727.189-140.953,2725.533-140.953z"/>
</svg>
