<?xml version="1.0" encoding="utf-8"?>
<!-- Generator: Adobe Illustrator 18.1.0, SVG Export Plug-In . SVG Version: 6.00 Build 0)  -->
<svg version="1.1" xmlns="http://www.w3.org/2000/svg" xmlns:xlink="http://www.w3.org/1999/xlink" x="0px" y="0px"
	 width="83.697px" height="83.698px" viewBox="1883.135 1110.128 83.697 83.698"
	 enable-background="new 1883.135 1110.128 83.697 83.698" xml:space="preserve">
<g id="Export_Sheet">
</g>
<g id="Source_Artwork">
	<path fill="#414C52" d="M1948.664,1130.303c-4.694,0-8.5,3.783-8.5,8.449c0,2.048,0.734,3.926,1.954,5.388l-4.568,8.117
		c-0.863-0.293-1.784-0.46-2.747-0.46c-1.708,0-3.296,0.506-4.628,1.368l-6.781-7.988c0.175-0.676,0.279-1.381,0.279-2.112
		c0-4.666-3.806-8.448-8.5-8.448c-4.695,0-8.5,3.783-8.5,8.448c0,1.492,0.393,2.892,1.075,4.108l-5.568,9.858
		c-0.286-0.029-0.576-0.044-0.869-0.044c-4.694,0-8.5,3.782-8.5,8.449c0,4.666,3.806,8.449,8.5,8.449c4.695,0,8.5-3.783,8.5-8.449
		c0-2.209-0.86-4.214-2.257-5.72l4.889-8.656c0.857,0.289,1.773,0.453,2.729,0.453c1.692,0,3.264-0.497,4.589-1.344l6.806,8.018
		c-0.167,0.66-0.265,1.347-0.265,2.058c0,4.666,3.806,8.449,8.5,8.449c4.695,0,8.5-3.783,8.5-8.449c0-1.484-0.388-2.877-1.063-4.089
		l5.104-9.069c0.432,0.067,0.87,0.112,1.321,0.112c4.695,0,8.5-3.782,8.5-8.449
		C1957.164,1134.086,1953.359,1130.303,1948.664,1130.303z"/>
</g>
</svg>
