<?xml version="1.0" encoding="utf-8"?>
<!-- Generator: Adobe Illustrator 18.0.0, SVG Export Plug-In . SVG Version: 6.00 Build 0)  -->
<!DOCTYPE svg PUBLIC "-//W3C//DTD SVG 1.1//EN" "http://www.w3.org/Graphics/SVG/1.1/DTD/svg11.dtd">
<svg version="1.1" xmlns="http://www.w3.org/2000/svg" xmlns:xlink="http://www.w3.org/1999/xlink" x="0px" y="0px"
	 width="83.697px" height="83.698px" viewBox="2197.559 465.411 83.697 83.698"
	 enable-background="new 2197.559 465.411 83.697 83.698" xml:space="preserve">
<g id="Export_Sheet">
	<path fill="#414C52" d="M2248.565,502.26c-3.313,0-6,2.687-6,6c0,4.839-3.938,8.776-8.776,8.776h-8.411
		c-4.839,0-8.776-3.938-8.776-8.776v-2c0-3.317,1.851-6.209,4.573-7.701c1.661-5.295,4.99-9.857,9.367-13.075h-5.164
		c-11.456,0-20.776,9.32-20.776,20.776v2c0,0.207,0.01,0.412,0.031,0.614c0.329,11.171,9.497,20.162,20.745,20.162h8.411
		c11.456,0,20.776-9.32,20.776-20.776C2254.565,504.946,2251.878,502.26,2248.565,502.26z M2274.931,505.646
		c-0.329-11.171-9.495-20.162-20.744-20.162h-8.412c-11.456,0-20.776,9.32-20.776,20.776c0,3.313,2.687,6,6,6s6-2.687,6-6
		c0-4.839,3.938-8.776,8.776-8.776h8.412c4.839,0,8.775,3.938,8.775,8.776v2c0,3.317-1.851,6.21-4.574,7.702
		c-1.661,5.295-4.99,9.857-9.367,13.074h5.165c11.456,0,20.775-9.32,20.775-20.776v-2
		C2274.962,506.052,2274.952,505.848,2274.931,505.646z"/>
</g>
<g id="Source_Artwork">
</g>
</svg>
