<?xml version="1.0" encoding="utf-8"?>
<!-- Generator: Adobe Illustrator 18.0.0, SVG Export Plug-In . SVG Version: 6.00 Build 0)  -->
<!DOCTYPE svg PUBLIC "-//W3C//DTD SVG 1.1//EN" "http://www.w3.org/Graphics/SVG/1.1/DTD/svg11.dtd">
<svg version="1.1" id="Layer_1" xmlns="http://www.w3.org/2000/svg" xmlns:xlink="http://www.w3.org/1999/xlink" x="0px" y="0px"
	 width="83.697px" height="83.698px" viewBox="2040.347 -179.296 83.697 83.698"
	 enable-background="new 2040.347 -179.296 83.697 83.698" xml:space="preserve">
<g>
	<path fill="#414C52" d="M2094.578-141.01l4.995-4.995c3.893,1.275,8.342,0.379,11.436-2.716c2.67-2.669,3.705-6.347,3.121-9.805
		c-0.122-0.729-1.043-0.993-1.565-0.471l-4.604,4.605c-0.725,0.724-1.898,0.724-2.622,0l-4.533-4.533
		c-0.724-0.724-0.724-1.897,0-2.622l4.604-4.604c0.542-0.542,0.227-1.453-0.529-1.577c-3.788-0.619-7.83,0.703-10.517,3.983
		c-2.452,2.993-3.103,7.037-1.95,10.59l-4.372,4.372L2094.578-141.01z M2070.7-131.44l-3.655,3.655
		c-3.553-1.153-7.598-0.502-10.59,1.95c-3.279,2.687-4.602,6.728-3.982,10.516c0.123,0.756,1.035,1.071,1.577,0.529l4.604-4.604
		c0.724-0.724,1.897-0.724,2.622,0l4.532,4.533c0.724,0.724,0.724,1.897,0,2.621l-4.605,4.605c-0.522,0.523-0.258,1.443,0.471,1.566
		c3.459,0.584,7.137-0.452,9.806-3.122c3.095-3.095,3.99-7.543,2.715-11.436l4.279-4.279L2070.7-131.44z M2081.912-146.75
		c-6.396-7.643-16.821,2.783-9.18,9.18l33.76,28.389c2.931,2.454,6.262-0.877,3.809-3.808L2081.912-146.75z M2056.503-151.692
		c7.994,9.127,20.898-2.474,11.57-11.572c-4.641-4.526-10.639-5.723-15.152-5.871c-0.996-0.033-1.333,1.358-0.422,1.763
		C2059.449-164.286,2052.034-156.795,2056.503-151.692z"/>
</g>
</svg>
