<?xml version="1.0" encoding="utf-8"?>
<!-- Generator: Adobe Illustrator 18.0.0, SVG Export Plug-In . SVG Version: 6.00 Build 0)  -->
<!DOCTYPE svg PUBLIC "-//W3C//DTD SVG 1.1//EN" "http://www.w3.org/Graphics/SVG/1.1/DTD/svg11.dtd">
<svg version="1.1" id="Layer_1" xmlns="http://www.w3.org/2000/svg" xmlns:xlink="http://www.w3.org/1999/xlink" x="0px" y="0px"
	 viewBox="0 0 83.7 83.7" enable-background="new 0 0 83.7 83.7" xml:space="preserve">
<g id="Layer_2">
</g>
<g id="Layer_3">
</g>
<g id="Layer_4">
</g>
<g id="Layer_5">
</g>
<g id="Layer_6">
</g>
<g id="Layer_7">
</g>
<g id="Layer_8">
</g>
<path d="M63.2,11.6H20.5c-4.9,0-8.9,4-8.9,8.9v42.7c0,4.9,4,8.9,8.9,8.9h42.7c4.9,0,8.9-4,8.9-8.9V20.5
	C72.1,15.6,68.1,11.6,63.2,11.6z M29.1,36.5c1.4,0,2.5,1.7,2.5,3.8c0,2.1-1.1,3.8-2.5,3.8c-1.4,0-2.5-1.7-2.5-3.8
	C26.6,38.2,27.7,36.5,29.1,36.5z M57,49.9c-0.1,0.4-2.8,9.5-15.2,9.5c-12.4,0-15.1-9.1-15.2-9.5c-0.2-0.8-0.1-1.6,0.4-2.2
	c0.5-0.6,1.2-1,2-1h25.4c0.8,0,1.5,0.4,2,1C57.1,48.3,57.2,49.1,57,49.9z M54.6,44.1c-1.4,0-2.5-1.7-2.5-3.8c0-2.1,1.1-3.8,2.5-3.8
	c1.4,0,2.5,1.7,2.5,3.8C57.1,42.4,56,44.1,54.6,44.1z"/>
</svg>
