<?xml version="1.0" encoding="utf-8"?>
<!-- Generator: Adobe Illustrator 18.1.0, SVG Export Plug-In . SVG Version: 6.00 Build 0)  -->
<svg version="1.1" xmlns="http://www.w3.org/2000/svg" xmlns:xlink="http://www.w3.org/1999/xlink" x="0px" y="0px"
	 width="83.697px" height="83.698px" viewBox="2504.769 895.223 83.697 83.698"
	 enable-background="new 2504.769 895.223 83.697 83.698" xml:space="preserve">
<g id="Export_Sheet">
	<rect x="1399.306" y="-690.313" fill="#FFFFFF" width="1675.998" height="2973.516"/>
</g>
<g id="Source_Artwork">
	<path fill="#414C52" d="M2568.419,909.397h-43.583c-3.313,0-6,2.686-6,6v43.583c0,3.314,2.687,6,6,6h43.583c3.314,0,6-2.686,6-6
		v-43.583C2574.419,912.084,2571.733,909.397,2568.419,909.397z M2537.265,932.014c1.273,0,2.32,1.572,2.32,3.519
		c0,1.945-1.047,3.517-2.32,3.517c-1.272,0-2.32-1.572-2.32-3.517C2534.945,933.586,2535.993,932.014,2537.265,932.014z
		 M2557.681,944.774c-0.06,0.299-2.036,6.945-11.076,6.945c-9.101,0-11.076-6.645-11.136-6.945c-0.18-0.539-0.06-1.138,0.299-1.617
		c0.359-0.479,0.898-0.719,1.497-0.719h18.62c0.598,0,1.137,0.24,1.497,0.719C2557.741,943.636,2557.86,944.235,2557.681,944.774z
		 M2555.885,939.049c-1.273,0-2.32-1.572-2.32-3.517c0-1.947,1.047-3.519,2.32-3.519c1.272,0,2.32,1.572,2.32,3.519
		C2558.205,937.477,2557.156,939.049,2555.885,939.049z"/>
</g>
</svg>
