<?xml version="1.0" encoding="utf-8"?>
<!-- Generator: Adobe Illustrator 18.0.0, SVG Export Plug-In . SVG Version: 6.00 Build 0)  -->
<!DOCTYPE svg PUBLIC "-//W3C//DTD SVG 1.1//EN" "http://www.w3.org/Graphics/SVG/1.1/DTD/svg11.dtd">
<svg version="1.1" xmlns="http://www.w3.org/2000/svg" xmlns:xlink="http://www.w3.org/1999/xlink" x="0px" y="0px"
	 width="83.697px" height="83.698px" viewBox="2040.347 895.223 83.697 83.698"
	 enable-background="new 2040.347 895.223 83.697 83.698" xml:space="preserve">
<g id="Layer_1">
	<path d="M2066.802,955.202c-0.751,3.511-4.205,5.748-7.716,4.997c-3.51-0.751-5.667-4.189-4.996-7.716
		c1.17-6.147-2.302-4.793-2.069-7.916c0.165-2.203,2.855-3.582,4.836-2.605c4.123,2.034-0.905,4.191,4.947,5.524
		C2065.305,948.285,2067.553,951.693,2066.802,955.202z M2111.733,948.755c-2.209,0-4,1.79-4,4c0,2.209,1.791,4,4,4
		c2.21,0,4-1.791,4-4C2115.733,950.545,2113.943,948.755,2111.733,948.755z M2071.518,912.781c2.292-0.53,3.676-3.004,3.092-5.525
		c-0.583-2.52-2.913-4.135-5.205-3.605c-2.292,0.53-3.677,3.005-3.093,5.525C2066.896,911.698,2069.226,913.311,2071.518,912.781z
		 M2110.68,927.348c0.693-5.791-4.417-11.321-10.097-10.002c-8.773,2.037-6.572-7.194-14.481-6.816
		c-8.86,0.423-6.255,9.682-14.891,9.319c-5.336-0.224-5.311-4.127-9.672-5.042c-3.719-0.781-8.169,2.78-8.169,6.579
		c0,5.493,6.034,4.148,5.554,7.903c-1.157,9.062,8.743,3.296,8.835,9.909c0.092,6.613,3.507,9.755,9.14,9.755
		c9.471,0,9.346,4.89,16.243,4.89c7.539,0,14.149-5.573,13.223-13.055C2105.549,934.179,2110.022,932.84,2110.68,927.348z"/>
</g>
<g id="Layer_2">
</g>
<g id="Layer_3">
</g>
<g id="Layer_4">
</g>
<g id="Layer_5">
</g>
<g id="Layer_6">
</g>
<g id="Layer_7">
</g>
<g id="Layer_8">
</g>
</svg>
