<?xml version="1.0" encoding="utf-8"?>
<!-- Generator: Adobe Illustrator 18.0.0, SVG Export Plug-In . SVG Version: 6.00 Build 0)  -->
<!DOCTYPE svg PUBLIC "-//W3C//DTD SVG 1.1//EN" "http://www.w3.org/Graphics/SVG/1.1/DTD/svg11.dtd">
<svg version="1.1" xmlns="http://www.w3.org/2000/svg" xmlns:xlink="http://www.w3.org/1999/xlink" x="0px" y="0px"
	 width="83.697px" height="83.698px" viewBox="2654.507 250.505 83.697 83.698"
	 enable-background="new 2654.507 250.505 83.697 83.698" xml:space="preserve">
<g id="Export_Sheet">
	<path fill="#414C52" d="M2676.356,286.354c-3.313,0-6,2.687-6,6c0,3.315,2.687,6,6,6s6-2.685,6-6
		C2682.356,289.04,2679.669,286.354,2676.356,286.354z M2696.356,286.354c-3.313,0-6,2.687-6,6c0,3.315,2.687,6,6,6s6-2.685,6-6
		C2702.356,289.04,2699.669,286.354,2696.356,286.354z M2716.356,286.354c-3.313,0-6,2.687-6,6c0,3.315,2.687,6,6,6s6-2.685,6-6
		C2722.356,289.04,2719.669,286.354,2716.356,286.354z M2847.488-148.612c-0.501-1.261-2.287-1.261-2.788,0l-8.001,20.139
		c-0.515,1.296,0.862,2.531,2.095,1.88l6.366-3.366c0.584-0.309,1.284-0.309,1.869,0l6.365,3.366
		c1.232,0.651,2.609-0.584,2.096-1.88L2847.488-148.612z M2881.783-138.446l-5.479-4.912c-2.424-12.16-12.021-21.757-24.182-24.18
		l-4.912-5.479c-0.596-0.665-1.638-0.665-2.233,0l-4.912,5.479c-12.16,2.423-21.759,12.021-24.181,24.18l-5.479,4.912
		c-0.665,0.596-0.665,1.637,0,2.233l5.479,4.912c2.422,12.16,12.02,21.757,24.181,24.181l4.912,5.48
		c0.596,0.664,1.638,0.664,2.233,0l4.912-5.48c12.161-2.423,21.758-12.021,24.182-24.181l5.479-4.912
		C2882.447-136.809,2882.447-137.85,2881.783-138.446z M2846.094-115.546c-12.012,0-21.784-9.771-21.784-21.783
		c0-12.012,9.772-21.784,21.784-21.784c12.011,0,21.784,9.773,21.784,21.784C2867.878-125.317,2858.105-115.546,2846.094-115.546z"
		/>
</g>
<g id="Source_Artwork">
</g>
</svg>
