<?xml version="1.0" encoding="utf-8"?>
<!-- Generator: Adobe Illustrator 18.1.0, SVG Export Plug-In . SVG Version: 6.00 Build 0)  -->
<svg version="1.1" xmlns="http://www.w3.org/2000/svg" xmlns:xlink="http://www.w3.org/1999/xlink" x="0px" y="0px"
	 width="83.697px" height="83.698px" viewBox="2197.559 1110.128 83.697 83.698"
	 enable-background="new 2197.559 1110.128 83.697 83.698" xml:space="preserve">
<g id="Export_Sheet">
	<path id="More_Info" fill="#414C52" d="M2262.859,1119.801h-46.903c-3.314,0-6,2.686-6,6v52.353c0,3.314,2.686,6,6,6h46.903
		c3.313,0,6-2.686,6-6v-52.353C2268.859,1122.487,2266.173,1119.801,2262.859,1119.801z M2252.417,1161.751h-26.02
		c-2.762,0-5-2.238-5-5s2.238-5,5-5h26.02c2.762,0,5,2.238,5,5S2255.179,1161.751,2252.417,1161.751z M2252.417,1142.662h-26.02
		c-2.762,0-5-2.238-5-5s2.238-5,5-5h26.02c2.762,0,5,2.238,5,5S2255.179,1142.662,2252.417,1142.662z"/>
</g>
<g id="Source_Artwork">
</g>
</svg>
