<?xml version="1.0" encoding="utf-8"?>
<!-- Generator: Adobe Illustrator 18.0.0, SVG Export Plug-In . SVG Version: 6.00 Build 0)  -->
<!DOCTYPE svg PUBLIC "-//W3C//DTD SVG 1.1//EN" "http://www.w3.org/Graphics/SVG/1.1/DTD/svg11.dtd">
<svg version="1.1" id="Layer_1" xmlns="http://www.w3.org/2000/svg" xmlns:xlink="http://www.w3.org/1999/xlink" x="0px" y="0px"
	 width="83.697px" height="83.698px" viewBox="2197.559 35.545 83.697 83.698"
	 enable-background="new 2197.559 35.545 83.697 83.698" xml:space="preserve">
<g>
	<path fill="#414C52" d="M2254.746,98.731c-1.535,0-3.071-0.586-4.242-1.757L2219.828,66.3c-2.344-2.344-2.344-6.143-0.001-8.485
		c2.344-2.344,6.144-2.343,8.485-0.001l30.676,30.675c2.344,2.344,2.344,6.143,0.001,8.485
		C2257.817,98.146,2256.281,98.731,2254.746,98.731z"/>
	<path fill="#414C52" d="M2224.423,98.378c-1.536,0-3.071-0.586-4.243-1.758c-2.343-2.343-2.343-6.142,0.001-8.485l29.969-29.968
		c2.343-2.343,6.143-2.342,8.485,0.001s2.343,6.142-0.001,8.485l-29.969,29.968C2227.495,97.792,2225.958,98.378,2224.423,98.378z"
		/>
</g>
</svg>
