<?xml version="1.0" encoding="utf-8"?>
<!-- Generator: Adobe Illustrator 18.0.0, SVG Export Plug-In . SVG Version: 6.00 Build 0)  -->
<!DOCTYPE svg PUBLIC "-//W3C//DTD SVG 1.1//EN" "http://www.w3.org/Graphics/SVG/1.1/DTD/svg11.dtd">
<svg version="1.1" xmlns="http://www.w3.org/2000/svg" xmlns:xlink="http://www.w3.org/1999/xlink" x="0px" y="0px"
	 width="83.697px" height="83.698px" viewBox="1725.924 465.411 83.697 83.698"
	 enable-background="new 1725.924 465.411 83.697 83.698" xml:space="preserve">
<g id="Export_Sheet">
	<path fill="#414C52" d="M1794.949,480.586h-19.213c-2.762,0-5,2.238-5,5s2.238,5,5,5h7.143l-16.641,16.641
		c-1.953,1.952-1.953,5.118,0,7.07c0.976,0.977,2.256,1.465,3.535,1.465s2.56-0.488,3.535-1.465l16.641-16.641v7.143
		c0,2.762,2.238,5,5,5s5-2.238,5-5v-19.213C1799.949,482.824,1797.71,480.586,1794.949,480.586z M1794.949,516.799
		c-2.762,0-5,2.238-5,5v1.37c0,0.552-0.448,1-1,1h-42.352c-0.552,0-1-0.448-1-1v-31.583c0-0.552,0.448-1,1-1h12.139
		c2.762,0,5-2.238,5-5s-2.238-5-5-5h-12.139c-6.065,0-11,4.935-11,11v31.583c0,6.065,4.935,11,11,11h42.352c6.065,0,11-4.935,11-11
		v-1.37C1799.949,519.037,1797.71,516.799,1794.949,516.799z"/>
</g>
<g id="Source_Artwork">
</g>
</svg>
