<?xml version="1.0" encoding="utf-8"?>
<!-- Generator: Adobe Illustrator 18.0.0, SVG Export Plug-In . SVG Version: 6.00 Build 0)  -->
<!DOCTYPE svg PUBLIC "-//W3C//DTD SVG 1.1//EN" "http://www.w3.org/Graphics/SVG/1.1/DTD/svg11.dtd">
<svg version="1.1" xmlns="http://www.w3.org/2000/svg" xmlns:xlink="http://www.w3.org/1999/xlink" x="0px" y="0px"
	 width="83.697px" height="83.698px" viewBox="2504.769 680.316 83.697 83.698"
	 enable-background="new 2504.769 680.316 83.697 83.698" xml:space="preserve">
<g id="Export_Sheet">
	<path fill="#414C52" d="M2536.248,744.836c-4.858,0-8.997-3.476-9.841-8.265l-4.368-24.774l-3.481,1.267
		c-3.113,1.133-4.719,4.576-3.586,7.69l9.328,25.628c1.133,3.114,4.576,4.72,7.689,3.586l22.527-8.199l-16.526,2.914
		C2537.416,744.785,2536.829,744.836,2536.248,744.836z M2572.794,693.973h-27.271c-3.314,0-6,2.686-6,6v27.272c0,3.313,2.686,6,6,6
		h27.271c3.314,0,6-2.687,6-6v-27.272C2578.794,696.659,2576.109,693.973,2572.794,693.973z M2535.523,727.245v-26.067l-5.046,0.89
		c-3.263,0.575-5.442,3.688-4.866,6.95l4.735,26.858c0.575,3.264,3.688,5.442,6.95,4.867l19.842-3.499h-11.615
		C2540.009,737.245,2535.523,732.759,2535.523,727.245z"/>
</g>
<g id="Source_Artwork">
</g>
</svg>
