<?xml version="1.0" encoding="utf-8"?>
<!-- Generator: Adobe Illustrator 18.0.0, SVG Export Plug-In . SVG Version: 6.00 Build 0)  -->
<!DOCTYPE svg PUBLIC "-//W3C//DTD SVG 1.1//EN" "http://www.w3.org/Graphics/SVG/1.1/DTD/svg11.dtd">
<svg version="1.1" xmlns="http://www.w3.org/2000/svg" xmlns:xlink="http://www.w3.org/1999/xlink" x="0px" y="0px"
	 width="83.697px" height="83.698px" viewBox="2504.769 680.316 83.697 83.698"
	 enable-background="new 2504.769 680.316 83.697 83.698" xml:space="preserve">
<g id="Layer_1">
	<g>
		<path fill="#FFFFFF" d="M2546.238,703.373c2.451,0,4.751,1.514,5.639,3.95l9.327,25.628c1.134,3.113-0.472,6.557-3.586,7.69
			l-25.628,9.327c-0.677,0.247-1.37,0.364-2.052,0.364c-2.45,0-4.751-1.513-5.638-3.95l-9.328-25.628
			c-1.133-3.113,0.473-6.557,3.586-7.69l25.628-9.328C2544.864,703.49,2545.556,703.373,2546.238,703.373 M2546.238,697.373
			c-1.401,0-2.782,0.244-4.104,0.726l-25.628,9.328c-6.217,2.262-9.434,9.161-7.172,15.379l9.328,25.628
			c1.718,4.723,6.25,7.898,11.276,7.898c1.401,0,2.782-0.244,4.105-0.726l25.627-9.327c3.013-1.097,5.417-3.301,6.772-6.206
			c1.355-2.905,1.497-6.164,0.4-9.176l-9.327-25.627C2555.794,700.546,2551.262,697.373,2546.238,697.373L2546.238,697.373z"/>
	</g>
	<path d="M2536.248,744.836c-4.858,0-8.997-3.476-9.841-8.265l-4.368-24.774l-3.481,1.267c-3.113,1.133-4.719,4.576-3.586,7.69
		l9.328,25.628c1.133,3.114,4.576,4.72,7.689,3.586l22.527-8.199l-16.526,2.914C2537.416,744.785,2536.829,744.836,2536.248,744.836
		z M2572.794,693.973h-27.271c-3.314,0-6,2.686-6,6v27.272c0,3.313,2.686,6,6,6h27.271c3.314,0,6-2.687,6-6v-27.272
		C2578.794,696.659,2576.109,693.973,2572.794,693.973z M2535.523,727.245v-26.067l-5.046,0.89c-3.263,0.575-5.442,3.688-4.866,6.95
		l4.735,26.858c0.575,3.264,3.688,5.442,6.95,4.867l19.842-3.499h-11.615C2540.009,737.245,2535.523,732.759,2535.523,727.245z"/>
</g>
<g id="Layer_2">
</g>
<g id="Layer_3">
</g>
<g id="Layer_4">
</g>
<g id="Layer_5">
</g>
<g id="Layer_6">
</g>
<g id="Layer_7">
</g>
<g id="Layer_8">
</g>
</svg>
