<?xml version="1.0" encoding="utf-8"?>
<!-- Generator: Adobe Illustrator 18.0.0, SVG Export Plug-In . SVG Version: 6.00 Build 0)  -->
<!DOCTYPE svg PUBLIC "-//W3C//DTD SVG 1.1//EN" "http://www.w3.org/Graphics/SVG/1.1/DTD/svg11.dtd">
<svg version="1.1" xmlns="http://www.w3.org/2000/svg" xmlns:xlink="http://www.w3.org/1999/xlink" x="0px" y="0px"
	 width="83.697px" height="83.698px" viewBox="2040.347 680.316 83.697 83.698"
	 enable-background="new 2040.347 680.316 83.697 83.698" xml:space="preserve">
<g id="Export_Sheet">
	<g>
		<path fill="#414C52" d="M2084.542,728.412h2.49c2.373,0,3.807-2.623,2.525-4.62l-9.088-14.159h0.064
			c2.188,0,3.426-2.509,2.095-4.246l-7.693-10.038c-1.201-1.566-3.562-1.566-4.763,0l-7.693,10.038
			c-1.331,1.737-0.093,4.246,2.096,4.246h0.063l-9.087,14.159c-1.282,1.997,0.152,4.62,2.524,4.62h2.491l-5.759,11.301
			c-1.017,1.995,0.433,4.361,2.673,4.361h30.146c2.24,0,3.69-2.366,2.673-4.361L2084.542,728.412z M2111.586,739.712l-3.996-7.842
			h0.729c2.372,0,3.806-2.623,2.524-4.62l-6.427-10.013h0.045c1.707,0,2.673-1.958,1.635-3.314l-6.26-8.167
			c-0.801-1.044-2.374-1.044-3.175,0l-6.259,8.167c-0.01,0.013-0.014,0.028-0.023,0.042l4.228,6.587
			c1.778,2.771,1.901,6.287,0.323,9.176c-0.48,0.878-1.093,1.654-1.807,2.31l2.521,4.948c1.144,2.243,1.277,4.783,0.453,7.087
			h12.815C2111.154,744.074,2112.604,741.708,2111.586,739.712z"/>
	</g>
</g>
<g id="Source_Artwork">
</g>
</svg>
