<?xml version="1.0" encoding="utf-8"?>
<!-- Generator: Adobe Illustrator 18.1.0, SVG Export Plug-In . SVG Version: 6.00 Build 0)  -->
<svg version="1.1" xmlns="http://www.w3.org/2000/svg" xmlns:xlink="http://www.w3.org/1999/xlink" x="0px" y="0px"
	 viewBox="2654.507 895.223 83.697 83.698" enable-background="new 2654.507 895.223 83.697 83.698" xml:space="preserve">
<g id="Export_Sheet">
	<rect x="1399.306" y="-690.313" fill="#FFFFFF" width="1675.998" height="2973.516"/>
</g>
<g id="Source_Artwork">
	<path fill="#414C52" d="M2711.977,912.593c-10.452,0-15.572,9.444-15.572,9.444s-5.119-9.444-15.572-9.444
		s-16.605,8.851-16.605,17.807c0,17.134,17.866,27.833,26.973,32.174c3.298,1.572,7.11,1.572,10.408,0
		c9.106-4.341,26.973-15.04,26.973-32.174C2728.582,921.444,2722.429,912.593,2711.977,912.593z M2687.055,932.026
		c1.273,0,2.32,1.572,2.32,3.519c0,1.945-1.047,3.517-2.32,3.517c-1.272,0-2.32-1.572-2.32-3.517
		C2684.735,933.598,2685.784,932.026,2687.055,932.026z M2707.471,944.786c-0.06,0.299-2.036,6.945-11.076,6.945
		c-9.101,0-11.076-6.645-11.136-6.945c-0.18-0.539-0.06-1.138,0.3-1.617c0.359-0.479,0.898-0.719,1.497-0.719h18.62
		c0.598,0,1.137,0.24,1.497,0.719C2707.531,943.648,2707.651,944.247,2707.471,944.786z M2705.675,939.061
		c-1.273,0-2.32-1.572-2.32-3.517c0-1.947,1.047-3.519,2.32-3.519c1.272,0,2.32,1.572,2.32,3.519
		C2707.995,937.489,2706.947,939.061,2705.675,939.061z"/>
</g>
</svg>
