<?xml version="1.0" encoding="utf-8"?>
<!-- Generator: Adobe Illustrator 18.0.0, SVG Export Plug-In . SVG Version: 6.00 Build 0)  -->
<!DOCTYPE svg PUBLIC "-//W3C//DTD SVG 1.1//EN" "http://www.w3.org/Graphics/SVG/1.1/DTD/svg11.dtd">
<svg version="1.1" id="Layer_1" xmlns="http://www.w3.org/2000/svg" xmlns:xlink="http://www.w3.org/1999/xlink" x="0px" y="0px"
	 viewBox="0 0 83.7 83.7" enable-background="new 0 0 83.7 83.7" xml:space="preserve">
<g id="Layer_2">
</g>
<g id="Layer_3">
</g>
<g id="Layer_4">
</g>
<g id="Layer_5">
</g>
<g id="Layer_6">
</g>
<g id="Layer_7">
</g>
<g id="Layer_8">
</g>
<path d="M71.2,21.2c-3-3.5-7-5.4-11.3-5.4c-5.8,0-11.6,3.5-16.9,10.2c-0.3,0.3-0.7,0.5-1.2,0.5c-0.4,0-0.9-0.2-1.1-0.6
	c-4.6-6.4-10.1-9.8-15.8-9.8c-9.6,0-17,9.5-17,17.7c0,20.5,24.1,34.2,33.9,34.2h0c8.5,0,33.9-13.9,33.9-34.3
	C75.8,29.1,74.1,24.6,71.2,21.2z M29.7,34.8c1.3,0,2.4,1.6,2.4,3.6c0,2-1.1,3.6-2.4,3.6c-1.3,0-2.4-1.6-2.4-3.6
	C27.3,36.4,28.4,34.8,29.7,34.8z M56.3,47.6c-0.1,0.4-2.6,9-14.4,9c-11.8,0-14.3-8.7-14.4-9c-0.2-0.7-0.1-1.5,0.4-2.1
	c0.5-0.6,1.2-1,1.9-1h24.2c0.8,0,1.5,0.4,1.9,1C56.3,46.1,56.5,46.8,56.3,47.6z M53.9,42.1c-1.3,0-2.4-1.6-2.4-3.6
	c0-2,1.1-3.6,2.4-3.6c1.3,0,2.4,1.6,2.4,3.6C56.4,40.5,55.3,42.1,53.9,42.1z"/>
</svg>
