<?xml version="1.0" encoding="utf-8"?>
<!-- Generator: Adobe Illustrator 18.0.0, SVG Export Plug-In . SVG Version: 6.00 Build 0)  -->
<!DOCTYPE svg PUBLIC "-//W3C//DTD SVG 1.1//EN" "http://www.w3.org/Graphics/SVG/1.1/DTD/svg11.dtd">
<svg version="1.1" xmlns="http://www.w3.org/2000/svg" xmlns:xlink="http://www.w3.org/1999/xlink" x="0px" y="0px"
	 width="83.697px" height="83.698px" viewBox="1725.916 -394.202 83.697 83.698"
	 enable-background="new 1725.916 -394.202 83.697 83.698" xml:space="preserve">
<g id="Export_Sheet">
	<path fill="#414C52" d="M1767.773-360.032c-4.299,0-7.797,3.498-7.797,7.797s3.498,7.797,7.797,7.797s7.797-3.498,7.797-7.797
		S1772.072-360.032,1767.773-360.032z M1793.949-374.027h-52.352c-3.314,0-6,2.686-6,6v31.583c0,3.313,2.686,6,6,6h52.352
		c3.314,0,6-2.687,6-6v-31.583C1799.949-371.341,1797.263-374.027,1793.949-374.027z M1767.773-338.438
		c-7.62,0-13.797-6.177-13.797-13.797c0-7.62,6.177-13.797,13.797-13.797s13.797,6.177,13.797,13.797
		C1781.57-344.616,1775.393-338.438,1767.773-338.438z"/>
</g>
<g id="Source_Artwork">
</g>
</svg>
