<?xml version="1.0" encoding="utf-8"?>
<!-- Generator: Adobe Illustrator 18.0.0, SVG Export Plug-In . SVG Version: 6.00 Build 0)  -->
<!DOCTYPE svg PUBLIC "-//W3C//DTD SVG 1.1//EN" "http://www.w3.org/Graphics/SVG/1.1/DTD/svg11.dtd">
<svg version="1.1" xmlns="http://www.w3.org/2000/svg" xmlns:xlink="http://www.w3.org/1999/xlink" x="0px" y="0px"
	 width="83.697px" height="83.698px" viewBox="1725.924 680.316 83.697 83.698"
	 enable-background="new 1725.924 680.316 83.697 83.698" xml:space="preserve">
<g id="Export_Sheet">
	<path fill="#414C52" d="M1748.042,699.987c-0.021-0.003-0.039-0.011-0.06-0.014l-10.142,45.752
		c-0.524,2.368,1.832,4.348,4.074,3.422l46.095-19.022c-0.003-0.007-0.008-0.012-0.011-0.019
		C1781.369,713.969,1766.058,702.429,1748.042,699.987z M1753.269,737.113c-2.762-0.029-4.976-2.292-4.946-5.053
		c0.029-2.762,2.292-4.976,5.054-4.946c2.761,0.029,4.976,2.292,4.945,5.054C1758.292,734.929,1756.03,737.143,1753.269,737.113z
		 M1756.779,720.621c-3.312-0.036-5.971-2.751-5.935-6.065c0.035-3.313,2.751-5.971,6.063-5.935
		c3.314,0.036,5.971,2.751,5.936,6.064C1762.808,717.999,1760.093,720.656,1756.779,720.621z M1771.415,730.165
		c-2.761-0.029-4.976-2.292-4.946-5.054c0.03-2.761,2.293-4.976,5.054-4.945c2.762,0.029,4.976,2.292,4.946,5.053
		C1776.439,727.98,1774.176,730.194,1771.415,730.165z M1798.04,718.711c-8.584-15.588-23.817-26.747-41.257-30.785
		c-3.222-0.745-6.426,1.338-7.142,4.566l-0.792,3.573c19.307,2.71,35.711,15.149,42.85,32.521c0.002,0.005,0.002,0.01,0.004,0.014
		l3.39-1.399C1798.42,725.828,1799.777,721.865,1798.04,718.711z"/>
</g>
<g id="Source_Artwork">
</g>
</svg>
