<?xml version="1.0" encoding="utf-8"?>
<!-- Generator: Adobe Illustrator 18.0.0, SVG Export Plug-In . SVG Version: 6.00 Build 0)  -->
<!DOCTYPE svg PUBLIC "-//W3C//DTD SVG 1.1//EN" "http://www.w3.org/Graphics/SVG/1.1/DTD/svg11.dtd">
<svg version="1.1" xmlns="http://www.w3.org/2000/svg" xmlns:xlink="http://www.w3.org/1999/xlink" x="0px" y="0px"
	 width="83.697px" height="83.698px" viewBox="1883.135 1969.749 83.697 83.698"
	 enable-background="new 1883.135 1969.749 83.697 83.698" xml:space="preserve">
<g id="Export_Sheet">
	<path fill="#414C52" d="M1952.23,2011.071c-4.222-0.184-12.213-0.034-17.688,3.127c-1.406,0.812-2.644,1.823-3.731,2.933
		c1.331-4.46,1.59-10.077-1.175-16.503c-5.441-12.645-18.527-18.999-24.216-21.24c-1.54-0.607-3.27,0.135-3.894,1.668
		c-2.309,5.678-6.757,19.582-1.314,32.233c4.489,10.432,12.944,13.608,18.499,14.542c-1.222,6.734,2.192,12.332,4.877,14.857
		c0.772,0.727,1.757,1.086,2.739,1.086c1.065,0,2.128-0.423,2.915-1.26c1.514-1.609,1.436-4.141-0.174-5.654
		c-0.164-0.154-3.012-2.91-2.535-7.068c3.63,0.772,10.636,1.629,16.123-1.539c5.51-3.181,9.468-10.413,11.297-14.331
		C1954.56,2012.625,1953.662,2011.134,1952.23,2011.071z"/>
</g>
<g id="Source_Artwork">
</g>
</svg>
