<?xml version="1.0" encoding="utf-8"?>
<!-- Generator: Adobe Illustrator 18.0.0, SVG Export Plug-In . SVG Version: 6.00 Build 0)  -->
<!DOCTYPE svg PUBLIC "-//W3C//DTD SVG 1.1//EN" "http://www.w3.org/Graphics/SVG/1.1/DTD/svg11.dtd">
<svg version="1.1" id="Layer_1" xmlns="http://www.w3.org/2000/svg" xmlns:xlink="http://www.w3.org/1999/xlink" x="0px" y="0px"
	 width="83.697px" height="83.698px" viewBox="2040.347 1754.844 83.697 83.698"
	 enable-background="new 2040.347 1754.844 83.697 83.698" xml:space="preserve">
<g>
	<path fill="#414C52" d="M2074.269,1824.294c1.52,2.821,4.499,4.738,7.927,4.738c4.539,0,8.283-3.364,8.9-7.732L2074.269,1824.294z"
		/>
	<path fill="#414C52" d="M2073.215,1820.42l17.98-3.199v-2.081c0-0.635,0.064-1.263,0.156-1.884l-18.156,3.231v3.547
		C2073.196,1820.163,2073.21,1820.29,2073.215,1820.42z"/>
	<path fill="#414C52" d="M2079.613,1764.823c-10.407,1.15-18.79,9.529-19.944,19.936c-0.924,8.332,2.672,15.882,8.646,20.514
		c2.35,1.822,3.989,4.362,4.603,7.199l19.924-3.545c0.767-1.343,1.776-2.547,3.038-3.503c5.46-4.139,8.988-10.693,8.988-18.073
		C2104.867,1773.979,2093.29,1763.311,2079.613,1764.823z M2082.196,1777.68c-0.377,0-0.766,0.021-1.155,0.064
		c-4.408,0.488-7.963,4.04-8.451,8.446c-0.17,1.535-1.469,2.67-2.978,2.67c-0.11,0-0.222-0.006-0.334-0.019
		c-1.647-0.183-2.834-1.665-2.651-3.312c0.795-7.174,6.579-12.956,13.755-13.749c0.608-0.067,1.219-0.102,1.814-0.102
		c1.657,0,3,1.343,3,3S2083.854,1777.68,2082.196,1777.68z"/>
</g>
</svg>
