<?xml version="1.0" encoding="utf-8"?>
<!-- Generator: Adobe Illustrator 18.0.0, SVG Export Plug-In . SVG Version: 6.00 Build 0)  -->
<!DOCTYPE svg PUBLIC "-//W3C//DTD SVG 1.1//EN" "http://www.w3.org/Graphics/SVG/1.1/DTD/svg11.dtd">
<svg version="1.1" xmlns="http://www.w3.org/2000/svg" xmlns:xlink="http://www.w3.org/1999/xlink" x="0px" y="0px"
	 width="83.697px" height="83.698px" viewBox="1883.135 1754.844 83.697 83.698"
	 enable-background="new 1883.135 1754.844 83.697 83.698" xml:space="preserve">
<g id="Export_Sheet">
	<path fill="#414C52" d="M1955.869,1779.528l-7.46-10.363c-2.147-2.982-6.446-3.352-9.07-0.779l-45.488,44.59
		c-1.058,1.037-1.2,2.692-0.334,3.895l7.083,9.839l10.994,0.006l-2.526-5.445h10.09l-2.444-5.505h10.091l-2.444-5.505h10.09
		l-2.444-5.505h10.09l-2.444-5.505h10.09l-2.444-6.16l7.205-5.187C1957.195,1785.967,1957.805,1782.217,1955.869,1779.528z
		 M1951.242,1785.222c-0.53,0.382-1.144,0.565-1.75,0.565c-0.933,0-1.852-0.433-2.438-1.247l-6.277-8.721
		c-0.968-1.345-0.663-3.22,0.682-4.188c1.345-0.971,3.22-0.663,4.188,0.682l6.277,8.721
		C1952.891,1782.38,1952.587,1784.255,1951.242,1785.222z"/>
</g>
<g id="Source_Artwork">
</g>
</svg>
