<?xml version="1.0" encoding="utf-8"?>
<!-- Generator: Adobe Illustrator 18.0.0, SVG Export Plug-In . SVG Version: 6.00 Build 0)  -->
<!DOCTYPE svg PUBLIC "-//W3C//DTD SVG 1.1//EN" "http://www.w3.org/Graphics/SVG/1.1/DTD/svg11.dtd">
<svg version="1.1" id="Layer_1" xmlns="http://www.w3.org/2000/svg" xmlns:xlink="http://www.w3.org/1999/xlink" x="0px" y="0px"
	 width="83.697px" height="83.698px" viewBox="1725.924 1969.749 83.697 83.698"
	 enable-background="new 1725.924 1969.749 83.697 83.698" xml:space="preserve">
<path fill="#414C52" d="M1802.322,2030.258l-22.66-37.251c-1.25-2.055-3.366-3.082-5.482-3.082c-2.116,0-4.232,1.027-5.482,3.082
	l-12.761,20.978l-3.454-5.678c-0.625-1.028-1.683-1.541-2.741-1.541c-1.058,0-2.116,0.514-2.741,1.541l-13.354,21.951
	c-0.867,1.424,0.159,3.25,1.827,3.25h8.587h19.947h36.487C1802.163,2033.508,1803.189,2031.682,1802.322,2030.258z
	 M1751.224,2023.564c-1.5,2.466-4.997,2.551-6.647,0.27l4.31-7.085c0.39-0.64,1.319-0.64,1.709,0l2.387,3.925L1751.224,2023.564z
	 M1787.506,2017.771c-1.33,2.581-4.971,2.709-6.48,0.229l-5.174-8.506c-0.966-1.587-3.27-1.587-4.235,0l-1.191,1.959
	c-0.984,1.615-3.341,1.579-4.274-0.067l-0.778-1.372l7.097-11.667c0.779-1.281,2.638-1.281,3.417,0l11.708,19.247L1787.506,2017.771
	z"/>
</svg>
