<?xml version="1.0" encoding="utf-8"?>
<!-- Generator: Adobe Illustrator 18.0.0, SVG Export Plug-In . SVG Version: 6.00 Build 0)  -->
<!DOCTYPE svg PUBLIC "-//W3C//DTD SVG 1.1//EN" "http://www.w3.org/Graphics/SVG/1.1/DTD/svg11.dtd">
<svg version="1.1" xmlns="http://www.w3.org/2000/svg" xmlns:xlink="http://www.w3.org/1999/xlink" x="0px" y="0px"
	 width="83.697px" height="83.698px" viewBox="2354.771 1754.844 83.697 83.698"
	 enable-background="new 2354.771 1754.844 83.697 83.698" xml:space="preserve">
<g id="Export_Sheet">
	<path fill="#414C52" d="M2370.831,1802.699l0.044-0.044l7.956-7.955v-15.801h15.801l8-8h-23.802v-5.383c0-2.209-1.791-4-4-4
		s-4,1.791-4,4v5.383h-5.383c-2.209,0-4,1.791-4,4s1.791,4,4,4h5.383V1802.699z M2427.8,1814.487h-5.382v-23.777l-8,8v15.777
		h-15.777l-7.97,7.971l-0.03,0.029h23.777v5.382c0,2.209,1.791,4,4,4s4-1.791,4-4v-5.382h5.382c2.209,0,4-1.791,4-4
		S2430.009,1814.487,2427.8,1814.487z M2404.514,1777.503l-29.396,29.395c-6.08,8.704-8.514,19.787-8.514,19.787l0.021,0.021
		c0,0,11.083-2.434,19.787-8.514l0.017,0.024l29.399-29.399L2404.514,1777.503z M2424.899,1779.745
		c6.099-6.1-5.217-17.412-11.315-11.312c-0.005,0.005-0.01,0.011-0.015,0.017l-4.812,4.812l11.313,11.313L2424.899,1779.745z"/>
</g>
<g id="Source_Artwork">
</g>
</svg>
