<?xml version="1.0" encoding="utf-8"?>
<!-- Generator: Adobe Illustrator 18.0.0, SVG Export Plug-In . SVG Version: 6.00 Build 0)  -->
<!DOCTYPE svg PUBLIC "-//W3C//DTD SVG 1.1//EN" "http://www.w3.org/Graphics/SVG/1.1/DTD/svg11.dtd">
<svg version="1.1" id="Layer_1" xmlns="http://www.w3.org/2000/svg" xmlns:xlink="http://www.w3.org/1999/xlink" x="0px" y="0px"
	 width="83.697px" height="83.698px" viewBox="2197.559 1969.749 83.697 83.698"
	 enable-background="new 2197.559 1969.749 83.697 83.698" xml:space="preserve">
<g>
	<path fill="#414C52" d="M2271.584,2005.914c0-6.05-4.864-10.958-10.893-11.043c-2.487-6.661-8.511-11.366-15.561-11.366
		c-4.778,0-9.079,2.169-12.136,5.634c-1.629-0.946-3.516-1.497-5.536-1.497c-5.875,0-10.666,4.589-11.017,10.376
		c-5.224,0.879-9.209,5.411-9.209,10.885c0,6.104,4.948,11.051,11.051,11.051c1.493,0,2.914-0.3,4.213-0.836
		c1.857,3.493,5.529,5.874,9.761,5.874c3.629,0,6.84-1.758,8.855-4.46c1.946,3.157,5.424,5.268,9.405,5.268
		c5.359,0,9.824-3.815,10.835-8.876C2267.071,2016.503,2271.584,2011.741,2271.584,2005.914z"/>
	<circle fill="#414C52" cx="2240.032" cy="2033.555" r="5.296"/>
	<circle fill="#414C52" cx="2228.521" cy="2040.563" r="4.059"/>
</g>
</svg>
