<?xml version="1.0" encoding="utf-8"?>
<!-- Generator: Adobe Illustrator 18.0.0, SVG Export Plug-In . SVG Version: 6.00 Build 0)  -->
<!DOCTYPE svg PUBLIC "-//W3C//DTD SVG 1.1//EN" "http://www.w3.org/Graphics/SVG/1.1/DTD/svg11.dtd">
<svg version="1.1" id="Layer_1" xmlns="http://www.w3.org/2000/svg" xmlns:xlink="http://www.w3.org/1999/xlink" x="0px" y="0px"
	 width="83.697px" height="83.698px" viewBox="1725.924 1754.844 83.697 83.698"
	 enable-background="new 1725.924 1754.844 83.697 83.698" xml:space="preserve">
<g>
	<path fill="#414C52" d="M1759.492,1814.704c-3.405-8.544-8.017-20.099-22.99-35.122c-1.214,1.77-2.046,3.486-2.355,4.92
		l-0.033,0.153c-0.284,1.316,0.036,2.689,0.875,3.742c3.736,4.696,20.259,25.891,27.425,34.903c0.926,1.165,2.027,2.147,3.24,2.948
		C1763.092,1823.381,1761.428,1819.563,1759.492,1814.704z"/>
	<path fill="#414C52" d="M1783.746,1815.572l-0.701-5.45h-9.115c-1.104,0-2-0.896-2-2s0.896-2,2-2h8.6l-0.492-3.825h-8.108
		c-1.104,0-2-0.896-2-2s0.896-2,2-2h7.593l-0.724-5.628c-0.193-1.496-1.467-2.617-2.975-2.617h-5.743
		c-9.43,0-13.038-6.732-13.033-18.048c0.001-1.885-1.453-3.45-3.332-3.59l-0.244-0.018c-6.04-0.448-12.268,3.534-16.449,8.051
		c15.797,15.745,20.627,27.846,24.186,36.778c3.671,9.21,5.578,13.968,17.627,15.357h16.595c1.69,0,3.136-2.385,3.104-4.074
		C1800.406,1817.722,1783.746,1815.572,1783.746,1815.572z"/>
</g>
</svg>
