<?xml version="1.0" encoding="utf-8"?>
<!-- Generator: Adobe Illustrator 18.0.0, SVG Export Plug-In . SVG Version: 6.00 Build 0)  -->
<!DOCTYPE svg PUBLIC "-//W3C//DTD SVG 1.1//EN" "http://www.w3.org/Graphics/SVG/1.1/DTD/svg11.dtd">
<svg version="1.1" id="Layer_1" xmlns="http://www.w3.org/2000/svg" xmlns:xlink="http://www.w3.org/1999/xlink" x="0px" y="0px"
	 width="83.697px" height="83.698px" viewBox="1568.712 1969.749 83.697 83.698"
	 enable-background="new 1568.712 1969.749 83.697 83.698" xml:space="preserve">
<path fill="#414C52" d="M1641.737,2006.716h-3v-6.792c0-3.314-2.686-6-6-6h-20.177v-4.349c2.329-0.824,4-3.04,4-5.651
	c0-3.314-2.686-6-6-6s-6,2.686-6,6c0,2.611,1.671,4.826,4,5.651v4.349h-20.176c-3.314,0-6,2.686-6,6v6.792h-3c-2.209,0-4,1.791-4,4
	v10c0,2.209,1.791,4,4,4h3v6.792c0,3.314,2.686,6,6,6h44.353c3.314,0,6-2.686,6-6v-6.792h3c2.209,0,4-1.791,4-4v-10
	C1645.737,2008.507,1643.947,2006.716,1641.737,2006.716z M1597.385,2001.925c3.866,0,7,3.134,7,7s-3.134,7-7,7s-7-3.134-7-7
	S1593.519,2001.925,1597.385,2001.925z M1626.737,2029.507h-32.353c-2.209,0-4-1.791-4-4s1.791-4,4-4h32.353c2.209,0,4,1.791,4,4
	S1628.946,2029.507,1626.737,2029.507z M1623.737,2015.925c-3.866,0-7-3.134-7-7s3.134-7,7-7s7,3.134,7,7
	S1627.603,2015.925,1623.737,2015.925z"/>
</svg>
