<?xml version="1.0" encoding="utf-8"?>
<!-- Generator: Adobe Illustrator 18.0.0, SVG Export Plug-In . SVG Version: 6.00 Build 0)  -->
<!DOCTYPE svg PUBLIC "-//W3C//DTD SVG 1.1//EN" "http://www.w3.org/Graphics/SVG/1.1/DTD/svg11.dtd">
<svg version="1.1" id="Layer_1" xmlns="http://www.w3.org/2000/svg" xmlns:xlink="http://www.w3.org/1999/xlink" x="0px" y="0px"
	 width="83.697px" height="83.698px" viewBox="2197.559 1754.844 83.697 83.698"
	 enable-background="new 2197.559 1754.844 83.697 83.698" xml:space="preserve">
<g>
	<circle fill="#414C52" cx="2239.408" cy="1776.016" r="9.5"/>
	<path fill="#414C52" d="M2239.408,1788.609c-9.906,0-17.937,7.917-17.937,17.684v16.575c0,3.314,2.686,6,6,6h23.872
		c3.314,0,6-2.686,6-6v-16.575C2257.344,1796.526,2249.313,1788.609,2239.408,1788.609z"/>
	<path fill="#414C52" d="M2207.232,1807.06v10.605c0,1.657,1.343,3,3,3h5.24v-14.371c0-3.843,0.941-7.469,2.589-10.681
		C2211.885,1796.683,2207.232,1801.4,2207.232,1807.06z"/>
	<circle fill="#414C52" cx="2260.089" cy="1783.455" r="7.5"/>
	<circle fill="#414C52" cx="2218.726" cy="1783.455" r="7.5"/>
	<path fill="#414C52" d="M2260.754,1795.612c1.649,3.213,2.589,6.838,2.589,10.681v14.371h5.24c1.657,0,3-1.343,3-3v-10.605
		C2271.583,1801.4,2266.93,1796.683,2260.754,1795.612z"/>
</g>
</svg>
