<?xml version="1.0" encoding="utf-8"?>
<!-- Generator: Adobe Illustrator 18.0.0, SVG Export Plug-In . SVG Version: 6.00 Build 0)  -->
<!DOCTYPE svg PUBLIC "-//W3C//DTD SVG 1.1//EN" "http://www.w3.org/Graphics/SVG/1.1/DTD/svg11.dtd">
<svg version="1.1" xmlns="http://www.w3.org/2000/svg" xmlns:xlink="http://www.w3.org/1999/xlink" x="0px" y="0px"
	 width="83.697px" height="83.698px" viewBox="2197.559 1969.749 83.697 83.698"
	 enable-background="new 2197.559 1969.749 83.697 83.698" xml:space="preserve">
<g id="Export_Sheet">
	<path fill="#414C52" d="M2260.69,1994.87c-2.487-6.661-8.511-11.366-15.561-11.366c-4.778,0-9.079,2.169-12.136,5.634
		c-1.629-0.946-3.516-1.497-5.536-1.497c-5.875,0-10.666,4.589-11.017,10.376c-5.224,0.879-9.209,5.411-9.209,10.885
		c0,6.104,4.948,11.051,11.051,11.051c1.493,0,2.914-0.3,4.213-0.836c1.857,3.493,5.529,5.874,9.761,5.874
		c3.629,0,6.84-1.758,8.855-4.46c1.946,3.157,5.424,5.268,9.405,5.268c5.359,0,9.824-3.815,10.835-8.876
		c5.72-0.42,10.233-5.183,10.233-11.01C2271.584,1999.864,2266.72,1994.956,2260.69,1994.87z M2240.032,2028.26
		c-2.925,0-5.296,2.372-5.296,5.296c0,2.925,2.371,5.296,5.296,5.296c2.924,0,5.296-2.371,5.296-5.296
		C2245.327,2030.631,2242.956,2028.26,2240.032,2028.26z M2228.521,2036.504c-2.242,0-4.059,1.818-4.059,4.059
		c0,2.242,1.817,4.059,4.059,4.059c2.241,0,4.059-1.817,4.059-4.059C2232.58,2038.322,2230.762,2036.504,2228.521,2036.504z"/>
</g>
<g id="Source_Artwork">
</g>
</svg>
