<?xml version="1.0" encoding="utf-8"?>
<!-- Generator: Adobe Illustrator 18.0.0, SVG Export Plug-In . SVG Version: 6.00 Build 0)  -->
<!DOCTYPE svg PUBLIC "-//W3C//DTD SVG 1.1//EN" "http://www.w3.org/Graphics/SVG/1.1/DTD/svg11.dtd">
<svg version="1.1" xmlns="http://www.w3.org/2000/svg" xmlns:xlink="http://www.w3.org/1999/xlink" x="0px" y="0px"
	 width="83.697px" height="83.698px" viewBox="2354.771 1969.749 83.697 83.698"
	 enable-background="new 2354.771 1969.749 83.697 83.698" xml:space="preserve">
<g id="Export_Sheet">
	<g>
		<g>
			<path fill="#414C52" d="M2421.223,2024.596l-13.379-17.88c-1.419-2.02-2.18-4.429-2.18-6.898v-8.014
				c1.65-0.008,2.985-1.347,2.985-2.999c0-1.652-1.335-2.99-2.985-2.999v-0.001h-18.088v0.002c-1.65,0.008-2.985,1.347-2.985,2.998
				c0,1.652,1.335,2.99,2.985,2.998v8.014c0,2.469-0.761,4.877-2.18,6.898l-13.379,17.88c-3.947,5.275-0.183,12.793,6.405,12.793
				h36.396C2421.406,2037.389,2425.17,2029.871,2421.223,2024.596z M2390.198,2010.31l0.054-0.072l0.052-0.074
				c2.14-3.046,3.271-6.624,3.271-10.347v-8.012h6.088v8.012c0,3.723,1.131,7.301,3.271,10.347l0.052,0.074l0.054,0.072l4.902,6.551
				h-22.645L2390.198,2010.31z"/>
		</g>
	</g>
</g>
<g id="Source_Artwork">
</g>
</svg>
