<?xml version="1.0" encoding="utf-8"?>
<!-- Generator: Adobe Illustrator 18.1.0, SVG Export Plug-In . SVG Version: 6.00 Build 0)  -->
<svg version="1.1" xmlns="http://www.w3.org/2000/svg" xmlns:xlink="http://www.w3.org/1999/xlink" x="0px" y="0px"
	 width="83.697px" height="83.698px" viewBox="1568.712 -394.202 83.697 83.698"
	 enable-background="new 1568.712 -394.202 83.697 83.698" xml:space="preserve">
<g id="Export_Sheet">
	<path fill="#414C52" d="M1636.738-374.027h-52.353c-3.313,0-6,2.686-6,6v31.583c0,3.313,2.687,6,6,6h52.353c3.313,0,6-2.687,6-6
		v-31.583C1642.738-371.341,1640.051-374.027,1636.738-374.027z M1632.244-338.403h-43.305c-2.416,0-3.841-2.711-2.471-4.701
		l8.184-11.886c1.088-1.581,3.36-1.747,4.667-0.342l3.473,3.732c1.287,1.383,3.518,1.247,4.626-0.284l8.82-12.177
		c1.235-1.706,3.798-1.641,4.945,0.125l13.576,20.898C1636.056-341.041,1634.624-338.403,1632.244-338.403z"/>
</g>
<g id="Source_Artwork">
</g>
</svg>
