<?xml version="1.0" encoding="utf-8"?>
<!-- Generator: Adobe Illustrator 18.0.0, SVG Export Plug-In . SVG Version: 6.00 Build 0)  -->
<!DOCTYPE svg PUBLIC "-//W3C//DTD SVG 1.1//EN" "http://www.w3.org/Graphics/SVG/1.1/DTD/svg11.dtd">
<svg version="1.1" id="Layer_1" xmlns="http://www.w3.org/2000/svg" xmlns:xlink="http://www.w3.org/1999/xlink" x="0px" y="0px"
	 width="37.073px" height="64.353px" viewBox="0 0 37.073 64.353" enable-background="new 0 0 37.073 64.353" xml:space="preserve">
<path d="M23.519,54.652v6.244c0,2.339-1.118,3.457-3.507,3.457h-2.948c-2.393,0-3.51-1.118-3.51-3.457v-5.859
	c-4.085-0.286-8.166-1.026-10.271-1.772C0.605,52.4,0,50.413,0,48.513v-3.544c0-2.765,1.987-4.84,5.444-3.978
	c2.331,0.695,6.049,1.817,11.236,1.817c3.109,0,4.922-0.691,4.922-2.592c0-1.991-1.383-2.509-3.457-2.679
	C4.318,36.325,0.344,33.733,0.344,24.398c0-7.515,3.875-13.006,13.211-14.672V3.457c0-2.339,1.118-3.457,3.51-3.457h2.948
	c2.389,0,3.507,1.118,3.507,3.457V9.29c3.434,0.194,6.941,0.662,9.059,1.367c2.596,0.778,3.461,2.852,3.461,4.757v3.54
	c0,2.765-2.248,4.84-5.705,3.978c-1.987-0.522-4.148-1.3-9.592-1.3c-3.026,0-4.839,0.696-4.839,2.596
	c0,1.987,1.382,2.505,3.37,2.679c14.171,1.122,17.802,3.631,17.802,13.136C37.073,47.214,33.708,52.971,23.519,54.652z"/>
<g>
</g>
<g>
</g>
<g>
</g>
<g>
</g>
<g>
</g>
<g>
</g>
<g>
</g>
<g>
</g>
<g>
</g>
<g>
</g>
<g>
</g>
<g>
</g>
<g>
</g>
<g>
</g>
<g>
</g>
</svg>
