<?xml version="1.0" encoding="utf-8"?>
<!-- Generator: Adobe Illustrator 18.1.0, SVG Export Plug-In . SVG Version: 6.00 Build 0)  -->
<svg version="1.1" xmlns="http://www.w3.org/2000/svg" xmlns:xlink="http://www.w3.org/1999/xlink" x="0px" y="0px"
	 width="83.697px" height="83.698px" viewBox="2040.347 1110.128 83.697 83.698"
	 enable-background="new 2040.347 1110.128 83.697 83.698" xml:space="preserve">
<g id="Export_Sheet">
	<rect x="2066.998" y="1153.502" fill="#FFFFFF" width="47.396" height="27.628"/>
	<path fill="#414C52" d="M2075.442,1140.349l2.882-7.169c0.785-1.954,3.287-2.512,4.828-1.076l8.85,8.245h12.153l-3.955-15.84
		c-0.803-3.215-4.06-5.171-7.275-4.368l-42.514,10.615c-3.215,0.803-5.171,4.06-4.368,7.275l6.251,25.035
		c0.575,2.302,2.409,3.951,4.583,4.412v-15.924c0-6.178,5.026-11.204,11.205-11.204H2075.442z M2113.493,1146.349h-45.41
		c-2.874,0-5.204,2.33-5.204,5.204v27.395c0,2.874,2.33,5.204,5.204,5.204h45.41c2.874,0,5.204-2.33,5.204-5.204v-27.395
		C2118.697,1148.679,2116.367,1146.349,2113.493,1146.349z M2108.861,1177.249h-36.072c-2.417,0-3.841-2.711-2.471-4.701
		l6.388-9.277c1.088-1.581,3.36-1.747,4.667-0.342l2.345,2.52c1.287,1.383,3.517,1.247,4.626-0.284l7.027-9.701
		c1.236-1.706,3.798-1.641,4.945,0.126l11.061,17.026C2112.674,1174.61,2111.241,1177.249,2108.861,1177.249z"/>
</g>
<g id="Source_Artwork">
</g>
</svg>
