<?xml version="1.0" encoding="utf-8"?>
<!-- Generator: Adobe Illustrator 18.0.0, SVG Export Plug-In . SVG Version: 6.00 Build 0)  -->
<!DOCTYPE svg PUBLIC "-//W3C//DTD SVG 1.1//EN" "http://www.w3.org/Graphics/SVG/1.1/DTD/svg11.dtd">
<svg version="1.1" id="Layer_1" xmlns="http://www.w3.org/2000/svg" xmlns:xlink="http://www.w3.org/1999/xlink" x="0px" y="0px"
	 width="83.697px" height="83.698px" viewBox="2354.771 35.545 83.697 83.698"
	 enable-background="new 2354.771 35.545 83.697 83.698" xml:space="preserve">
<path fill="#414C52" d="M2423.947,49.267c-0.171-2.604-3.355-3.764-5.16-1.878l-7.398,7.727c-3.933-2.599-8.439-4.133-13.228-4.438
	c-15.005-0.948-27.972,10.464-28.928,25.459c-0.956,14.994,10.465,27.971,25.459,28.928c0.577,0.036,1.152,0.055,1.727,0.055
	c8.197-0.001,16.029-3.715,21.219-10.142c1.735-2.148,1.4-5.297-0.748-7.031c-2.15-1.735-5.298-1.399-7.031,0.748
	c-3.519,4.356-8.945,6.747-14.529,6.39c-9.491-0.605-16.721-8.819-16.115-18.311c0.605-9.492,8.826-16.738,18.311-16.115
	c2.401,0.153,4.691,0.789,6.777,1.862l-7.623,7.963c-1.776,1.855-0.552,4.94,2.014,5.07l23.707,1.217
	c1.793,0.092,3.265-1.401,3.146-3.193L2423.947,49.267z"/>
</svg>
