<?xml version="1.0" encoding="utf-8"?>
<!-- Generator: Adobe Illustrator 18.0.0, SVG Export Plug-In . SVG Version: 6.00 Build 0)  -->
<!DOCTYPE svg PUBLIC "-//W3C//DTD SVG 1.1//EN" "http://www.w3.org/Graphics/SVG/1.1/DTD/svg11.dtd">
<svg version="1.1" xmlns="http://www.w3.org/2000/svg" xmlns:xlink="http://www.w3.org/1999/xlink" x="0px" y="0px"
	 width="83.697px" height="83.698px" viewBox="2504.769 250.505 83.697 83.698"
	 enable-background="new 2504.769 250.505 83.697 83.698" xml:space="preserve">
<g id="Export_Sheet">
	<path fill="#414C52" d="M2546.628,260.178c-17.771,0-32.177,14.405-32.177,32.177c0,17.77,14.406,32.176,32.177,32.176
		s32.176-14.406,32.176-32.176C2578.804,274.583,2564.399,260.178,2546.628,260.178z M2556.804,280.845c2.762,0,5,2.238,5,5
		c0,2.762-2.238,5-5,5s-5-2.238-5-5C2551.804,283.083,2554.042,280.845,2556.804,280.845z M2536.452,280.845c2.762,0,5,2.238,5,5
		c0,2.762-2.238,5-5,5c-2.761,0-5-2.238-5-5C2531.452,283.083,2533.691,280.845,2536.452,280.845z M2565.21,307.664
		c-0.591,0.639-1.396,0.962-2.202,0.962c-0.724,0-1.448-0.26-2.023-0.786c-0.24-0.215-5.148-4.5-14.367-4.5
		c-9.239,0-14.286,4.439-14.334,4.484c-1.218,1.127-3.113,1.055-4.24-0.16c-1.126-1.215-1.055-3.113,0.16-4.24
		c0.269-0.248,6.697-6.084,18.414-6.084c11.725,0,18.162,5.837,18.43,6.085C2566.263,304.551,2566.336,306.449,2565.21,307.664z"/>
</g>
<g id="Source_Artwork">
</g>
</svg>
