<?xml version="1.0" encoding="utf-8"?>
<!-- Generator: Adobe Illustrator 18.1.0, SVG Export Plug-In . SVG Version: 6.00 Build 0)  -->
<!DOCTYPE svg PUBLIC "-//W3C//DTD SVG 1.1//EN" "http://www.w3.org/Graphics/SVG/1.1/DTD/svg11.dtd">
<svg version="1.1" xmlns="http://www.w3.org/2000/svg" xmlns:xlink="http://www.w3.org/1999/xlink" x="0px" y="0px"
	 width="83.697px" height="83.698px" viewBox="1725.924 1110.128 83.697 83.698"
	 enable-background="new 1725.924 1110.128 83.697 83.698" xml:space="preserve">
<g id="Export_Sheet">
	<path id="report-bell" fill="#414C52" d="M1771.799,1181.023h-8.051c-0.971,0-1.678,0.955-1.359,1.872
		c0.775,2.228,2.893,3.827,5.385,3.827s4.61-1.599,5.385-3.827C1773.476,1181.977,1772.77,1181.023,1771.799,1181.023z
		 M1795.1,1173.195c-1.201-4.396-2.551-11.849-2.551-23.131c0-11.995-8.527-21.994-19.849-24.277
		c0.488-0.84,0.772-1.814,0.772-2.855c0-3.148-2.552-5.699-5.699-5.699s-5.699,2.552-5.699,5.699c0,1.052,0.29,2.033,0.786,2.879
		c-11.25,2.378-19.827,12.689-19.856,24.601c-0.027,11.118-1.37,18.472-2.561,22.819c-0.696,2.541,1.231,5.043,3.866,5.043h46.942
		C1793.9,1178.273,1795.797,1175.75,1795.1,1173.195z M1756.143,1154.269c0-1.947,1.048-3.519,2.32-3.519
		c1.273,0,2.32,1.572,2.32,3.519c0,1.945-1.047,3.517-2.32,3.517C1757.191,1157.786,1756.143,1156.214,1756.143,1154.269z
		 M1774.048,1170.703c-2.111,0.011-4.222,0.003-6.333,0.002s-4.222,0.014-6.333-0.005c-1.49-0.013-2.258-0.841-2.191-2.299
		c0.232-5.024,4.871-8.975,9.837-8.339c2.845,0.364,4.748,2.086,6.015,4.525c0.557,1.071,0.955,2.257,1.225,3.437
		C1776.656,1169.721,1775.787,1170.695,1774.048,1170.703z M1777.083,1157.786c-1.273,0-2.32-1.572-2.32-3.517
		c0-1.947,1.047-3.519,2.32-3.519c1.272,0,2.32,1.572,2.32,3.519C1779.403,1156.214,1778.355,1157.786,1777.083,1157.786z"/>
</g>
<g id="Source_Artwork">
</g>
</svg>
