<?xml version="1.0" encoding="utf-8"?>
<!-- Generator: Adobe Illustrator 18.0.0, SVG Export Plug-In . SVG Version: 6.00 Build 0)  -->
<!DOCTYPE svg PUBLIC "-//W3C//DTD SVG 1.1//EN" "http://www.w3.org/Graphics/SVG/1.1/DTD/svg11.dtd">
<svg version="1.1" id="Layer_1" xmlns="http://www.w3.org/2000/svg" xmlns:xlink="http://www.w3.org/1999/xlink" x="0px" y="0px"
	 width="83.697px" height="83.698px" viewBox="2504.769 -394.202 83.697 83.698"
	 enable-background="new 2504.769 -394.202 83.697 83.698" xml:space="preserve">
<circle fill="#FFFFFF" cx="2551.178" cy="-356.536" r="23.49"/>
<path fill="#414C52" d="M2551.178-380.027c-12.974,0-23.49,10.517-23.49,23.491c0,4.209,1.112,8.156,3.051,11.572l-10.279,10.279
	c-2.344,2.343-2.344,6.142-0.001,8.485c2.589,2.589,6.637,1.802,8.485,0l10.177-10.176c3.525,2.113,7.649,3.33,12.058,3.33
	c12.974,0,23.49-10.517,23.49-23.49C2574.668-369.51,2564.152-380.027,2551.178-380.027z M2551.178-339.046
	c-9.644,0-17.49-7.846-17.49-17.49c0-9.644,7.846-17.491,17.49-17.491s17.49,7.846,17.49,17.491
	C2568.668-346.892,2560.822-339.046,2551.178-339.046z"/>
</svg>
