<?xml version="1.0" encoding="utf-8"?>
<!-- Generator: Adobe Illustrator 18.0.0, SVG Export Plug-In . SVG Version: 6.00 Build 0)  -->
<!DOCTYPE svg PUBLIC "-//W3C//DTD SVG 1.1//EN" "http://www.w3.org/Graphics/SVG/1.1/DTD/svg11.dtd">
<svg version="1.1" xmlns="http://www.w3.org/2000/svg" xmlns:xlink="http://www.w3.org/1999/xlink" x="0px" y="0px"
	 width="83.697px" height="83.698px" viewBox="2354.771 465.411 83.697 83.698"
	 enable-background="new 2354.771 465.411 83.697 83.698" xml:space="preserve">
<g id="Layer_1">
	<path d="M2423.289,513.42l-3.545-2.047c0.236-1.336,0.366-2.709,0.366-4.113s-0.13-2.777-0.366-4.113l3.545-2.047
		c1.436-0.828,1.927-2.663,1.098-4.098l-5-8.66c-0.828-1.436-2.662-1.927-4.098-1.099l-3.546,2.047
		c-2.094-1.764-4.499-3.171-7.123-4.122v-4.085c0-1.657-1.343-3-3-3h-10c-1.657,0-3,1.343-3,3v4.085
		c-2.625,0.951-5.029,2.357-7.123,4.122l-3.546-2.047c-1.436-0.828-3.27-0.337-4.099,1.099l-5,8.66
		c-0.829,1.435-0.337,3.27,1.099,4.098l3.545,2.047c-0.236,1.336-0.366,2.709-0.366,4.113s0.13,2.777,0.366,4.113l-3.545,2.047
		c-1.436,0.828-1.928,2.663-1.099,4.098l5,8.66c0.829,1.436,2.663,1.927,4.099,1.099l3.546-2.047
		c2.094,1.764,4.499,3.171,7.123,4.121v4.085c0,1.657,1.343,3,3,3h10c1.657,0,3-1.343,3-3v-4.085
		c2.625-0.951,5.029-2.357,7.123-4.121l3.546,2.047c1.436,0.828,3.27,0.337,4.098-1.099l5-8.66
		C2425.215,516.083,2424.724,514.248,2423.289,513.42z M2396.62,518.75c-6.336,0-11.49-5.154-11.49-11.49s5.155-11.49,11.49-11.49
		s11.49,5.155,11.49,11.49S2402.955,518.75,2396.62,518.75z"/>
</g>
<g id="Layer_2">
</g>
<g id="Layer_3">
</g>
<g id="Layer_4">
</g>
<g id="Layer_5">
</g>
<g id="Layer_6">
</g>
<g id="Layer_7">
</g>
<g id="Layer_8">
</g>
</svg>
