<?xml version="1.0" encoding="utf-8"?>
<!-- Generator: Adobe Illustrator 18.0.0, SVG Export Plug-In . SVG Version: 6.00 Build 0)  -->
<!DOCTYPE svg PUBLIC "-//W3C//DTD SVG 1.1//EN" "http://www.w3.org/Graphics/SVG/1.1/DTD/svg11.dtd">
<svg version="1.1" id="Layer_1" xmlns="http://www.w3.org/2000/svg" xmlns:xlink="http://www.w3.org/1999/xlink" x="0px" y="0px"
	 width="83.697px" height="83.698px" viewBox="2197.559 -394.202 83.697 83.698"
	 enable-background="new 2197.559 -394.202 83.697 83.698" xml:space="preserve">
<g>
	<path fill="#414C52" d="M2270.448-372.972l-8.037-4.681c-0.931-0.542-2.081-0.543-3.014-0.003l-8.088,4.685
		c-0.927,0.537-1.497,1.526-1.497,2.596v9.337c0,1.068,0.568,2.055,1.49,2.592l8.037,4.681c0.932,0.542,2.081,0.543,3.014,0.003
		l8.089-4.685c0.926-0.537,1.496-1.526,1.496-2.596v-9.336C2271.938-371.447,2271.371-372.434,2270.448-372.972z M2243.8-361.042
		v-9.336c0-1.068-0.567-2.055-1.489-2.593l-8.038-4.681c-0.931-0.542-2.081-0.543-3.013-0.003l-8.089,4.685
		c-0.926,0.537-1.496,1.526-1.496,2.596v9.337c0,1.068,0.567,2.055,1.49,2.592l8.037,4.681c0.931,0.542,2.081,0.543,3.014,0.003
		l8.088-4.685C2243.231-358.983,2243.8-359.972,2243.8-361.042z M2256.379-349.475l-8.037-4.681
		c-0.932-0.542-2.081-0.543-3.014-0.004l-8.089,4.686c-0.926,0.537-1.496,1.525-1.496,2.596v9.337c0,1.068,0.567,2.055,1.49,2.592
		l8.037,4.681c0.931,0.542,2.081,0.544,3.014,0.004l8.089-4.686c0.926-0.536,1.496-1.525,1.496-2.596v-9.337
		C2257.87-347.951,2257.302-348.938,2256.379-349.475z M2228.242-349.475l-8.037-4.681c-0.931-0.542-2.081-0.543-3.014-0.004
		l-8.088,4.686c-0.927,0.537-1.497,1.525-1.497,2.596v9.337c0,1.068,0.568,2.055,1.491,2.592l8.037,4.681
		c0.931,0.542,2.08,0.544,3.013,0.004l8.089-4.686c0.926-0.536,1.496-1.525,1.496-2.596v-9.337
		C2229.732-347.951,2229.165-348.938,2228.242-349.475z"/>
</g>
</svg>
