<?xml version="1.0" encoding="utf-8"?>
<!-- Generator: Adobe Illustrator 18.0.0, SVG Export Plug-In . SVG Version: 6.00 Build 0)  -->
<!DOCTYPE svg PUBLIC "-//W3C//DTD SVG 1.1//EN" "http://www.w3.org/Graphics/SVG/1.1/DTD/svg11.dtd">
<svg version="1.1" xmlns="http://www.w3.org/2000/svg" xmlns:xlink="http://www.w3.org/1999/xlink" x="0px" y="0px"
	 width="83.697px" height="83.698px" viewBox="2804.246 -394.202 83.697 83.698"
	 enable-background="new 2804.246 -394.202 83.697 83.698" xml:space="preserve">
<g id="Layer_1">
	<path d="M2822.434-348.089c2.377-1.183,5.071-2.524,8.751-2.524c3.685,0,6.395,1.344,8.786,2.53
		c2.062,1.022,3.843,1.906,6.122,1.906c2.278,0,4.06-0.883,6.121-1.906c2.392-1.186,5.103-2.53,8.787-2.53
		c3.68,0,6.374,1.341,8.751,2.524c1.305,0.649,2.499,1.241,3.786,1.589c2.9-2.983,4.73-6.946,4.73-11.374
		c0-4.801-2.217-9.017-4.597-11.518c-2.428-2.55-4.799-2.648-5.916-0.153c-1.922,4.289-4.288,7.631-15.474,7.631h-12.121
		l2.552-2.552c3.819-3.819,4.381-0.138,11.112-6.87l3.001-3.002c0.797-0.796,0.797-2.088,0-2.885l-4.186-4.186
		c-0.797-0.797-2.089-0.797-2.886,0l-3.001,3.002c-6.731,6.731-2.546,6.788-6.364,10.606v0l-5.585,5.586
		c-6.887-0.906-8.789-3.794-10.374-7.331c-1.118-2.496-3.488-2.398-5.916,0.153c-2.381,2.501-4.597,6.717-4.597,11.518
		c0,4.429,1.83,8.391,4.73,11.374C2819.935-346.848,2821.129-347.44,2822.434-348.089z M2883.805-340.942
		c-0.886-1.4-2.737-1.82-4.139-0.935l-0.206,0.131c-1.055,0.67-2.051,1.303-3.55,1.303c-2.314,0-4.096-0.886-6.157-1.912
		c-2.378-1.183-5.072-2.524-8.752-2.524c-3.685,0-6.396,1.344-8.787,2.53c-2.062,1.022-3.843,1.906-6.121,1.906
		c-2.279,0-4.06-0.883-6.122-1.906c-2.392-1.186-5.102-2.53-8.786-2.53c-3.68,0-6.374,1.341-8.752,2.524
		c-2.062,1.026-3.843,1.912-6.157,1.912c-1.503,0-2.499-0.634-3.554-1.305l-0.207-0.132c-1.402-0.886-3.255-0.469-4.139,0.932
		c-0.886,1.4-0.469,3.253,0.932,4.139l0.192,0.122c1.318,0.839,3.524,2.244,6.775,2.244c3.725,0,6.438-1.35,8.831-2.541
		c2.044-1.017,3.809-1.896,6.078-1.896c2.278,0,4.059,0.883,6.12,1.906c2.393,1.186,5.103,2.53,8.788,2.53
		c3.685,0,6.396-1.344,8.787-2.53c2.062-1.022,3.843-1.906,6.121-1.906c2.27,0,4.034,0.878,6.078,1.896
		c2.394,1.191,5.106,2.541,8.831,2.541c3.244,0,5.449-1.401,6.768-2.239l0.191-0.122
		C2884.271-337.688,2884.689-339.541,2883.805-340.942z"/>
</g>
<g id="Layer_2">
</g>
<g id="Layer_3">
</g>
<g id="Layer_4">
</g>
<g id="Layer_5">
</g>
<g id="Layer_6">
</g>
<g id="Layer_7">
</g>
<g id="Layer_8">
</g>
</svg>
