<?xml version="1.0" encoding="utf-8"?>
<!-- Generator: Adobe Illustrator 18.0.0, SVG Export Plug-In . SVG Version: 6.00 Build 0)  -->
<!DOCTYPE svg PUBLIC "-//W3C//DTD SVG 1.1//EN" "http://www.w3.org/Graphics/SVG/1.1/DTD/svg11.dtd">
<svg version="1.1" xmlns="http://www.w3.org/2000/svg" xmlns:xlink="http://www.w3.org/1999/xlink" x="0px" y="0px"
	 width="83.697px" height="83.698px" viewBox="1568.712 465.411 83.697 83.698"
	 enable-background="new 1568.712 465.411 83.697 83.698" xml:space="preserve">
<g id="Export_Sheet">
	<path fill="#414C52" d="M1600.453,483.156c-0.64-1.792-1.407-2.559-3.199-2.559h-2.816c-1.792,0-2.56,0.768-3.199,2.559
		l-14.527,42.685c-0.64,1.92,0.384,3.328,1.984,3.328h2.815c1.92,0,2.688-0.767,3.264-2.624l2.752-9.087h16.639l2.752,9.087
		c0.576,1.857,1.344,2.624,3.264,2.624h2.815c1.601,0,2.624-1.408,1.984-3.328L1600.453,483.156z M1589.318,511.57l6.527-21.439
		l6.527,21.439H1589.318z M1630.784,496.403c-3.393,0-6.976,0.704-8.704,1.216c-1.344,0.384-1.792,1.152-1.792,2.368v2.367
		c0,1.088,0.896,1.92,2.305,1.473c1.216-0.385,4.159-1.28,7.679-1.28c4.736,0,6.271,1.28,6.271,4.544v1.6l-7.167,0.576
		c-7.231,0.576-11.711,3.52-11.711,10.431c0,5.12,2.751,10.239,11.007,10.239c3.52,0,7.104-1.216,9.663-3.327l0.32,0.704
		c0.576,1.344,0.96,1.855,2.304,1.855h0.704c1.344,0,2.048-0.767,2.048-2.112v-19.262
		C1643.71,501.011,1641.279,496.403,1630.784,496.403z M1636.542,521.938c-1.983,1.28-3.968,2.111-6.847,2.111
		c-3.904,0-4.928-2.304-4.928-4.735c0-3.327,1.855-4.544,5.056-4.928l6.719-0.767V521.938z"/>
</g>
<g id="Source_Artwork">
</g>
</svg>
