<?xml version="1.0" encoding="utf-8"?>
<!-- Generator: Adobe Illustrator 18.0.0, SVG Export Plug-In . SVG Version: 6.00 Build 0)  -->
<!DOCTYPE svg PUBLIC "-//W3C//DTD SVG 1.1//EN" "http://www.w3.org/Graphics/SVG/1.1/DTD/svg11.dtd">
<svg version="1.1" id="Layer_1" xmlns="http://www.w3.org/2000/svg" xmlns:xlink="http://www.w3.org/1999/xlink" x="0px" y="0px"
	 width="64.353px" height="64.353px" viewBox="0 0 64.353 64.353" enable-background="new 0 0 64.353 64.353" xml:space="preserve">
<path d="M32.177,0C14.406,0,0,14.407,0,32.177s14.406,32.176,32.177,32.176c17.77,0,32.176-14.405,32.176-32.176S49.946,0,32.177,0z
	 M48.009,43.363c-0.71,1.378-2.109,2.169-3.559,2.169c-0.617,0-1.243-0.144-1.829-0.445l-14.276-7.355
	c-1.331-0.686-2.168-2.058-2.168-3.556V17c0-2.209,1.791-4,4-4s4,1.791,4,4v14.737l12.108,6.238
	C48.249,38.988,49.021,41.4,48.009,43.363z"/>
<g>
</g>
<g>
</g>
<g>
</g>
<g>
</g>
<g>
</g>
<g>
</g>
<g>
</g>
<g>
</g>
<g>
</g>
<g>
</g>
<g>
</g>
<g>
</g>
<g>
</g>
<g>
</g>
<g>
</g>
</svg>
