<?xml version="1.0" encoding="utf-8"?>
<!-- Generator: Adobe Illustrator 18.0.0, SVG Export Plug-In . SVG Version: 6.00 Build 0)  -->
<!DOCTYPE svg PUBLIC "-//W3C//DTD SVG 1.1//EN" "http://www.w3.org/Graphics/SVG/1.1/DTD/svg11.dtd">
<svg version="1.1" id="Layer_1" xmlns="http://www.w3.org/2000/svg" xmlns:xlink="http://www.w3.org/1999/xlink" x="0px" y="0px"
	 width="83.697px" height="83.698px" viewBox="1568.712 895.223 83.697 83.698"
	 enable-background="new 1568.712 895.223 83.697 83.698" xml:space="preserve">
<g>
	<path fill="#414C52" d="M1626.226,938.757l-12.129-12.129c-1.951-1.953-5.119-1.953-7.07,0l-12.129,12.129
		c-1.953,1.952-1.953,5.118,0,7.07c1.951,1.953,5.119,1.953,7.07,0l3.594-3.593v22.001c0,2.762,2.238,5,5,5s5-2.238,5-5v-22.001
		l3.594,3.593c0.976,0.977,2.256,1.465,3.535,1.465s2.56-0.488,3.535-1.465C1628.179,943.875,1628.179,940.709,1626.226,938.757z"/>
	<path fill="#414C52" d="M1635.823,910.385h-50.521c-5.467,0-9.915,4.448-9.915,9.915v33.753c0,5.467,4.448,9.915,9.915,9.915h7.404
		c2.762,0,5-2.238,5-5s-2.238-5-5-5l-4.327,0c-1.652,0-2.99-1.338-2.993-2.989v-27.605c0.002-1.651,1.341-2.988,2.992-2.989h44.367
		c1.653,0,2.992,1.34,2.992,2.993v27.597c0,1.653-1.34,2.993-2.993,2.993l-4.327,0c-2.762,0-5,2.238-5,5s2.238,5,5,5h7.405
		c5.467,0,9.915-4.448,9.915-9.915V920.3C1645.738,914.833,1641.29,910.385,1635.823,910.385z"/>
</g>
</svg>
