<?xml version="1.0" encoding="utf-8"?>
<!-- Generator: Adobe Illustrator 18.1.0, SVG Export Plug-In . SVG Version: 6.00 Build 0)  -->
<svg version="1.1" xmlns="http://www.w3.org/2000/svg" xmlns:xlink="http://www.w3.org/1999/xlink" x="0px" y="0px"
	 width="83.697px" height="83.698px" viewBox="1568.712 895.223 83.697 83.698"
	 enable-background="new 1568.712 895.223 83.697 83.698" xml:space="preserve">
<g id="Export_Sheet">
</g>
<g id="Source_Artwork">
	<path fill="#414C52" d="M1610.562,904.894c-17.771,0-32.177,14.406-32.177,32.177s14.406,32.176,32.177,32.176
		c17.77,0,32.176-14.405,32.176-32.176S1628.332,904.894,1610.562,904.894z M1614.998,954.746h-8.873c-1.657,0-3-1.343-3-3
		s1.343-3,3-3h8.873c1.657,0,3,1.343,3,3S1616.655,954.746,1614.998,954.746z M1624.192,938.208h-5.194c-0.552,0-1,0.448-1,1v2.6
		c0,1.657-1.343,3-3,3h-8.873c-1.657,0-3-1.343-3-3v-2.6c0-0.552-0.448-1-1-1h-5.194c-2.673,0-4.011-3.231-2.121-5.121l13.63-13.63
		c1.172-1.172,3.071-1.172,4.243,0l13.63,13.63C1628.203,934.976,1626.865,938.208,1624.192,938.208z"/>
</g>
</svg>
