<?xml version="1.0" encoding="utf-8"?>
<!-- Generator: Adobe Illustrator 18.0.0, SVG Export Plug-In . SVG Version: 6.00 Build 0)  -->
<!DOCTYPE svg PUBLIC "-//W3C//DTD SVG 1.1//EN" "http://www.w3.org/Graphics/SVG/1.1/DTD/svg11.dtd">
<svg version="1.1" xmlns="http://www.w3.org/2000/svg" xmlns:xlink="http://www.w3.org/1999/xlink" x="0px" y="0px"
	 width="83.698px" height="83.697px" viewBox="2504.769 465.411 83.698 83.697"
	 enable-background="new 2504.769 465.411 83.698 83.697" xml:space="preserve">
<g id="Export_Sheet">
	<path fill="#414C52" d="M2578.93,503.488c-5.063-6.245-16.699-18.05-32.312-18.05s-27.249,11.806-32.312,18.05
		c-1.785,2.202-1.785,5.342,0,7.544c5.063,6.245,16.699,18.05,32.312,18.05s27.249-11.806,32.312-18.05
		C2580.715,508.83,2580.715,505.69,2578.93,503.488z M2546.618,521.181c-7.732,0-14-6.268-14-14c0-7.732,6.268-14,14-14
		s14,6.268,14,14C2560.618,514.913,2554.351,521.181,2546.618,521.181z M2546.618,499.181c-4.411,0-8,3.589-8,8c0,4.411,3.589,8,8,8
		s8-3.589,8-8C2554.618,502.769,2551.03,499.181,2546.618,499.181z"/>
</g>
<g id="Source_Artwork">
</g>
</svg>
