<?xml version="1.0" encoding="utf-8"?>
<!-- Generator: Adobe Illustrator 18.0.0, SVG Export Plug-In . SVG Version: 6.00 Build 0)  -->
<!DOCTYPE svg PUBLIC "-//W3C//DTD SVG 1.1//EN" "http://www.w3.org/Graphics/SVG/1.1/DTD/svg11.dtd">
<svg version="1.1" id="Layer_1" xmlns="http://www.w3.org/2000/svg" xmlns:xlink="http://www.w3.org/1999/xlink" x="0px" y="0px"
	 width="83.697px" height="83.698px" viewBox="1883.135 250.505 83.697 83.698"
	 enable-background="new 1883.135 250.505 83.697 83.698" xml:space="preserve">
<path fill="#414C52" d="M1924.985,260.178c-17.771,0-32.177,14.406-32.177,32.177s14.406,32.176,32.177,32.176
	c17.77,0,32.176-14.405,32.176-32.176S1942.754,260.178,1924.985,260.178z M1940.817,303.541c-0.71,1.378-2.109,2.169-3.559,2.169
	c-0.617,0-1.243-0.144-1.829-0.445l-14.276-7.355c-1.331-0.686-2.168-2.058-2.168-3.556v-17.176c0-2.209,1.791-4,4-4s4,1.791,4,4
	v14.737l12.108,6.238C1941.057,299.165,1941.829,301.577,1940.817,303.541z"/>
</svg>
