<?xml version="1.0" encoding="utf-8"?>
<!-- Generator: Adobe Illustrator 18.0.0, SVG Export Plug-In . SVG Version: 6.00 Build 0)  -->
<!DOCTYPE svg PUBLIC "-//W3C//DTD SVG 1.1//EN" "http://www.w3.org/Graphics/SVG/1.1/DTD/svg11.dtd">
<svg version="1.1" xmlns="http://www.w3.org/2000/svg" xmlns:xlink="http://www.w3.org/1999/xlink" x="0px" y="0px"
	 width="83.697px" height="83.698px" viewBox="2804.246 465.411 83.697 83.698"
	 enable-background="new 2804.246 465.411 83.697 83.698" xml:space="preserve">
<g id="Layer_1">
	<path d="M2877.869,524.641c-4.855-14.328-17.539-35.074-27.395-45.694c-2.359-2.543-6.397-2.543-8.756,0
		c-9.856,10.62-22.54,31.366-27.395,45.694c-1.138,3.358,0.873,6.964,4.326,7.765c14.959,3.468,39.934,3.468,54.892,0
		C2876.996,531.604,2879.005,527.999,2877.869,524.641z M2850.103,521.998c0,2.209-1.798,4.006-4.006,4.006
		c-2.208,0-4.007-1.797-4.007-4.006v-1.391c0-2.207,1.8-4.006,4.007-4.006c2.208,0,4.006,1.8,4.006,4.006V521.998z
		 M2850.103,508.098c0,2.206-1.798,4.006-4.006,4.006c-2.208,0-4.007-1.8-4.007-4.006v-11.857c0-2.209,1.8-4.006,4.007-4.006
		c2.208,0,4.006,1.798,4.006,4.006V508.098z"/>
</g>
<g id="Layer_2">
</g>
<g id="Layer_3">
</g>
<g id="Layer_4">
</g>
<g id="Layer_5">
</g>
<g id="Layer_6">
</g>
<g id="Layer_7">
</g>
<g id="Layer_8">
</g>
</svg>
