<?xml version="1.0" encoding="utf-8"?>
<!-- Generator: Adobe Illustrator 18.0.0, SVG Export Plug-In . SVG Version: 6.00 Build 0)  -->
<!DOCTYPE svg PUBLIC "-//W3C//DTD SVG 1.1//EN" "http://www.w3.org/Graphics/SVG/1.1/DTD/svg11.dtd">
<svg version="1.1" xmlns="http://www.w3.org/2000/svg" xmlns:xlink="http://www.w3.org/1999/xlink" x="0px" y="0px"
	 width="83.697px" height="83.698px" viewBox="2804.246 35.545 83.697 83.698"
	 enable-background="new 2804.246 35.545 83.697 83.698" xml:space="preserve">
<g id="Layer_1">
	<path d="M2863.602,71.223h-34.059c-1.748,0-3.125,1.488-2.991,3.231l2.281,29.578c0.241,3.126,2.847,5.539,5.982,5.539h22.55
		c3.061,0,5.631-2.304,5.964-5.346l3.254-29.675C2866.779,72.774,2865.388,71.223,2863.602,71.223z M2863.885,55.721h-6.915
		c0,0,0.385-12-10.876-12c-11.262,0-10.877,12-10.877,12h-6.915c-3.313,0-6,2.685-6,6v0.502c0,1.657,1.344,3,3,3h41.583
		c1.657,0,3-1.343,3-3v-0.502C2869.885,58.406,2867.199,55.721,2863.885,55.721z M2850.97,55.721h-9.753c0,0-0.156-6,4.877-6
		C2851.125,49.721,2850.97,55.721,2850.97,55.721z"/>
</g>
<g id="Layer_2">
</g>
<g id="Layer_3">
</g>
<g id="Layer_4">
</g>
<g id="Layer_5">
</g>
<g id="Layer_6">
</g>
<g id="Layer_7">
</g>
<g id="Layer_8">
</g>
</svg>
