<?xml version="1.0" encoding="utf-8"?>
<!-- Generator: Adobe Illustrator 18.0.0, SVG Export Plug-In . SVG Version: 6.00 Build 0)  -->
<!DOCTYPE svg PUBLIC "-//W3C//DTD SVG 1.1//EN" "http://www.w3.org/Graphics/SVG/1.1/DTD/svg11.dtd">
<svg version="1.1" xmlns="http://www.w3.org/2000/svg" xmlns:xlink="http://www.w3.org/1999/xlink" x="0px" y="0px"
	 width="83.697px" height="83.698px" viewBox="1883.135 465.411 83.697 83.698"
	 enable-background="new 1883.135 465.411 83.697 83.698" xml:space="preserve">
<g id="Layer_1">
	<path d="M1907.295,507.262l11.287-11.3c2.342-2.345,2.34-6.144-0.005-8.485c-2.345-2.343-6.145-2.339-8.485,0.005l-15.341,15.358
		c-0.062,0.058-0.124,0.116-0.185,0.178c-2.344,2.343-2.344,6.142,0,8.484l15.533,15.533c1.171,1.172,2.707,1.758,4.242,1.758
		s3.071-0.586,4.242-1.758c2.344-2.343,2.344-6.142,0-8.484L1907.295,507.262z M1955.408,503.013l-15.533-15.533
		c-2.342-2.344-6.143-2.344-8.484,0c-2.344,2.343-2.344,6.142,0,8.484l11.289,11.289l-11.287,11.3
		c-2.342,2.345-2.34,6.144,0.005,8.485c1.171,1.17,2.706,1.755,4.24,1.755c1.537,0,3.073-0.587,4.245-1.76l15.341-15.358
		c0.062-0.058,0.124-0.116,0.185-0.178C1957.751,509.154,1957.751,505.355,1955.408,503.013z"/>
</g>
<g id="Layer_2">
</g>
<g id="Layer_3">
</g>
<g id="Layer_4">
</g>
<g id="Layer_5">
</g>
<g id="Layer_6">
</g>
<g id="Layer_7">
</g>
<g id="Layer_8">
</g>
</svg>
