<?xml version="1.0" encoding="utf-8"?>
<!-- Generator: Adobe Illustrator 18.0.0, SVG Export Plug-In . SVG Version: 6.00 Build 0)  -->
<!DOCTYPE svg PUBLIC "-//W3C//DTD SVG 1.1//EN" "http://www.w3.org/Graphics/SVG/1.1/DTD/svg11.dtd">
<svg version="1.1" xmlns="http://www.w3.org/2000/svg" xmlns:xlink="http://www.w3.org/1999/xlink" x="0px" y="0px"
	 width="83.697px" height="83.698px" viewBox="2197.559 465.411 83.697 83.698"
	 enable-background="new 2197.559 465.411 83.697 83.698" xml:space="preserve">
<g id="Layer_1">
	<path d="M2262.583,494.877h-1.166c-2.762,0-5,2.238-5,5s2.238,5,5,5h1.166c2.206,0,4,1.794,4,4v6.292c0,2.206-1.794,4-4,4h-21.676
		c-2.206,0-4-1.794-4-4v-6.674c0-2.762-2.238-5-5-5s-5,2.238-5,5v6.674c0,7.72,6.28,14,14,14h21.676c7.72,0,14-6.28,14-14v-6.292
		C2276.583,501.157,2270.303,494.877,2262.583,494.877z M2217.388,509.877h-1.167c-2.206,0-4-1.794-4-4v-6.291c0-2.206,1.794-4,4-4
		h21.677c2.206,0,4,1.794,4,4v6.674c0,2.762,2.238,5,5,5s5-2.238,5-5v-6.674c0-7.72-6.28-14-14-14h-21.677c-7.72,0-14,6.28-14,14
		v6.291c0,7.72,6.28,14,14,14h1.167c2.762,0,5-2.238,5-5S2220.15,509.877,2217.388,509.877z"/>
</g>
<g id="Layer_2">
</g>
<g id="Layer_3">
</g>
<g id="Layer_4">
</g>
<g id="Layer_5">
</g>
<g id="Layer_6">
</g>
<g id="Layer_7">
</g>
<g id="Layer_8">
</g>
</svg>
