<?xml version="1.0" encoding="utf-8"?>
<!-- Generator: Adobe Illustrator 18.0.0, SVG Export Plug-In . SVG Version: 6.00 Build 0)  -->
<!DOCTYPE svg PUBLIC "-//W3C//DTD SVG 1.1//EN" "http://www.w3.org/Graphics/SVG/1.1/DTD/svg11.dtd">
<svg version="1.1" xmlns="http://www.w3.org/2000/svg" xmlns:xlink="http://www.w3.org/1999/xlink" x="0px" y="0px"
	 width="83.697px" height="83.698px" viewBox="2354.771 895.223 83.697 83.698"
	 enable-background="new 2354.771 895.223 83.697 83.698" xml:space="preserve">
<g id="Layer_1">
	<path d="M2424.16,927.139c-0.946-11.589-10.323-21.018-22.01-22.113c-13.043-1.221-24.225,7.705-26.45,19.732
		c-0.203,1.098-0.583,2.157-1.094,3.151l-5.278,10.262c-0.669,1.301-0.303,2.894,0.867,3.772l3.138,2.355
		c0.646,0.485,1.07,1.21,1.174,2.011l1.294,9.912c0.194,1.485,1.47,2.822,2.982,2.822h5.757c1.895,0,3.828,0.659,4.965,2.161
		l4.454,5.887c0.856,1.132,2.388,1.509,3.672,0.904l18.002-8.488c1.051-0.495,1.721-1.552,1.721-2.714v-6.447
		c0-2.603,0.9-5.097,2.412-7.215C2422.946,938.678,2424.648,933.113,2424.16,927.139z M2413.408,934.578
		c-5.737,1.957-6.12-7.244-15.374-4.781c-23.22,6.18-17.474-17.957,1.252-17.957c15.07,0,18.073,12.478,18.073,16.118
		C2417.36,931.94,2414.881,934.076,2413.408,934.578z"/>
</g>
<g id="Layer_2">
</g>
<g id="Layer_3">
</g>
<g id="Layer_4">
</g>
<g id="Layer_5">
</g>
<g id="Layer_6">
</g>
<g id="Layer_7">
</g>
<g id="Layer_8">
</g>
</svg>
