<?xml version="1.0" encoding="utf-8"?>
<!-- Generator: Adobe Illustrator 18.0.0, SVG Export Plug-In . SVG Version: 6.00 Build 0)  -->
<!DOCTYPE svg PUBLIC "-//W3C//DTD SVG 1.1//EN" "http://www.w3.org/Graphics/SVG/1.1/DTD/svg11.dtd">
<svg version="1.1" xmlns="http://www.w3.org/2000/svg" xmlns:xlink="http://www.w3.org/1999/xlink" x="0px" y="0px"
	 width="83.697px" height="83.698px" viewBox="2197.559 680.316 83.697 83.698"
	 enable-background="new 2197.559 680.316 83.697 83.698" xml:space="preserve">
<g id="Layer_1">
	<path d="M2267.42,725.639c-2.04-2.039-4.751-3.162-7.637-3.162h-0.002l-2.581,0.002v-21.987c0-3.314-2.686-6-6-6h-23.582
		c-3.314,0-6,2.686-6,6v21.987l-2.586-0.002h-0.003c-2.884,0-5.596,1.123-7.635,3.162c-2.04,2.04-3.163,4.753-3.163,7.638
		c0,5.955,4.845,10.8,10.8,10.8l16.587-0.002v5.256c0,1.853,2.301,2.709,3.513,1.308l7.137-8.254c0.649-0.751,0.649-1.865,0-2.616
		l-7.137-8.254c-1.212-1.401-3.513-0.545-3.513,1.308v5.253l-16.587,0.002c-2.646,0-4.8-2.153-4.8-4.8
		c0-1.282,0.499-2.488,1.406-3.395c0.906-0.906,2.11-1.405,3.391-1.405c0,0,0,0,0.001,0l2.587,0.002c0.001,0,0.001,0,0.002,0v5.597
		l10-0.001v-1.253c0-3.31,2.699-6.004,6.017-6.004c1.73,0,3.378,0.758,4.521,2.08l4.477,5.177l10.567,0.001v-5.597
		c0.001,0,0.002,0,0.002,0l2.582-0.002c0,0,0,0,0.001,0c1.281,0,2.486,0.499,3.392,1.405c0.907,0.906,1.406,2.112,1.406,3.395
		c0,2.646-2.153,4.8-4.799,4.8l-5.991-0.002h-0.001c-1.656,0-2.999,1.343-3,2.999c-0.001,1.657,1.342,3,2.999,3.001l5.992,0.002
		c5.955,0,10.8-4.845,10.8-10.8C2270.583,730.392,2269.46,727.679,2267.42,725.639z M2245.625,702.263
		c1.688,0,3.058,1.369,3.058,3.058c0,1.688-1.369,3.058-3.058,3.058c-1.689,0-3.059-1.369-3.059-3.058
		C2242.567,703.632,2243.936,702.263,2245.625,702.263z M2233.178,702.263c1.688,0,3.058,1.369,3.058,3.058
		c0,1.688-1.369,3.058-3.058,3.058c-1.689,0-3.059-1.369-3.059-3.058C2230.12,703.632,2231.489,702.263,2233.178,702.263z
		 M2250.779,715.653c-0.165,0.153-4.144,3.765-11.373,3.765c-7.234,0-11.218-3.611-11.384-3.765
		c-0.81-0.751-0.858-2.017-0.108-2.827c0.748-0.808,2.005-0.858,2.817-0.117c0.153,0.137,3.116,2.709,8.675,2.709
		c5.588,0,8.625-2.671,8.654-2.698c0.809-0.749,2.074-0.704,2.826,0.107C2251.637,713.637,2251.589,714.902,2250.779,715.653z"/>
</g>
<g id="Layer_2">
</g>
<g id="Layer_3">
</g>
<g id="Layer_4">
</g>
<g id="Layer_5">
</g>
<g id="Layer_6">
</g>
<g id="Layer_7">
</g>
<g id="Layer_8">
</g>
</svg>
