<?xml version="1.0" encoding="utf-8"?>
<!-- Generator: Adobe Illustrator 18.0.0, SVG Export Plug-In . SVG Version: 6.00 Build 0)  -->
<!DOCTYPE svg PUBLIC "-//W3C//DTD SVG 1.1//EN" "http://www.w3.org/Graphics/SVG/1.1/DTD/svg11.dtd">
<svg version="1.1" xmlns="http://www.w3.org/2000/svg" xmlns:xlink="http://www.w3.org/1999/xlink" x="0px" y="0px"
	 width="83.697px" height="83.698px" viewBox="2504.769 -179.296 83.697 83.698"
	 enable-background="new 2504.769 -179.296 83.697 83.698" xml:space="preserve">
<g id="Layer_1">
</g>
<g id="Layer_2">
	<path d="M2573.865-141.193c-10.955-4.541-5.88-12.195-9.792-22.861c-0.499-1.359-2.358-1.538-3.148-0.325l-6.212,9.535
		c-0.414,0.635-1.186,0.945-1.918,0.753c-2.063-0.54-4.164-0.859-6.266-0.859s-4.199,0.325-6.26,0.866
		c-0.733,0.193-1.506-0.117-1.92-0.752l-6.217-9.542c-0.79-1.213-2.65-1.035-3.148,0.324c-3.912,10.667,1.163,18.321-9.793,22.861
		c-0.93,0.386-1.357,1.495-0.925,2.404c6.419,13.501,23.53,10.419,23.53,18.507c0,5.818-15.377,3.264-15.377,15.011h40.217
		c0-11.747-15.377-9.193-15.377-15.011c0-8.088,17.112-5.006,23.531-18.507C2575.223-139.699,2574.796-140.808,2573.865-141.193z"/>
</g>
<g id="Layer_3">
</g>
<g id="Layer_4">
</g>
<g id="Layer_5">
</g>
<g id="Layer_6">
</g>
<g id="Layer_7">
</g>
<g id="Layer_8">
</g>
</svg>
