<?xml version="1.0" encoding="UTF-8"?>
<!DOCTYPE svg PUBLIC "-//W3C//DTD SVG 1.1//EN" "http://www.w3.org/Graphics/SVG/1.1/DTD/svg11.dtd">
<svg xmlns="http://www.w3.org/2000/svg">
  <symbol id="diy-icn-add" viewBox="1883.135 35.545 83.697 83.698">
    <g xmlns="http://www.w3.org/2000/svg">
      <path d="M1946.677 83.395h-43.38c-3.314 0-6-2.687-6-6s2.686-6 6-6h43.38c3.313 0 6 2.687 6 6s-2.686 6-6 6zM1924.987 104.585c-3.313 0-6-2.687-6-6v-42.38c0-3.314 2.687-6 6-6s6 2.686 6 6v42.38c0 3.313-2.687 6-6 6z"/>
    </g>
  </symbol>
  <symbol id="diy-icn-arrow-down" viewBox="0 0 83.7 83.7">
    <path d="M17.6 22.9h48.6c7.2 0 11 8.1 5.8 12.8L47.6 58.5c-3.1 3.1-8.5 3.1-11.7 0L11.5 35.6c-4.9-4.7-1.3-12.7 6.1-12.7z"/>
  </symbol>
  <symbol id="diy-icn-back" viewBox="2504.769 35.545 83.697 83.698">
    <path d="M2554.316 104.09c-1.535 0-3.07-.585-4.242-1.757L2529.2 81.46c-2.343-2.343-2.343-6.142 0-8.484l20.52-20.52c2.343-2.344 6.144-2.344 8.485 0 2.344 2.343 2.344 6.142 0 8.484l-16.276 16.277 16.63 16.63c2.343 2.344 2.343 6.143 0 8.485-1.173 1.173-2.71 1.76-4.244 1.76z"/>
  </symbol>
  <symbol id="diy-icn-bookmark" viewBox="2654.507 465.411 83.697 83.698">
    <path d="M2674.574 529.454v-43.868c0-3.313 2.687-6 6-6h31.584c3.312 0 6 2.687 6 6v43.866c0 2.418-2.715 3.842-4.705 2.468l-10.264-7.086c-4.104-2.833-9.53-2.834-13.634-.002l-10.278 7.09c-1.99 1.375-4.704-.05-4.704-2.468z"/>
  </symbol>
  <symbol id="diy-icn-cart" viewBox="2197.559 250.505 83.697 83.698">
    <path d="M2274.256 260.68h-6.673c-1.786 0-3.355 1.185-3.847 2.9l-2.027 7.1h-50.6c-2.025 0-3.47 1.968-2.86 3.9l6.53 20.76c.394 1.25 1.552 2.1 2.862 2.1h36.427l-1.52 5.32h-32.738c-2.21 0-4 1.79-4 4s1.79 4 4 4h35.756c1.786 0 3.355-1.185 3.847-2.9l11.186-39.18h3.656c2.21 0 4-1.79 4-4s-1.79-4-4-4zm-50.313 53.58c-2.836 0-5.136 2.3-5.136 5.135 0 2.836 2.3 5.136 5.136 5.136 2.837 0 5.136-2.3 5.136-5.135 0-2.836-2.3-5.136-5.137-5.136zm27.812 0c-2.836 0-5.136 2.3-5.136 5.135 0 2.836 2.3 5.136 5.135 5.136s5.136-2.3 5.136-5.135c0-2.836-2.3-5.136-5.135-5.136z"/>
  </symbol>
  <symbol id="diy-icn-challenge" viewBox="1725.924 -179.296 83.697 83.698">
    <path d="M1738.664-117.022l26.002 15.143c1.863 1.086 4.165 1.088 6.03.006l26.18-15.18c1.854-1.075 2.993-3.054 2.99-5.195l-.018-30.205c0-2.134-1.136-4.107-2.98-5.18l-26.005-15.146c-1.862-1.085-4.162-1.088-6.027-.008l-26.164 15.156c-1.853 1.073-2.993 3.052-2.992 5.193l.004 30.234c0 2.136 1.135 4.11 2.98 5.184z"/>
  </symbol>
  <symbol id="diy-icn-challenges" viewBox="1568.712 895.223 83.697 83.698">
    <path d="M1643.116 954.373l-27.487-43.332c-2.357-3.713-7.777-3.713-10.134 0l-27.488 43.333c-1.268 1.997.168 4.607 2.533 4.607h60.043c2.365 0 3.8-2.61 2.533-4.607zm-18.618-19.028l-.297.552c-2.172 4.043-7.894 4.25-10.352.374l-2.886-4.548c-1.178-1.857-3.89-1.857-5.066 0l-.436.686c-1.2 1.893-3.976 1.85-5.116-.08l-.81-1.368c-.573-.97-.555-2.182.05-3.134l9.288-14.643c.513-.808 1.28-.928 1.69-.928.41 0 1.175.12 1.687.928l12.137 19.134c.58.915.623 2.073.11 3.028z"/>
  </symbol>
  <symbol id="diy-icn-chill" viewBox="1883.135 680.316 83.697 83.698">
    <path d="M1960.54 711.2c-24.98-7.524-27.108 1.98-35.552 1.98-8.444 0-10.572-9.504-35.55-1.98-1.505.454-2.53 1.855-2.53 3.424v.347c0 1.667 1.132 3.066 2.72 3.57.806.257 1.477.765 1.477 1.746.052 8.405 6.878 15.205 15.296 15.205 10.332 0 13.233-6.522 15.012-13.725.853-3.45 6.302-3.45 7.153 0 1.778 7.203 4.68 13.726 15.012 13.726 8.418 0 15.243-6.8 15.295-15.204 0-.98.672-1.49 1.477-1.745 1.587-.505 2.718-1.903 2.718-3.57v-.346c-.002-1.57-1.026-2.97-2.53-3.423zm-60.835 11.3c-.512 0-1.023-.195-1.414-.586-.78-.78-.78-2.048 0-2.828l3.69-3.69c.782-.78 2.048-.78 2.83 0s.78 2.05 0 2.83l-3.69 3.688c-.392.39-.904.586-1.415.586zm13.874-2.517l-8.952 8.95c-.39.392-.902.587-1.414.587s-1.023-.195-1.414-.586c-.78-.78-.78-2.047 0-2.828l8.95-8.95c.782-.782 2.048-.782 2.83 0s.78 2.046 0 2.827zm24.594 2.517c-.512 0-1.023-.195-1.414-.586-.78-.78-.78-2.047 0-2.828l3.69-3.69c.78-.78 2.046-.78 2.827 0s.78 2.048 0 2.83l-3.69 3.688c-.39.39-.9.586-1.413.586zm13.874-2.517l-8.952 8.95c-.39.392-.902.587-1.414.587s-1.023-.195-1.414-.586c-.78-.78-.78-2.047 0-2.828l8.952-8.95c.78-.782 2.047-.782 2.828 0s.782 2.046 0 2.827z"/>
  </symbol>
  <symbol id="diy-icn-colors" viewBox="2197.559 -179.296 83.697 83.698">
    <path d="M2271.52-139.752c0 26.793-26.388 13.922-32.297 19.832-4.854 4.857 3.48 6.555 3.48 10.36 0 2.43-1.7 4.29-5.827 4.29-16.593 0-29.545-14.65-29.545-32.295 0-17.725 14.33-32.134 32.137-32.134 17.726 0 32.053 12.224 32.053 29.948zm-48.342-12.127c-2.398-1.307-5.452-.362-6.76 2.11-1.236 2.4-.292 5.454 2.18 6.762 2.4 1.236 5.454.29 6.688-2.107 1.31-2.473.366-5.527-2.108-6.764zm16.306-7.74c-.73-2.682-3.42-4.274-6.113-3.624-2.69.725-4.292 3.406-3.564 6.085.655 2.682 3.42 4.276 6.04 3.625 2.69-.724 4.29-3.405 3.638-6.086zm16.59 6.91c1.53-2.25.946-5.37-1.384-6.895-2.33-1.526-5.39-.943-6.92 1.38-1.528 2.32-.945 5.37 1.384 6.896 2.258 1.596 5.39.944 6.92-1.38zm10.19 11.353c-.435-2.693-2.902-4.584-5.662-4.22-2.76.435-4.647 2.982-4.212 5.673.436 2.766 2.905 4.657 5.664 4.22 2.76-.364 4.647-2.91 4.21-5.673z"/>
  </symbol>
  <symbol id="diy-icn-comment" viewBox="1568.712 -179.296 83.697 83.698">
    <path d="M1636.738-162.12h-52.353c-3.313 0-6 2.686-6 6v45.483c0 3.533 4.244 5.33 6.782 2.874l8.03-7.775h43.54c3.313 0 6-2.687 6-6v-34.583c0-3.315-2.686-6-6-6z"/>
  </symbol>
  <symbol id="diy-icn-danger" viewBox="2804.246 465.411 83.697 83.698">
    <path d="M2877.87 524.64c-4.856-14.327-17.54-35.073-27.396-45.693-2.36-2.543-6.397-2.543-8.756 0-9.856 10.62-22.54 31.366-27.395 45.694-1.138 3.36.873 6.965 4.326 7.766 14.958 3.468 39.933 3.468 54.89 0 3.456-.802 5.465-4.407 4.33-7.765zM2850.102 522c0 2.21-1.798 4.006-4.006 4.006s-4.007-1.797-4.007-4.006v-1.39c0-2.208 1.8-4.007 4.007-4.007 2.208 0 4.006 1.8 4.006 4.007v1.39zm0-13.9c0 2.206-1.798 4.006-4.006 4.006s-4.007-1.8-4.007-4.006V496.24c0-2.208 1.8-4.005 4.007-4.005 2.208 0 4.006 1.798 4.006 4.006V508.1z"/>
  </symbol>
  <symbol id="diy-icn-dashboard" viewBox="2804.246 -179.296 83.697 83.698">
    <g xmlns="http://www.w3.org/2000/svg">
      <path d="M2844.7-148.612l-8 20.14c-.516 1.295.86 2.53 2.094 1.88l6.366-3.367c.584-.308 1.284-.308 1.87 0l6.364 3.367c1.232.65 2.61-.584 2.096-1.88l-8.002-20.14c-.5-1.26-2.287-1.26-2.788 0zM2876.304-143.358c-2.424-12.16-12.02-21.757-24.182-24.18l-4.912-5.48c-.596-.665-1.638-.665-2.233 0l-4.912 5.48c-12.16 2.423-21.76 12.02-24.18 24.18l-5.48 4.912c-.665.596-.665 1.637 0 2.233l5.48 4.912c2.42 12.16 12.02 21.756 24.18 24.18l4.912 5.48c.596.664 1.638.664 2.233 0l4.912-5.48c12.16-2.423 21.758-12.02 24.182-24.18l5.48-4.913c.663-.596.663-1.637 0-2.233l-5.48-4.912zm-30.21 27.812c-12.012 0-21.784-9.77-21.784-21.783 0-12.01 9.772-21.783 21.784-21.783 12.01 0 21.784 9.772 21.784 21.784 0 12.013-9.773 21.784-21.784 21.784z"/>
    </g>
  </symbol>
  <symbol id="diy-icn-delete" viewBox="2804.246 35.545 83.697 83.698">
    <path d="M2863.602 71.223h-34.06c-1.747 0-3.124 1.488-2.99 3.23l2.28 29.58c.242 3.125 2.848 5.538 5.983 5.538h22.55c3.06 0 5.63-2.303 5.964-5.345l3.253-29.675c.196-1.776-1.195-3.327-2.98-3.327zm.283-15.502h-6.915s.385-12-10.876-12c-11.262 0-10.877 12-10.877 12h-6.915c-3.313 0-6 2.686-6 6v.503c0 1.657 1.344 3 3 3h41.583c1.657 0 3-1.343 3-3v-.502c0-3.314-2.686-6-6-6zm-12.915 0h-9.753s-.156-6 4.877-6c5.03 0 4.876 6 4.876 6z"/>
  </symbol>
  <symbol id="diy-icn-down" viewBox="1725.924 35.545 83.697 83.698">
    <path d="M1767.596 93.948c-1.535 0-3.07-.586-4.242-1.758l-20.52-20.52c-2.344-2.343-2.344-6.142 0-8.484 2.342-2.344 6.143-2.344 8.484 0l16.277 16.276 16.63-16.63c2.343-2.344 6.144-2.344 8.485 0 2.344 2.343 2.344 6.142 0 8.484l-20.873 20.873c-1.17 1.172-2.706 1.758-4.24 1.758z"/>
  </symbol>
  <symbol id="diy-icn-edit" viewBox="1568.712 250.505 83.697 83.698">
    <path d="M1593.438 298.162l11.314 11.314 25.16-25.16L1618.6 273l-25.162 25.162zm34.23-34.232c-.004.005-.01.01-.014.017l-4.813 4.812 11.314 11.312 4.83-4.83c6.1-6.1-5.216-17.412-11.315-11.312zm-46.978 58.253l.02.02s11.076-2.43 19.78-8.506l-11.292-11.29c-6.076 8.7-8.508 19.776-8.508 19.776z"/>
  </symbol>
  <symbol id="diy-icn-educator" viewBox="0 0 83.7 83.7">
    <path d="M73.7 34.7c-.5-1.6-10.9-3.8-20.2-4.9-.3 0-.6-.2-.7-.5-3.8-8.6-9.1-17.7-10.9-17.7-1.7 0-7 9.2-10.9 17.7-.1.3-.4.5-.7.5-9.3 1-19.7 3.2-20.2 4.9-.5 1.6 6.6 9.5 13.5 15.8.2.2.3.5.3.9-2.1 10.3-2.9 19.8-1.6 20.7 0 0 .2.1.6.1 3.7 0 14.7-5.8 18.6-8.1.1-.1.3-.1.4-.1.2 0 .3 0 .4.1 3.9 2.2 14.9 8.1 18.6 8.1.4 0 .6-.1.6-.1 1.4-1 .3-11.5-1.6-20.7-.1-.3 0-.6.3-.9 7.8-7.1 13.9-14.4 13.5-15.8zm-42.6 2.6c1.2 0 2.2 1.4 2.2 3.2 0 1.8-1 3.2-2.2 3.2-1.2 0-2.2-1.4-2.2-3.2 0-1.8 1-3.2 2.2-3.2zm23.6 11.4c-.1.3-2.4 8.1-12.9 8.1S29 49.1 28.9 48.7c-.2-.6 0-1.3.4-1.9.4-.5 1-.9 1.7-.9h21.6c.7 0 1.3.3 1.7.9.5.5.6 1.2.4 1.9zm-2.1-4.9c-1.2 0-2.2-1.4-2.2-3.2 0-1.8 1-3.2 2.2-3.2 1.2 0 2.2 1.4 2.2 3.2 0 1.7-1 3.2-2.2 3.2z"/>
  </symbol>
  <symbol id="diy-icn-email" viewBox="2040.347 465.411 83.697 83.698">
    <g xmlns="http://www.w3.org/2000/svg">
      <path stroke="#fff" stroke-width="6" stroke-miterlimit="10" d="M2116.035 481.18M2048.357 481.18" fill="none"/>
      <path d="M2108.373 485.586h-52.353c-3.314 0-6 2.687-6 6v1.198l27.36 17.328c2.925 1.852 6.706 1.852 9.632 0l27.36-17.328v-1.197c0-3.315-2.686-6-6-6zm-26.177 31.91c-2.794 0-5.587-.772-8.025-2.316l-24.15-15.294v23.283c0 3.312 2.687 6 6 6h52.354c3.313 0 6-2.688 6-6v-23.285l-24.15 15.295c-2.44 1.544-5.234 2.315-8.028 2.315z"/>
    </g>
  </symbol>
  <symbol id="diy-icn-embed" viewBox="1883.135 465.411 83.697 83.698">
    <path d="M1907.295 507.262l11.287-11.3c2.342-2.345 2.34-6.144-.005-8.485-2.345-2.343-6.145-2.34-8.485.005l-15.34 15.358c-.063.058-.125.116-.186.178-2.344 2.343-2.344 6.142 0 8.484l15.533 15.533c1.17 1.172 2.706 1.758 4.24 1.758s3.072-.586 4.243-1.758c2.344-2.343 2.344-6.142 0-8.484l-11.288-11.288zm48.113-4.25l-15.533-15.532c-2.342-2.344-6.143-2.344-8.484 0-2.343 2.343-2.343 6.142 0 8.484l11.29 11.29-11.287 11.3c-2.342 2.344-2.34 6.143.005 8.484 1.17 1.17 2.706 1.755 4.24 1.755 1.537 0 3.073-.587 4.245-1.76l15.34-15.358c.063-.058.125-.116.186-.178 2.34-2.343 2.34-6.142-.002-8.484z"/>
  </symbol>
  <symbol id="diy-icn-emoji" viewBox="2354.771 250.505 83.697 83.698">
    <path d="M2396.62 260.178c-17.77 0-32.177 14.405-32.177 32.177 0 17.77 14.406 32.176 32.177 32.176s32.176-14.405 32.176-32.175c0-17.772-14.406-32.177-32.176-32.177zm10.176 20.667c2.76 0 5 2.238 5 5s-2.24 5-5 5c-2.762 0-5-2.238-5-5s2.24-5 5-5zm-20.353 0c2.762 0 5 2.238 5 5s-2.238 5-5 5-5-2.238-5-5 2.238-5 5-5zm30.613 20.132c-3.363 7.965-11.247 13.554-20.437 13.554-9.19 0-17.076-5.59-20.44-13.555-.66-1.564.874-3.154 2.49-2.635 3.533 1.137 9.538 2.505 17.957 2.505 8.413 0 14.408-1.366 17.938-2.502 1.618-.52 3.152 1.07 2.49 2.634z"/>
  </symbol>
  <symbol id="diy-icn-explore" viewBox="2354.771 -394.202 83.697 83.698">
    <path d="M2437.612-372.482c-1.255-2.77-4.428-4.177-9.43-4.177-5.02 0-12.04 1.42-19.904 3.917-3.437-1.97-7.414-3.1-11.66-3.1-11.435 0-20.957 8.173-23.055 18.996-11.218 6.895-20.784 15.166-17.936 21.462 1.255 2.77 4.428 4.177 9.43 4.177h.002c4.328 0 10.146-1.055 16.71-2.946 4.047 3.306 9.216 5.29 14.85 5.29 12.604 0 22.888-9.93 23.46-22.392 3.15-1.962 6.005-3.94 8.47-5.882 7.942-6.25 10.905-11.27 9.062-15.344zm-18.183 14.514l-.005-.016c-5 3.343-11.47 7.008-19.45 10.6-10.555 4.75-19.083 7.546-25.395 8.906-3.673.82-6.922 1.27-9.522 1.27-2.73 0-3.7-.508-3.943-.673.008-1.765 4.095-6.238 12.186-11.674.272 2.28.875 4.458 1.75 6.49 5.73-1.273 13.686-3.624 23.277-7.964 8.526-3.858 15.03-7.643 19.757-10.854-1.035-2.33-2.43-4.463-4.128-6.32 5.628-1.577 10.562-2.456 14.226-2.456 2.73 0 3.7.51 3.943.674-.007 1.8-4.26 6.424-12.696 12.016z"/>
  </symbol>
  <symbol id="diy-icn-favorite" viewBox="2040.347 -394.202 83.697 83.698">
    <path d="M2083.235-367.278c-6.396-14.653-30.73-9.748-29.177 8.475 1.46 17.14 27.95 31.964 27.95 31.964.676.37 1.782.37 2.46 0 0 0 26.484-14.822 27.944-31.963 1.552-18.223-22.78-23.13-29.177-8.475z"/>
  </symbol>
  <symbol id="diy-icn-featured" viewBox="1883.135 -179.296 83.697 83.698">
    <path d="M1953.085-144.663l-2.818-3.703c-.72-.945-.89-2.2-.444-3.302l1.64-4.067c.71-1.76-.173-3.76-1.953-4.42l-4.367-1.62c-1.096-.407-1.902-1.35-2.133-2.496l-.878-4.366c-.37-1.846-2.184-3.03-4.024-2.628l-4.51.986c-1.128.247-2.305-.102-3.117-.924l-3.19-3.23c-1.318-1.335-3.475-1.335-4.795 0l-3.19 3.23c-.81.823-1.988 1.17-3.117.924l-4.51-.986c-1.84-.402-3.652.782-4.023 2.628l-.878 4.365c-.23 1.144-1.037 2.088-2.133 2.494l-4.367 1.62c-1.78.66-2.664 2.66-1.954 4.42l1.64 4.068c.445 1.102.276 2.357-.443 3.302l-2.818 3.703c-1.162 1.526-.817 3.712.757 4.808l3.577 2.49c.993.69 1.54 1.862 1.432 3.066l-.41 4.588c-.173 1.928 1.31 3.604 3.244 3.67l4.38.145c.984.033 1.888.5 2.496 1.245l-3.6 22.322c-.32 1.99 1.935 3.365 3.557 2.17l11.41-8.413c.793-.585 1.876-.585 2.67 0l11.412 8.413c1.62 1.195 3.876-.18 3.556-2.17l-3.595-22.295c.608-.762 1.52-1.237 2.517-1.27l4.38-.147c1.934-.065 3.417-1.74 3.244-3.67l-.408-4.585c-.108-1.205.438-2.376 1.432-3.066l3.578-2.49c1.57-1.098 1.916-3.284.753-4.81z"/>
  </symbol>
  <symbol id="diy-icn-focus" viewBox="2654.507 680.316 83.697 83.698">
    <path d="M2696.613 694c-15.555 0-28.166 12.61-28.166 28.165 0 15.557 12.61 28.166 28.166 28.166 15.556 0 28.166-12.608 28.166-28.165 0-15.556-12.612-28.166-28.167-28.166zm3 50.122v-8.18c0-1.656-1.343-3-3-3s-3 1.344-3 3v8.18c-9.826-1.336-17.62-9.132-18.958-18.957h8.18c1.657 0 3-1.343 3-3s-1.343-3-3-3h-8.18c1.336-9.826 9.132-17.62 18.958-18.958v8.18c0 1.657 1.343 3 3 3s3-1.343 3-3v-8.18c9.826 1.336 17.62 9.132 18.958 18.958h-8.18c-1.656 0-3 1.343-3 3s1.344 3 3 3h8.18c-1.336 9.826-9.13 17.62-18.957 18.957z"/>
  </symbol>
  <symbol id="diy-icn-forward" viewBox="2654.507 35.545 83.697 83.698">
    <path d="M2689.025 104.09c-1.535 0-3.07-.585-4.242-1.756-2.344-2.344-2.344-6.143 0-8.485l16.275-16.278-16.63-16.63c-2.344-2.344-2.344-6.143 0-8.485 2.342-2.344 6.143-2.344 8.484 0l20.873 20.873c2.344 2.343 2.344 6.142 0 8.484l-20.518 20.52c-1.17 1.17-2.707 1.757-4.242 1.757z"/>
  </symbol>
  <symbol id="diy-icn-front-cam" viewBox="2354.771 680.316 83.697 83.698">
    <path d="M2424.127 725.64c-2.04-2.04-4.75-3.163-7.637-3.163h-.002l-2.585.002V700.49c0-3.314-2.686-6-6-6h-23.583c-3.313 0-6 2.686-6 6v21.987l-2.58-.003h-.003c-2.884 0-5.596 1.123-7.636 3.162-2.04 2.04-3.162 4.75-3.162 7.637 0 5.955 4.845 10.8 10.802 10.8l5.99-.002c1.657 0 3-1.344 3-3-.002-1.657-1.345-3-3-3h-.002l-5.99.002c-2.646 0-4.8-2.153-4.8-4.8 0-1.282.5-2.488 1.406-3.395.906-.906 2.11-1.405 3.392-1.405l2.582.002h.002v5.596h10.57l4.475-5.178c1.143-1.322 2.79-2.08 4.52-2.08 3.32 0 6.018 2.693 6.018 6.004v1.253h10v-5.596h.002l2.586-.003h.002c1.28 0 2.486.5 3.393 1.405.907.906 1.406 2.112 1.406 3.395 0 2.646-2.152 4.8-4.8 4.8l-16.587-.002v-5.253c0-1.853-2.3-2.71-3.513-1.308l-7.136 8.254c-.65.75-.65 1.865 0 2.616l7.136 8.254c1.212 1.4 3.513.545 3.513-1.308v-5.256l16.587.002c5.956 0 10.8-4.845 10.8-10.8.002-2.884-1.123-5.597-3.163-7.637zm-34.8-15.15c-2.763 0-5-2.237-5-5 0-2.76 2.237-5 5-5 2.76 0 5 2.24 5 5 0 2.763-2.24 5-5 5z"/>
  </symbol>
  <symbol id="diy-icn-group" viewBox="2654.507 -179.296 83.697 83.698">
    <path d="M2713.533-146.953v-6.168c0-3.314-2.687-6-6-6h-37.353c-3.313 0-6 2.686-6 6v32.04c0 3.635 4.454 5.386 6.93 2.724l5.48-5.894h7.792v-13.702c0-4.963 4.037-9 9-9h20.15zm12 6h-32.15c-1.657 0-3 1.343-3 3v19.415c0 1.657 1.343 3 3 3h24.965l4.988 5.366c1.855 1.996 5.197.683 5.197-2.043v-25.738c0-1.657-1.344-3-3-3z"/>
  </symbol>
  <symbol id="diy-icn-library" viewBox="1568.712 -394.202 83.697 83.698">
    <path d="M1636.738-374.027h-52.353c-3.313 0-6 2.686-6 6v31.583c0 3.313 2.687 6 6 6h52.353c3.313 0 6-2.687 6-6v-31.583c0-3.314-2.687-6-6-6zm-4.494 35.624h-43.305c-2.417 0-3.842-2.71-2.472-4.7l8.184-11.887c1.088-1.58 3.36-1.747 4.667-.342l3.472 3.732c1.287 1.383 3.518 1.247 4.626-.284l8.82-12.177c1.235-1.707 3.798-1.642 4.945.124l13.576 20.898c1.296 1.997-.136 4.635-2.516 4.635z"/>
  </symbol>
  <symbol id="diy-icn-link" viewBox="2197.559 465.411 83.697 83.698">
    <path d="M2262.583 494.877h-1.166c-2.762 0-5 2.238-5 5s2.238 5 5 5h1.166c2.206 0 4 1.794 4 4v6.292c0 2.205-1.794 4-4 4h-21.676c-2.206 0-4-1.795-4-4v-6.675c0-2.762-2.238-5-5-5s-5 2.238-5 5v6.674c0 7.72 6.28 14 14 14h21.676c7.72 0 14-6.28 14-14v-6.293c0-7.72-6.28-14-14-14zm-45.195 15h-1.167c-2.205 0-4-1.794-4-4v-6.29c0-2.207 1.795-4 4-4h21.678c2.206 0 4 1.793 4 4v6.673c0 2.762 2.238 5 5 5s5-2.238 5-5v-6.674c0-7.72-6.28-14-14-14h-21.677c-7.72 0-14 6.28-14 14v6.29c0 7.72 6.28 14 14 14h1.168c2.762 0 5-2.237 5-5s-2.238-5-5-5z"/>
  </symbol>
  <symbol id="diy-icn-market" viewBox="2040.347 -179.296 83.697 83.698">
    <path d="M2094.578-141.01l4.995-4.995c3.893 1.275 8.342.38 11.436-2.716 2.67-2.67 3.704-6.348 3.12-9.806-.122-.73-1.043-.993-1.565-.47l-4.604 4.604c-.724.724-1.897.724-2.62 0l-4.534-4.533c-.724-.724-.724-1.897 0-2.622l4.604-4.604c.542-.543.227-1.454-.53-1.578-3.787-.62-7.83.703-10.516 3.983-2.452 2.993-3.103 7.037-1.95 10.59l-4.372 4.372 6.536 7.773zm-23.878 9.57l-3.655 3.655c-3.553-1.153-7.598-.502-10.59 1.95-3.28 2.687-4.602 6.728-3.982 10.516.123.757 1.035 1.072 1.577.53l4.604-4.604c.724-.724 1.897-.724 2.622 0l4.532 4.533c.724.723.724 1.896 0 2.62l-4.605 4.605c-.522.523-.258 1.443.47 1.566 3.46.585 7.138-.45 9.807-3.12 3.095-3.096 3.99-7.544 2.715-11.437l4.28-4.28-7.775-6.533zm11.212-15.31c-6.396-7.643-16.82 2.783-9.18 9.18l33.76 28.39c2.93 2.453 6.262-.878 3.81-3.81l-28.39-33.76zm-25.41-4.942c7.995 9.127 20.9-2.474 11.57-11.572-4.64-4.526-10.638-5.723-15.15-5.87-.997-.034-1.334 1.357-.423 1.762 6.95 3.086-.466 10.577 4.003 15.68z"/>
  </symbol>
  <symbol id="diy-icn-member" viewBox="0 0 83.7 83.7">
    <path d="M63.2 11.6H20.5c-4.9 0-8.9 4-8.9 8.9v42.7c0 4.9 4 8.9 8.9 8.9h42.7c4.9 0 8.9-4 8.9-8.9V20.5c0-4.9-4-8.9-8.9-8.9zM29.1 36.5c1.4 0 2.5 1.7 2.5 3.8 0 2.1-1.1 3.8-2.5 3.8s-2.5-1.7-2.5-3.8c0-2.1 1.1-3.8 2.5-3.8zM57 49.9c-.1.4-2.8 9.5-15.2 9.5-12.4 0-15.1-9.1-15.2-9.5-.2-.8-.1-1.6.4-2.2.5-.6 1.2-1 2-1h25.4c.8 0 1.5.4 2 1 .7.6.8 1.4.6 2.2zm-2.4-5.8c-1.4 0-2.5-1.7-2.5-3.8 0-2.1 1.1-3.8 2.5-3.8s2.5 1.7 2.5 3.8c0 2.1-1.1 3.8-2.5 3.8z"/>
  </symbol>
  <symbol id="diy-icn-mentor" viewBox="2354.771 895.223 83.697 83.698">
    <path d="M2424.16 927.14c-.946-11.59-10.323-21.02-22.01-22.114-13.043-1.22-24.225 7.705-26.45 19.732-.203 1.098-.583 2.157-1.094 3.15l-5.278 10.263c-.67 1.302-.303 2.895.867 3.773l3.138 2.355c.646.485 1.07 1.21 1.174 2.01l1.294 9.913c.195 1.486 1.47 2.823 2.983 2.823h5.757c1.895 0 3.828.66 4.965 2.16l4.454 5.888c.855 1.133 2.387 1.51 3.67.905l18.003-8.488c1.05-.495 1.72-1.552 1.72-2.714v-6.447c0-2.603.9-5.097 2.413-7.215 3.18-4.452 4.882-10.017 4.394-15.99zm-10.752 7.438c-5.737 1.957-6.12-7.244-15.374-4.78-23.22 6.18-17.474-17.958 1.252-17.958 15.07 0 18.073 12.478 18.073 16.118 0 3.982-2.48 6.118-3.952 6.62z"/>
  </symbol>
  <symbol id="diy-icn-messy" viewBox="2040.347 895.223 83.697 83.698">
    <path d="M2066.802 955.202c-.75 3.51-4.205 5.748-7.716 4.997-3.51-.752-5.667-4.19-4.996-7.717 1.17-6.147-2.302-4.793-2.07-7.916.166-2.203 2.856-3.582 4.837-2.605 4.123 2.034-.905 4.19 4.947 5.524 3.5.8 5.75 4.207 4.998 7.716zm44.93-6.447c-2.208 0-4 1.79-4 4s1.792 4 4 4c2.21 0 4-1.79 4-4s-1.79-4-4-4zm-40.214-35.974c2.292-.53 3.676-3.003 3.092-5.524-.583-2.52-2.913-4.135-5.205-3.605-2.292.53-3.677 3.006-3.093 5.526.584 2.522 2.914 4.135 5.206 3.605zm39.162 14.568c.693-5.79-4.417-11.32-10.097-10.002-8.773 2.037-6.572-7.194-14.48-6.816-8.86.423-6.256 9.682-14.892 9.32-5.335-.225-5.31-4.128-9.67-5.043-3.72-.78-8.17 2.78-8.17 6.58 0 5.492 6.034 4.147 5.554 7.902-1.157 9.06 8.743 3.295 8.835 9.908.09 6.613 3.506 9.755 9.14 9.755 9.47 0 9.345 4.89 16.242 4.89 7.54 0 14.15-5.573 13.223-13.055-.816-6.61 3.657-7.948 4.315-13.44z"/>
  </symbol>
  <symbol id="diy-icn-more" viewBox="2654.507 250.505 83.697 83.698">
    <g xmlns="http://www.w3.org/2000/svg">
      <circle cx="2676.356" cy="292.354" r="6"/>
      <circle cx="2696.356" cy="292.354" r="6"/>
      <circle cx="2716.356" cy="292.354" r="6"/>
    </g>
  </symbol>
  <symbol id="diy-icn-mustache" viewBox="1568.712 680.316 83.697 83.698"/>
  <symbol id="diy-icn-no" viewBox="2197.559 35.545 83.697 83.698">
    <g xmlns="http://www.w3.org/2000/svg">
      <path d="M2254.746 98.73c-1.535 0-3.07-.585-4.242-1.756L2219.828 66.3c-2.344-2.344-2.344-6.143 0-8.485 2.343-2.344 6.143-2.343 8.484 0l30.676 30.674c2.344 2.343 2.344 6.142 0 8.484-1.17 1.172-2.707 1.757-4.242 1.757zM2224.423 98.378c-1.536 0-3.07-.586-4.243-1.758-2.343-2.343-2.343-6.142 0-8.485l29.97-29.968c2.343-2.343 6.143-2.342 8.485 0s2.343 6.143 0 8.486l-29.97 29.968c-1.17 1.172-2.707 1.758-4.242 1.758z"/>
    </g>
  </symbol>
  <symbol id="diy-icn-notification" viewBox="2354.771 -179.296 83.697 83.698">
    <path d="M2390.88-128.573l-2.583 20.863c-.248 2.008 2.3 3.073 3.555 1.485l23.966-30.35c1.334-1.69.507-4.195-1.572-4.756l-10.424-2.815c-.962-.26-1.586-1.188-1.464-2.176l2.583-20.865c.25-2.008-2.3-3.073-3.554-1.485l-23.965 30.35c-1.334 1.69-.506 4.195 1.573 4.756l10.424 2.814c.96.26 1.586 1.188 1.463 2.177z"/>
  </symbol>
  <symbol id="diy-icn-offsite" viewBox="1725.924 465.411 83.697 83.698">
    <path d="M1794.95 480.586h-19.214c-2.762 0-5 2.238-5 5s2.238 5 5 5h7.143l-16.642 16.64c-1.953 1.953-1.953 5.12 0 7.07.976.978 2.256 1.466 3.535 1.466s2.56-.488 3.535-1.465l16.64-16.64v7.142c0 2.76 2.24 5 5 5s5-2.24 5-5v-19.214c0-2.762-2.238-5-5-5zm0 36.213c-2.763 0-5 2.237-5 5v1.37c0 .55-.45 1-1 1h-42.353c-.552 0-1-.45-1-1v-31.584c0-.552.448-1 1-1h12.14c2.76 0 5-2.238 5-5s-2.24-5-5-5h-12.14c-6.065 0-11 4.935-11 11v31.583c0 6.064 4.935 11 11 11h42.352c6.064 0 11-4.936 11-11v-1.37c0-2.763-2.24-5-5-5z"/>
  </symbol>
  <symbol id="diy-icn-onion-skin" viewBox="2504.769 680.316 83.697 83.698">
    <g xmlns="http://www.w3.org/2000/svg">
      <path fill="#fff" d="M2546.238 703.373c2.45 0 4.75 1.514 5.64 3.95l9.326 25.628c1.134 3.114-.472 6.558-3.586 7.69l-25.628 9.328c-.677.247-1.37.364-2.052.364-2.45 0-4.75-1.513-5.638-3.95l-9.328-25.628c-1.133-3.113.473-6.557 3.586-7.69l25.628-9.328c.678-.246 1.37-.363 2.052-.363m0-6c-1.4 0-2.782.244-4.104.726l-25.628 9.327c-6.217 2.262-9.434 9.16-7.172 15.38l9.328 25.627c1.718 4.723 6.25 7.898 11.276 7.898 1.4 0 2.782-.244 4.105-.726l25.627-9.327c3.013-1.098 5.417-3.302 6.772-6.207 1.355-2.905 1.497-6.164.4-9.176l-9.327-25.627c-1.72-4.724-6.253-7.897-11.277-7.897z"/>
      <path d="M2536.248 744.836c-4.858 0-8.997-3.476-9.84-8.265l-4.37-24.773-3.48 1.267c-3.113 1.133-4.72 4.576-3.586 7.69l9.328 25.628c1.133 3.114 4.576 4.72 7.69 3.586l22.526-8.2-16.526 2.915c-.574.102-1.16.153-1.742.153zm36.546-50.863h-27.27c-3.315 0-6 2.686-6 6v27.272c0 3.313 2.685 6 6 6h27.27c3.314 0 6-2.687 6-6v-27.272c0-3.314-2.685-6-6-6zm-37.27 33.272v-26.067l-5.047.89c-3.263.575-5.442 3.688-4.866 6.95l4.736 26.858c.575 3.264 3.688 5.442 6.95 4.867l19.842-3.5h-11.615c-5.514.002-10-4.484-10-9.998z"/>
    </g>
  </symbol>
  <symbol id="diy-icn-outdoors" viewBox="2040.347 680.316 83.697 83.698">
    <path d="M2084.542 728.412h2.49c2.373 0 3.807-2.623 2.525-4.62l-9.088-14.16h.063c2.188 0 3.426-2.508 2.095-4.245l-7.693-10.038c-1.2-1.567-3.562-1.567-4.763 0l-7.693 10.037c-1.332 1.737-.094 4.246 2.095 4.246h.063l-9.087 14.16c-1.28 1.996.153 4.62 2.525 4.62h2.49l-5.758 11.3c-1.017 1.995.433 4.36 2.673 4.36h30.146c2.24 0 3.69-2.365 2.673-4.36l-5.758-11.3zm27.044 11.3l-3.996-7.842h.73c2.37 0 3.805-2.623 2.523-4.62l-6.427-10.013h.045c1.708 0 2.674-1.958 1.636-3.314l-6.26-8.167c-.8-1.044-2.374-1.044-3.175 0l-6.258 8.167c-.01.013-.014.028-.023.042l4.227 6.587c1.778 2.77 1.9 6.287.323 9.176-.48.878-1.093 1.654-1.807 2.31l2.52 4.948c1.145 2.243 1.278 4.783.454 7.087h12.815c2.242 0 3.692-2.365 2.674-4.36z"/>
  </symbol>
  <symbol id="diy-icn-parent" viewBox="0 0 83.7 83.7">
    <path d="M71.2 21.2c-3-3.5-7-5.4-11.3-5.4-5.8 0-11.6 3.5-16.9 10.2-.3.3-.7.5-1.2.5-.4 0-.9-.2-1.1-.6-4.6-6.4-10.1-9.8-15.8-9.8-9.6 0-17 9.5-17 17.7C7.9 54.3 32 68 41.8 68c8.5 0 33.9-13.9 33.9-34.3.1-4.6-1.6-9.1-4.5-12.5zM29.7 34.8c1.3 0 2.4 1.6 2.4 3.6S31 42 29.7 42c-1.3 0-2.4-1.6-2.4-3.6s1.1-3.6 2.4-3.6zm26.6 12.8c-.1.4-2.6 9-14.4 9s-14.3-8.7-14.4-9c-.2-.7-.1-1.5.4-2.1.5-.6 1.2-1 1.9-1H54c.8 0 1.5.4 1.9 1 .4.6.6 1.3.4 2.1zm-2.4-5.5c-1.3 0-2.4-1.6-2.4-3.6s1.1-3.6 2.4-3.6c1.3 0 2.4 1.6 2.4 3.6.1 2-1 3.6-2.4 3.6z"/>
  </symbol>
  <symbol id="diy-icn-phone" viewBox="2804.246 680.316 83.697 83.698">
    <path d="M2859.384 689.99H2832.8c-3.312 0-6 2.685-6 6v52.35c0 3.315 2.688 6 6 6h26.584c3.313 0 6-2.687 6-6v-52.35c0-3.314-2.686-6-6-6zm-27.583 51.084V703.49c0-1.655 1.344-3 3-3h22.584c1.657 0 3 1.345 3 3v37.584c0 1.657-1.344 3-3 3H2834.8c-1.656 0-3-1.343-3-3z"/>
  </symbol>
  <symbol id="diy-icn-photo" viewBox="1725.916 -394.202 83.697 83.698">
    <path d="M1767.773-360.032c-4.3 0-7.797 3.498-7.797 7.797s3.498 7.797 7.797 7.797 7.797-3.498 7.797-7.797-3.498-7.797-7.797-7.797zm26.176-13.995h-52.353c-3.314 0-6 2.686-6 6v31.583c0 3.313 2.686 6 6 6h52.352c3.313 0 6-2.687 6-6v-31.583c0-3.314-2.687-6-6-6zm-26.177 35.59c-7.62 0-13.797-6.178-13.797-13.798s6.177-13.797 13.797-13.797 13.797 6.177 13.797 13.797c0 7.62-6.177 13.797-13.797 13.797z"/>
  </symbol>
  <symbol id="diy-icn-pizza" viewBox="1725.924 680.316 83.697 83.698">
    <path d="M1748.042 699.987c-.02-.003-.04-.01-.06-.014l-10.142 45.752c-.524 2.368 1.832 4.348 4.074 3.422l46.095-19.022c-.004-.007-.01-.012-.012-.02-6.63-16.136-21.94-27.676-39.956-30.118zm5.227 37.126c-2.763-.03-4.977-2.292-4.947-5.053.03-2.762 2.292-4.976 5.054-4.946 2.76.03 4.976 2.292 4.945 5.054-.03 2.76-2.292 4.975-5.053 4.945zm3.51-16.492c-3.313-.035-5.972-2.75-5.936-6.064.035-3.313 2.75-5.97 6.063-5.935 3.314.037 5.97 2.752 5.936 6.065-.035 3.314-2.75 5.97-6.064 5.936zm14.635 9.545c-2.76-.03-4.976-2.292-4.946-5.054.03-2.76 2.292-4.975 5.053-4.944 2.762.03 4.976 2.292 4.946 5.053-.03 2.76-2.294 4.974-5.055 4.945zm26.625-11.454c-8.584-15.587-23.817-26.746-41.257-30.784-3.222-.745-6.426 1.338-7.142 4.566l-.79 3.573c19.306 2.71 35.71 15.15 42.85 32.52 0 .006 0 .01.003.015l3.39-1.4c3.327-1.372 4.684-5.335 2.947-8.49z"/>
  </symbol>
  <symbol id="diy-icn-price" viewBox="0 0 37.073 64.353">
    <path d="M23.52 54.652v6.244c0 2.34-1.12 3.457-3.508 3.457h-2.948c-2.393 0-3.51-1.118-3.51-3.457v-5.86c-4.085-.285-8.166-1.025-10.27-1.77C.603 52.4 0 50.412 0 48.512V44.97c0-2.766 1.987-4.84 5.444-3.98 2.33.696 6.05 1.818 11.236 1.818 3.11 0 4.922-.69 4.922-2.592 0-1.99-1.383-2.51-3.457-2.68C4.318 36.327.345 33.734.345 24.4c0-7.515 3.874-13.006 13.21-14.672v-6.27C13.555 1.12 14.673 0 17.065 0h2.948c2.39 0 3.507 1.118 3.507 3.457V9.29c3.434.194 6.94.662 9.06 1.367 2.595.778 3.46 2.852 3.46 4.757v3.54c0 2.765-2.248 4.84-5.705 3.978-1.987-.522-4.148-1.3-9.592-1.3-3.026 0-4.84.696-4.84 2.596 0 1.987 1.383 2.505 3.37 2.68 14.172 1.12 17.803 3.63 17.803 13.135-.003 7.17-3.368 12.928-13.557 14.61z"/>
  </symbol>
  <symbol id="diy-icn-reload" viewBox="2354.771 35.545 83.697 83.698">
    <path d="M2423.947 49.267c-.17-2.604-3.355-3.764-5.16-1.878l-7.398 7.726c-3.934-2.6-8.44-4.133-13.23-4.438-15.004-.948-27.97 10.464-28.927 25.46-.956 14.993 10.465 27.97 25.46 28.927.576.036 1.15.055 1.726.055 8.196 0 16.028-3.715 21.218-10.142 1.735-2.148 1.4-5.297-.748-7.03-2.15-1.736-5.298-1.4-7.03.747-3.52 4.356-8.946 6.747-14.53 6.39-9.49-.605-16.72-8.82-16.115-18.31.605-9.493 8.826-16.74 18.31-16.116 2.402.152 4.692.788 6.778 1.86l-7.623 7.964c-1.776 1.855-.552 4.94 2.014 5.07l23.707 1.217c1.794.093 3.266-1.4 3.147-3.192l-1.6-24.31z"/>
  </symbol>
  <symbol id="diy-icn-reply" viewBox="2040.347 250.505 83.697 83.698">
    <path d="M2120.366 306.69c-6.922-12.537-20.268-25.778-41.904-25.778v-9.554c0-4.436-5.348-6.675-8.51-3.562l-20.44 20.133c-1.988 1.957-1.988 5.165 0 7.124l20.44 20.133c3.162 3.113 8.51.874 8.51-3.562v-10.57c13.884-2.244 27.73 1.333 37.302 9.328 2.556 2.136 6.212-.777 4.602-3.693z"/>
  </symbol>
  <symbol id="diy-icn-report" viewBox="2504.769 250.505 83.697 83.698">
    <path d="M2546.628 260.178c-17.77 0-32.177 14.405-32.177 32.177 0 17.77 14.407 32.176 32.178 32.176s32.176-14.405 32.176-32.175c0-17.772-14.405-32.177-32.176-32.177zm10.176 20.667c2.762 0 5 2.238 5 5s-2.238 5-5 5-5-2.238-5-5 2.238-5 5-5zm-20.352 0c2.762 0 5 2.238 5 5s-2.238 5-5 5c-2.76 0-5-2.238-5-5s2.24-5 5-5zm28.758 26.82c-.59.638-1.396.96-2.202.96-.724 0-1.448-.26-2.023-.785-.24-.215-5.148-4.5-14.367-4.5-9.24 0-14.286 4.44-14.334 4.484-1.218 1.127-3.113 1.055-4.24-.16-1.126-1.215-1.055-3.113.16-4.24.27-.248 6.697-6.084 18.414-6.084 11.725 0 18.162 5.837 18.43 6.085 1.215 1.126 1.288 3.024.162 4.24z"/>
  </symbol>
  <symbol id="diy-icn-search" viewBox="2504.769 -394.202 83.697 83.698">
    <g xmlns="http://www.w3.org/2000/svg">
      <circle fill="#fff" cx="2551.178" cy="-356.536" r="23.49"/>
      <path d="M2551.178-380.027c-12.974 0-23.49 10.517-23.49 23.49 0 4.21 1.112 8.157 3.05 11.573l-10.278 10.28c-2.344 2.342-2.344 6.14 0 8.484 2.588 2.59 6.636 1.802 8.484 0l10.177-10.176c3.526 2.113 7.65 3.33 12.06 3.33 12.973 0 23.49-10.517 23.49-23.49-.002-12.974-10.518-23.49-23.492-23.49zm0 40.98c-9.644 0-17.49-7.845-17.49-17.49 0-9.643 7.846-17.49 17.49-17.49s17.49 7.846 17.49 17.49c0 9.645-7.846 17.49-17.49 17.49z"/>
    </g>
  </symbol>
  <symbol id="diy-icn-selfie-cam" viewBox="2197.559 680.316 83.697 83.698">
    <path d="M2267.42 725.64c-2.04-2.04-4.75-3.163-7.637-3.163h-.002l-2.58.002V700.49c0-3.314-2.686-6-6-6h-23.582c-3.314 0-6 2.686-6 6v21.987l-2.586-.003h-.003c-2.885 0-5.597 1.123-7.636 3.162-2.04 2.04-3.163 4.752-3.163 7.637 0 5.955 4.846 10.8 10.8 10.8l16.588-.002v5.256c0 1.854 2.3 2.71 3.513 1.31l7.138-8.255c.65-.75.65-1.865 0-2.616l-7.137-8.255c-1.21-1.4-3.512-.545-3.512 1.308v5.253l-16.587.002c-2.645 0-4.8-2.153-4.8-4.8 0-1.282.5-2.488 1.407-3.395.906-.906 2.11-1.405 3.39-1.405h.002l2.586.002h.002v5.597h10v-1.254c0-3.31 2.7-6.004 6.017-6.004 1.73 0 3.378.757 4.52 2.08l4.478 5.176h10.567v-5.596h.002l2.582-.002c1.282 0 2.487.5 3.393 1.405.907.906 1.406 2.112 1.406 3.395 0 2.646-2.153 4.8-4.8 4.8l-5.99-.002c-1.657 0-3 1.343-3 3-.002 1.656 1.34 3 2.998 3l5.993.002c5.955 0 10.8-4.845 10.8-10.8 0-2.886-1.123-5.6-3.163-7.64zm-21.795-23.377c1.688 0 3.058 1.37 3.058 3.058 0 1.69-1.37 3.06-3.058 3.06-1.69 0-3.06-1.37-3.06-3.06.002-1.688 1.37-3.057 3.06-3.057zm-12.447 0c1.688 0 3.058 1.37 3.058 3.058 0 1.69-1.37 3.06-3.058 3.06-1.69 0-3.06-1.37-3.06-3.06.002-1.688 1.37-3.057 3.06-3.057zm17.6 13.39c-.164.153-4.143 3.765-11.372 3.765-7.234 0-11.218-3.61-11.384-3.765-.81-.75-.858-2.017-.108-2.827.748-.808 2.005-.858 2.817-.117.154.136 3.117 2.708 8.676 2.708 5.588 0 8.625-2.67 8.654-2.698.81-.75 2.074-.704 2.826.107.75.81.703 2.075-.107 2.826z"/>
  </symbol>
  <symbol id="diy-icn-send" viewBox="2804.246 250.505 83.697 83.698">
    <path d="M2880.93 271.695l-69.88 17.347c-2.65.658-3.114 4.228-.72 5.542l9.993 5.483v21.506c0 1.708 2.003 2.63 3.3 1.518l15.1-12.93 21.58 11.84c1.572.864 3.546.163 4.222-1.5l18.74-46.11c.614-1.515-.75-3.088-2.336-2.695zm-54.606 40.185v-10.52l33.98-15.58-33.98 26.1z"/>
  </symbol>
  <symbol id="diy-icn-settings" viewBox="2354.771 465.411 83.697 83.698">
    <path d="M2423.29 513.42l-3.546-2.047c.236-1.336.366-2.71.366-4.113s-.13-2.777-.366-4.113l3.545-2.047c1.435-.828 1.926-2.663 1.097-4.098l-5-8.66c-.828-1.436-2.662-1.927-4.098-1.1l-3.547 2.048c-2.094-1.764-4.5-3.17-7.123-4.122v-4.085c0-1.657-1.343-3-3-3h-10c-1.657 0-3 1.343-3 3v4.085c-2.625.95-5.03 2.357-7.123 4.122l-3.546-2.047c-1.435-.828-3.27-.337-4.098 1.1l-5 8.66c-.83 1.434-.337 3.27 1.1 4.097l3.544 2.047c-.236 1.336-.366 2.71-.366 4.113s.13 2.777.366 4.113l-3.545 2.047c-1.435.828-1.927 2.663-1.098 4.098l5 8.66c.83 1.436 2.663 1.927 4.1 1.1l3.545-2.048c2.094 1.764 4.5 3.17 7.123 4.12v4.086c0 1.657 1.343 3 3 3h10c1.657 0 3-1.343 3-3v-4.085c2.625-.95 5.03-2.356 7.123-4.12l3.546 2.047c1.435.828 3.27.337 4.097-1.1l5-8.66c.828-1.434.337-3.27-1.098-4.097zm-26.67 5.33c-6.336 0-11.49-5.154-11.49-11.49s5.155-11.49 11.49-11.49 11.49 5.155 11.49 11.49-5.155 11.49-11.49 11.49z"/>
  </symbol>
  <symbol id="diy-icn-skills" viewBox="2197.559 -394.202 83.697 83.698">
    <path d="M2270.448-372.972l-8.037-4.68c-.93-.543-2.08-.544-3.013-.004l-8.088 4.685c-.928.536-1.498 1.525-1.498 2.595v9.337c0 1.068.568 2.055 1.49 2.592l8.037 4.68c.93.543 2.08.544 3.013.004l8.09-4.685c.925-.537 1.495-1.526 1.495-2.596v-9.336c0-1.067-.567-2.054-1.49-2.592zm-26.648 11.93v-9.336c0-1.068-.567-2.055-1.49-2.593l-8.037-4.682c-.93-.542-2.08-.543-3.013-.003l-8.09 4.685c-.925.537-1.495 1.526-1.495 2.596v9.337c0 1.068.567 2.055 1.49 2.592l8.037 4.68c.93.543 2.08.544 3.014.004l8.088-4.686c.927-.537 1.496-1.526 1.496-2.596zm12.58 11.567l-8.038-4.68c-.932-.543-2.08-.544-3.014-.005l-8.09 4.686c-.925.537-1.495 1.525-1.495 2.596v9.337c0 1.067.567 2.054 1.49 2.59l8.037 4.682c.93.542 2.08.544 3.014.004l8.09-4.686c.925-.536 1.495-1.525 1.495-2.596v-9.337c0-1.068-.568-2.055-1.49-2.592zm-28.138 0l-8.037-4.68c-.93-.543-2.08-.544-3.014-.005l-8.087 4.686c-.927.537-1.497 1.525-1.497 2.596v9.337c0 1.067.568 2.054 1.49 2.59l8.038 4.682c.93.542 2.08.544 3.013.004l8.09-4.686c.925-.536 1.495-1.525 1.495-2.596v-9.337c0-1.068-.567-2.055-1.49-2.592z"/>
  </symbol>
  <symbol id="diy-icn-stream" viewBox="2804.246 -394.202 83.697 83.698">
    <path d="M2822.434-348.09c2.377-1.182 5.07-2.523 8.75-2.523 3.686 0 6.396 1.344 8.787 2.53 2.063 1.022 3.844 1.906 6.123 1.906 2.278 0 4.06-.883 6.12-1.906 2.393-1.186 5.104-2.53 8.788-2.53 3.68 0 6.375 1.34 8.752 2.524 1.305.65 2.5 1.242 3.786 1.59 2.9-2.983 4.73-6.946 4.73-11.374 0-4.8-2.217-9.017-4.597-11.518-2.427-2.55-4.798-2.648-5.915-.153-1.922 4.29-4.288 7.63-15.474 7.63h-12.12l2.552-2.55c3.82-3.82 4.38-.14 11.112-6.87l3-3.003c.798-.796.798-2.088 0-2.885l-4.185-4.186c-.798-.796-2.09-.796-2.887 0l-3 3.003c-6.732 6.73-2.547 6.788-6.365 10.606l-5.585 5.585c-6.887-.906-8.79-3.794-10.374-7.33-1.12-2.497-3.49-2.4-5.917.152-2.38 2.5-4.597 6.717-4.597 11.518 0 4.43 1.83 8.39 4.73 11.374 1.29-.348 2.483-.94 3.788-1.59zm61.37 7.148c-.885-1.4-2.736-1.82-4.138-.935l-.206.13c-1.055.67-2.05 1.304-3.55 1.304-2.314 0-4.096-.886-6.157-1.912-2.378-1.183-5.072-2.524-8.752-2.524-3.684 0-6.395 1.345-8.786 2.53-2.062 1.023-3.843 1.907-6.12 1.907-2.28 0-4.06-.883-6.123-1.906-2.39-1.185-5.1-2.53-8.785-2.53-3.68 0-6.374 1.342-8.752 2.525-2.062 1.026-3.843 1.912-6.157 1.912-1.503 0-2.5-.634-3.554-1.305l-.207-.132c-1.402-.886-3.255-.47-4.14.932-.885 1.4-.468 3.253.933 4.14l.192.12c1.318.84 3.524 2.245 6.775 2.245 3.725 0 6.438-1.35 8.83-2.54 2.045-1.018 3.81-1.897 6.08-1.897 2.277 0 4.058.883 6.12 1.906 2.392 1.186 5.102 2.53 8.787 2.53 3.685 0 6.396-1.344 8.787-2.53 2.06-1.022 3.842-1.906 6.12-1.906 2.27 0 4.034.878 6.078 1.896 2.394 1.19 5.106 2.54 8.83 2.54 3.245 0 5.45-1.4 6.77-2.238l.19-.122c1.403-.884 1.82-2.737.937-4.138z"/>
  </symbol>
  <symbol id="diy-icn-text" viewBox="1568.712 465.411 83.697 83.698">
    <path d="M1600.453 483.156c-.64-1.792-1.407-2.56-3.2-2.56h-2.815c-1.792 0-2.56.77-3.2 2.56l-14.526 42.685c-.64 1.92.384 3.33 1.984 3.33h2.815c1.92 0 2.69-.768 3.265-2.625l2.752-9.087h16.64l2.75 9.087c.577 1.857 1.345 2.624 3.265 2.624h2.815c1.6 0 2.624-1.41 1.984-3.33l-14.527-42.684zm-11.135 28.414l6.527-21.44 6.527 21.44h-13.054zm41.466-15.167c-3.393 0-6.976.704-8.704 1.216-1.344.383-1.792 1.15-1.792 2.367v2.367c0 1.088.896 1.92 2.305 1.473 1.216-.385 4.16-1.28 7.68-1.28 4.735 0 6.27 1.28 6.27 4.544v1.6l-7.167.577c-7.23.576-11.71 3.52-11.71 10.43 0 5.12 2.75 10.24 11.006 10.24 3.52 0 7.104-1.216 9.663-3.327l.32.704c.576 1.344.96 1.855 2.304 1.855h.703c1.344 0 2.048-.768 2.048-2.113v-19.262c0-6.784-2.43-11.392-12.926-11.392zm5.758 25.535c-1.983 1.28-3.968 2.11-6.847 2.11-3.904 0-4.928-2.303-4.928-4.734 0-3.327 1.855-4.544 5.056-4.928l6.72-.767v8.318z"/>
  </symbol>
  <symbol id="diy-icn-time" viewBox="0 0 64.353 64.353">
    <path d="M32.177 0C14.407 0 0 14.407 0 32.177s14.406 32.176 32.177 32.176c17.77 0 32.176-14.405 32.176-32.176S49.946 0 32.177 0zM48.01 43.363c-.71 1.378-2.11 2.17-3.56 2.17-.617 0-1.243-.145-1.83-.446l-14.275-7.355c-1.33-.686-2.168-2.058-2.168-3.556V17c0-2.21 1.79-4 4-4s4 1.79 4 4v14.737l12.108 6.238c1.964 1.013 2.736 3.425 1.724 5.388z"/>
  </symbol>
  <symbol id="diy-icn-up" viewBox="1568.712 35.545 83.697 83.698">
    <path d="M1589.865 93.948c-1.535 0-3.07-.586-4.242-1.758-2.344-2.343-2.344-6.142 0-8.484l20.873-20.873c2.342-2.344 6.143-2.344 8.484 0l20.52 20.52c2.344 2.343 2.344 6.142 0 8.484-2.342 2.344-6.143 2.344-8.484 0L1610.74 75.56l-16.632 16.63c-1.172 1.172-2.708 1.758-4.243 1.758z"/>
  </symbol>
  <symbol id="diy-icn-user" viewBox="2504.769 -179.296 83.697 83.698">
    <path d="M2573.865-141.193c-10.955-4.54-5.88-12.195-9.792-22.86-.5-1.36-2.358-1.54-3.148-.326l-6.212 9.536c-.414.635-1.186.945-1.918.753-2.063-.54-4.164-.86-6.266-.86s-4.2.325-6.26.866c-.734.193-1.507-.117-1.92-.752l-6.218-9.542c-.79-1.213-2.65-1.035-3.148.324-3.912 10.667 1.163 18.32-9.793 22.86-.93.387-1.356 1.496-.924 2.405 6.42 13.502 23.53 10.42 23.53 18.508 0 5.818-15.377 3.264-15.377 15.01h40.216c0-11.746-15.377-9.192-15.377-15.01 0-8.088 17.11-5.006 23.53-18.507.433-.91.006-2.018-.925-2.403z"/>
  </symbol>
  <symbol id="diy-icn-video" viewBox="1883.135 -394.202 83.697 83.698">
    <path d="M1951.975-369.06l-12.654 12.334v-11.3c0-3.315-2.686-6-6-6h-34.603c-3.313 0-6 2.685-6 6v31.582c0 3.313 2.687 6 6 6h34.604c3.314 0 6-2.687 6-6v-11.304l12.655 12.337c1.9 1.852 5.094.505 5.094-2.15v-29.354c0-2.653-3.195-4-5.095-2.147z"/>
  </symbol>
  <symbol id="diy-icn-waiting" viewBox="1883.135 250.505 83.697 83.698">
    <path d="M1924.985 260.178c-17.77 0-32.177 14.406-32.177 32.177s14.406 32.176 32.177 32.176c17.77 0 32.176-14.404 32.176-32.175s-14.406-32.177-32.175-32.177zm15.832 43.363c-.71 1.38-2.11 2.17-3.56 2.17-.616 0-1.242-.144-1.828-.445l-14.277-7.355c-1.33-.686-2.168-2.058-2.168-3.556v-17.176c0-2.21 1.79-4 4-4s4 1.79 4 4v14.737l12.108 6.238c1.964 1.012 2.736 3.424 1.724 5.388z"/>
  </symbol>
  <symbol id="diy-icn-yes" viewBox="2040.347 35.545 83.697 83.698">
    <path d="M2065.203 102.178L2050.64 75.41c-2.218-4.075 2.943-8.14 6.386-5.03l14.78 13.358 35.428-34.715c3.586-3.514 9.148 1.22 6.256 5.32l-34.304 48.646c-3.523 4.993-11.063 4.556-13.983-.812z"/>
  </symbol>
</svg>
